0
SECTION
2
HEADER
9
$INSUNITS
70
5
9
$ACADVER
1
AC1014
9
$HANDSEED
5
FFFF
0
ENDSEC
0
SECTION
2
TABLES
0
TABLE
2
VPORT
5
8
100
AcDbSymbolTable
0
ENDTAB
0
TABLE
2
LTYPE
5
5
100
AcDbSymbolTable
0
LTYPE
5
14
100
AcDbSymbolTableRecord
100
AcDbLinetypeTableRecord
2
BYBLOCK
70
0
0
LTYPE
5
15
100
AcDbSymbolTableRecord
100
AcDbLinetypeTableRecord
2
BYLAYER
70
0
0
ENDTAB
0
TABLE
2
LAYER
5
2
100
AcDbSymbolTable
70
2
0
LAYER
5
50
100
AcDbSymbolTableRecord
100
AcDbLayerTableRecord
2
0
70
0
6
CONTINUOUS
0
ENDTAB
0
TABLE
2
STYLE
5
3
100
AcDbSymbolTable
70
1
0
STYLE
5
11
100
AcDbSymbolTableRecord
100
AcDbTextStyleTableRecord
2
STANDARD
70
0
0
ENDTAB
0
TABLE
2
VIEW
5
6
100
AcDbSymbolTable
70
0
0
ENDTAB
0
TABLE
2
UCS
5
7
100
AcDbSymbolTable
70
0
0
ENDTAB
0
TABLE
2
APPID
5
9
100
AcDbSymbolTable
70
2
0
APPID
5
12
100
AcDbSymbolTableRecord
100
AcDbRegAppTableRecord
2
ACAD
70
0
0
ENDTAB
0
TABLE
2
DIMSTYLE
5
A
100
AcDbSymbolTable
70
1
0
ENDTAB
0
TABLE
2
BLOCK_RECORD
5
1
100
AcDbSymbolTable
70
1
0
BLOCK_RECORD
5
1F
100
AcDbSymbolTableRecord
100
AcDbBlockTableRecord
2
*MODEL_SPACE
0
BLOCK_RECORD
5
1B
100
AcDbSymbolTableRecord
100
AcDbBlockTableRecord
2
*PAPER_SPACE
0
ENDTAB
0
ENDSEC
0
SECTION
2
BLOCKS
0
BLOCK
5
20
100
AcDbEntity
100
AcDbBlockBegin
2
*MODEL_SPACE
0
ENDBLK
5
21
100
AcDbEntity
100
AcDbBlockEnd
0
BLOCK
5
1C
100
AcDbEntity
100
AcDbBlockBegin
2
*PAPER_SPACE
0
ENDBLK
5
1D
100
AcDbEntity
100
AcDbBlockEnd
0
ENDSEC
0
SECTION
2
ENTITIES
0
LWPOLYLINE
5
100
100
AcDbEntity
8
OUTER_PROFILES
100
AcDbPolyline
90
16
70
1
43
0.0
10
10.400000000000004
20
8.6999999999999993
10
9.4000000000000039
20
8.6999999999999975
10
9.4000000000000021
20
9.6999999999999957
10
0
20
9.6999999999999957
10
5.3290705182007514e-15
20
8.6499999999999968
10
-0.099999999999996092
20
8.6499999999999968
10
-0.099999999999996092
20
8.6999999999999957
10
-1.0000000000000053
20
8.6999999999999975
10
-1.0000000000000053
20
0.99999999999999778
10
3.5527136788005009e-15
20
0.99999999999999689
10
0
20
0
10
9.4000000000000021
20
-8.8817841970012523e-16
10
9.4000000000000039
20
1.0499999999999972
10
9.5000000000000053
20
1.0499999999999972
10
9.5000000000000036
20
0.99999999999999734
10
10.400000000000004
20
0.99999999999999822
0
CIRCLE
5
101
100
AcDbEntity
8
INTERIOR_PROFILES
100
AcDbCircle
10
-7.8500000029802361
20
1.449999882280824
30
0
40
0.15000000000000036
210
0
220
0
230
-1
0
LWPOLYLINE
5
102
100
AcDbEntity
8
INTERIOR_PROFILES
100
AcDbPolyline
90
6
70
1
43
0.0
10
6.9499998569488568
20
8.600000002980229
10
7.2531087482734105
20
8.4250000029802301
10
7.2531087482734105
20
8.0750000029802287
10
6.9499998569488568
20
7.9000000029802298
10
6.6468909656243031
20
8.0750000029802287
10
6.6468909656243031
20
8.4250000029802301
0
CIRCLE
5
103
100
AcDbEntity
8
INTERIOR_PROFILES
100
AcDbCircle
10
-9.0500000029802354
20
2.6499998822808233
30
0
40
0.15000000000000036
210
0
220
0
230
-1
0
CIRCLE
5
104
100
AcDbEntity
8
INTERIOR_PROFILES
100
AcDbCircle
10
-6.8500000029802353
20
4.1499998822808397
30
0
40
0.14999999999999947
210
0
220
0
230
-1
0
LWPOLYLINE
5
105
100
AcDbEntity
8
INTERIOR_PROFILES
100
AcDbPolyline
90
15
70
1
43
0.0
10
7.7000000029802367
20
4.9000000029802298
42
0.41421356237309453
10
7.2000000029802358
20
5.4000000029802298
10
1.5999998569488572
20
5.4000000029802289
42
0.41421356237309348
10
1.099999856948858
20
4.9000000029802289
10
1.0999998569488572
20
2.9999998822808243
42
0.41421356237309709
10
1.5999998569488572
20
2.4999998822808243
10
6.4000000029802351
20
2.4999998822808238
10
6.4000000029802369
20
2.449999882280824
42
0.99999999999999989
10
6.5000000029802347
20
2.449999882280824
10
6.5000000029802356
20
4.1499998822808415
42
-0.99999999999999989
10
7.2000000029802349
20
4.1499998822808379
10
7.2000000029802376
20
2.4499998822808244
42
0.99999999999999989
10
7.3000000029802354
20
2.4499998822808244
10
7.3000000029802354
20
2.4999998822808243
10
7.7000000029802358
20
2.4999998822808238
0
CIRCLE
5
106
100
AcDbEntity
8
INTERIOR_PROFILES
100
AcDbCircle
10
-1.5499998569488564
20
1.449999882280824
30
0
40
0.15000000000000036
210
0
220
0
230
-1
0
LWPOLYLINE
5
107
100
AcDbEntity
8
INTERIOR_PROFILES
100
AcDbPolyline
90
8
70
1
43
0.0
10
-0.45000000000000462
20
7.6999999999999975
10
0.050000000000002487
20
7.6999999999999966
10
0.050000000000002487
20
7.474999999999997
10
-0.32499999999999751
20
7.4749999999999979
10
-0.32499999999999574
20
6.6749999999999972
10
0.050000000000004263
20
6.6749999999999972
10
0.050000000000004263
20
6.4499999999999975
10
-0.45000000000000551
20
6.4499999999999975
0
LWPOLYLINE
5
108
100
AcDbEntity
8
INTERIOR_PROFILES
100
AcDbPolyline
90
6
70
1
43
0.0
10
0.75310874827341046
20
8.0750000029802287
10
0.44999985694885503
20
7.9000000029802298
10
0.14689096562430315
20
8.0750000029802287
10
0.14689096562430315
20
8.4250000029802301
10
0.44999985694885858
20
8.6000000029802308
10
0.75310874827341046
20
8.4250000029802301
0
LWPOLYLINE
5
109
100
AcDbEntity
8
INTERIOR_PROFILES
100
AcDbPolyline
90
8
70
1
43
0.0
10
9.850000000000005
20
1.9999999999999976
10
9.3500000000000032
20
1.9999999999999971
10
9.3500000000000032
20
2.224999999999997
10
9.7250000000000032
20
2.224999999999997
10
9.7250000000000032
20
3.0249999999999977
10
9.3500000000000032
20
3.0249999999999977
10
9.3500000000000032
20
3.2499999999999973
10
9.8500000000000032
20
3.2499999999999973
0
LWPOLYLINE
5
110
100
AcDbEntity
8
INTERIOR_PROFILES
100
AcDbPolyline
90
8
70
1
43
0.0
10
9.850000000000005
20
6.4499999999999975
10
9.3500000000000032
20
6.4499999999999975
10
9.3500000000000032
20
6.6749999999999972
10
9.7250000000000032
20
6.6749999999999972
10
9.7250000000000032
20
7.474999999999997
10
9.3500000000000032
20
7.4749999999999979
10
9.3500000000000032
20
7.6999999999999975
10
9.8500000000000032
20
7.6999999999999975
0
LWPOLYLINE
5
111
100
AcDbEntity
8
INTERIOR_PROFILES
100
AcDbPolyline
90
6
70
1
43
0.0
10
0.14689096562430493
20
1.2749998822808242
10
0.14689096562430493
20
1.6249998822808238
10
0.44999985694885503
20
1.7999998822808241
10
0.75310874827341223
20
1.6249998822808238
10
0.75310874827341223
20
1.2749998822808242
10
0.4499998569488568
20
1.0999998822808248
0
LWPOLYLINE
5
112
100
AcDbEntity
8
INTERIOR_PROFILES
100
AcDbPolyline
90
8
70
1
43
0.0
10
3.8750000000000031
20
0.72499999999999698
10
5.525000000000003
20
0.72499999999999742
10
5.525000000000003
20
1.0999999999999974
10
5.7500000000000036
20
1.0999999999999965
10
5.7500000000000027
20
0.54999999999999893
10
3.6500000000000039
20
0.54999999999999893
10
3.6500000000000035
20
1.0999999999999965
10
3.8750000000000031
20
1.099999999999997
0
CIRCLE
5
113
100
AcDbEntity
8
INTERIOR_PROFILES
100
AcDbCircle
10
-9.0500000029802372
20
7.5000000029802294
30
0
40
0.15000000000000036
210
0
220
0
230
-1
0
LWPOLYLINE
5
114
100
AcDbEntity
8
INTERIOR_PROFILES
100
AcDbPolyline
90
8
70
1
43
0.0
10
0.050000000000002487
20
1.9999999999999969
10
-0.45000000000000551
20
1.9999999999999973
10
-0.45000000000000462
20
3.2499999999999973
10
0.050000000000004263
20
3.2499999999999969
10
0.05000000000000604
20
3.0249999999999972
10
-0.32499999999999396
20
3.0249999999999977
10
-0.32499999999999751
20
2.224999999999997
10
0.050000000000002487
20
2.2249999999999965
0
LWPOLYLINE
5
115
100
AcDbEntity
8
INTERIOR_PROFILES
100
AcDbPolyline
90
8
70
1
43
0.0
10
5.525000000000003
20
8.9749999999999979
10
3.8750000000000031
20
8.9749999999999979
10
3.8750000000000031
20
8.5999999999999979
10
3.6500000000000035
20
8.5999999999999979
10
3.6500000000000039
20
9.149999999999995
10
5.7500000000000027
20
9.149999999999995
10
5.7500000000000036
20
8.5999999999999979
10
5.525000000000003
20
8.5999999999999979
0
CIRCLE
5
116
100
AcDbEntity
8
INTERIOR_PROFILES
100
AcDbCircle
10
-9.9000000000000021
20
4.8499999999999979
30
0
40
0.15000000000000036
210
0
220
0
230
-1
0
CIRCLE
5
117
100
AcDbEntity
8
INTERIOR_PROFILES
100
AcDbCircle
10
-0.50000000000000533
20
4.849999999999997
30
0
40
0.15000000000000013
210
0
220
0
230
1
0
CIRCLE
5
118
100
AcDbEntity
8
INTERIOR_PROFILES
100
AcDbCircle
10
2.5000000000000027
20
0.49999999999999911
30
0
40
0.14999999999999991
210
0
220
0
230
1
0
CIRCLE
5
119
100
AcDbEntity
8
INTERIOR_PROFILES
100
AcDbCircle
10
-6.900000000000003
20
0.49999999999999911
30
0
40
0.14999999999999947
210
0
220
0
230
-1
0
CIRCLE
5
120
100
AcDbEntity
8
INTERIOR_PROFILES
100
AcDbCircle
10
-6.900000000000003
20
9.1999999999999957
30
0
40
0.14999999999999947
210
0
220
0
230
-1
0
CIRCLE
5
121
100
AcDbEntity
8
INTERIOR_PROFILES
100
AcDbCircle
10
2.5000000000000027
20
9.1999999999999957
30
0
40
0.14999999999999991
210
0
220
0
230
1
0
LINE
5
122
100
AcDbEntity
8
BEND
100
AcDbLine
10
7.200000002980234
20
3.4499998822808653
30
4.4459339678145995e-13
11
6.5000000029802356
21
3.4499998822808653
31
4.44570345853024e-13
0
LINE
5
123
100
AcDbEntity
8
BEND
100
AcDbLine
10
9.5130973355292348
20
8.6999999999999957
30
1.5902041851509311e-12
11
9.5130973355292348
21
0.99999999999999645
31
1.8123798304026945e-13
0
LINE
5
124
100
AcDbEntity
8
BEND
100
AcDbLine
10
-0.1130973355292344
20
0.99999999999999645
30
1.7741212699795391e-13
11
-0.1130973355292344
21
8.6999999999999975
31
1.584318813504834e-12
0
LINE
5
125
100
AcDbEntity
8
BEND
100
AcDbLine
10
9.4000000000000039
20
0.88690266447076471
30
1.5768149632314673e-13
11
3.5527136788005009e-15
21
0.88690266447076471
31
1.5710965542278968e-13
0
LINE
5
126
100
AcDbEntity
8
BEND
100
AcDbLine
10
4.4408920985006262e-15
20
8.8130973355292301
30
1.6090680584167994e-12
11
9.4000000000000021
21
8.8130973355292301
31
1.6113273518436653e-12
0
LINE
5
127
100
AcDbEntity
8
BEND
100
AcDbLine
10
7.2000000029802358
20
2.4853427996337172
30
4.4375614294267674e-13
11
6.5000000029802347
21
2.4853427996337167
31
4.4408920985006413e-13
0
LINE
5
128
100
AcDbEntity
8
BEND_EXTENT
100
AcDbLine
10
6.5000000029802356
20
3.4853427996337256
30
4.4586556668946438e-13
11
7.200000002980234
21
3.4853427996337256
31
4.4586556668946453e-13
0
LINE
5
129
100
AcDbEntity
8
BEND_EXTENT
100
AcDbLine
10
6.5000000029802356
20
3.4146569649279552
30
4.4408920985006413e-13
11
7.200000002980234
21
3.4146569649279552
31
4.4408920985006428e-13
0
LINE
5
130
100
AcDbEntity
8
BEND_EXTENT
100
AcDbLine
10
7.2000000029802349
20
2.4499998822808253
30
4.4408920985006428e-13
11
6.5000000029802347
21
2.4499998822808244
31
4.4408920985006413e-13
0
LINE
5
131
100
AcDbEntity
8
BEND_EXTENT
100
AcDbLine
10
7.2000000029802349
20
2.5206857169866099
30
4.4408920985006428e-13
11
6.5000000029802347
21
2.520685716986609
31
4.4408920985006413e-13
0
LINE
5
132
100
AcDbEntity
8
BEND_EXTENT
100
AcDbLine
10
9.6261946710584692
20
8.6999999999999975
30
1.5902695826852686e-12
11
9.6261946710584692
21
7.6999999999999975
31
1.4068607390171928e-12
0
LINE
5
133
100
AcDbEntity
8
BEND_EXTENT
100
AcDbLine
10
9.6261946710584692
20
6.4499999999999975
30
1.1776135622199058e-12
11
9.6261946710584692
21
3.2499999999999973
31
5.9070803803962457e-13
0
LINE
5
134
100
AcDbEntity
8
BEND_EXTENT
100
AcDbLine
10
9.6261946710584692
20
1.9999999999999973
30
3.6144698345452975e-13
11
9.6261946710584692
21
0.99999999999999734
31
1.7803813978645389e-13
0
LINE
5
135
100
AcDbEntity
8
BEND_EXTENT
100
AcDbLine
10
9.4000000000000039
20
8.6999999999999975
30
1.5898393712632264e-12
11
9.4000000000000039
21
7.6999999999999975
31
1.4068746168050006e-12
0
LINE
5
136
100
AcDbEntity
8
BEND_EXTENT
100
AcDbLine
10
5.7500000000000036
20
8.6999999999999975
30
1.5898393712632254e-12
11
9.4000000000000039
21
8.6999999999999975
31
1.5898393712632264e-12
0
LINE
5
137
100
AcDbEntity
8
BEND_EXTENT
100
AcDbLine
10
9.4000000000000039
20
1.9999999999999971
30
3.6148861681795314e-13
11
9.4000000000000039
21
1.0499999999999972
31
1.8740564655672859e-13
0
LINE
5
138
100
AcDbEntity
8
BEND_EXTENT
100
AcDbLine
10
5.3290705182007514e-15
20
8.6999999999999957
30
1.5898393712632242e-12
11
3.6500000000000035
21
8.6999999999999975
31
1.589839371263225e-12
0
LINE
5
139
100
AcDbEntity
8
BEND_EXTENT
100
AcDbLine
10
1.7763568394002505e-15
20
7.6999999999999966
30
1.4068746168049984e-12
11
5.3290705182007514e-15
21
8.6499999999999968
31
1.5800694086465228e-12
0
LINE
5
140
100
AcDbEntity
8
BEND_EXTENT
100
AcDbLine
10
3.5527136788005009e-15
20
3.2499999999999969
30
5.8975047068088315e-13
11
3.5527136788005009e-15
21
6.4499999999999975
31
1.1777245845223661e-12
0
LINE
5
141
100
AcDbEntity
8
BEND_EXTENT
100
AcDbLine
10
3.5527136788005009e-15
20
0.99999999999999689
30
1.7763568394002505e-13
11
1.7763568394002505e-15
21
1.9999999999999969
31
3.6148861681795097e-13
0
LINE
5
142
100
AcDbEntity
8
BEND_EXTENT
100
AcDbLine
10
3.6500000000000035
20
0.99999999999999689
30
1.776356839400259e-13
11
3.5527136788005009e-15
21
0.99999999999999689
31
1.7763568394002505e-13
0
LINE
5
143
100
AcDbEntity
8
BEND_EXTENT
100
AcDbLine
10
9.4000000000000039
20
0.99999999999999734
30
1.7763568394002722e-13
11
5.7500000000000036
21
0.99999999999999689
31
1.7763568394002636e-13
0
LINE
5
144
100
AcDbEntity
8
BEND_EXTENT
100
AcDbLine
10
9.4000000000000039
20
6.4499999999999975
30
1.1777245845223683e-12
11
9.4000000000000039
21
3.2499999999999973
31
5.906386491005855e-13
0
LINE
5
145
100
AcDbEntity
8
BEND_EXTENT
100
AcDbLine
10
3.650000000000003
20
0.77380532894153387
30
1.3855583347322039e-13
11
3.5527136788005009e-15
21
0.77380532894153387
31
1.383337888682945e-13
0
LINE
5
146
100
AcDbEntity
8
BEND_EXTENT
100
AcDbLine
10
9.4000000000000021
20
0.77380532894153298
30
1.3877787807814674e-13
11
5.7500000000000036
21
0.77380532894153387
31
1.3855583347322085e-13
0
LINE
5
147
100
AcDbEntity
8
BEND_EXTENT
100
AcDbLine
10
-0.22619467105847146
20
0.99999999999999734
30
1.7941204077942525e-13
11
-0.22619467105847146
21
1.9999999999999971
31
3.6237679523765104e-13
0
LINE
5
148
100
AcDbEntity
8
BEND_EXTENT
100
AcDbLine
10
-0.22619467105847058
20
3.2499999999999973
30
5.8975047068088315e-13
11
-0.22619467105847146
21
6.4499999999999975
31
1.1759482276829658e-12
0
LINE
5
149
100
AcDbEntity
8
BEND_EXTENT
100
AcDbLine
10
-0.22619467105847058
20
7.6999999999999975
30
1.4068746168049984e-12
11
-0.22619467105847058
21
8.6999999999999975
31
1.5898393712632242e-12
0
LINE
5
150
100
AcDbEntity
8
BEND_EXTENT
100
AcDbLine
10
5.7500000000000036
20
8.926194671058461
30
1.6324719354088314e-12
11
9.4000000000000021
21
8.926194671058461
31
1.6324719354088324e-12
0
LINE
5
151
100
AcDbEntity
8
BEND_EXTENT
100
AcDbLine
10
3.5527136788005009e-15
20
8.926194671058461
30
1.6333601138285303e-12
11
3.650000000000003
21
8.926194671058461
31
1.632471935408831e-12
0
ENDSEC
0
SECTION
2
OBJECTS
0
DICTIONARY
5
C
100
AcDbDictionary
3
ACAD_GROUP
350
D
3
ACAD_MLINESTYLE
350
17
0
DICTIONARY
5
D
100
AcDbDictionary
0
DICTIONARY
5
1A
330
C
100
AcDbDictionary
0
DICTIONARY
5
17
100
AcDbDictionary
0
ENDSEC
0
EOF
