G04 Layer: TopLayer*
G04 EasyEDA v6.4.19.4, 2021-09-27T21:18:42+08:00*
G04 328f29077b91436ca96412054b8b6626,119f753a6ce64b8d841f2ad33262ab0c,10*
G04 Gerber Generator version 0.2*
G04 Scale: 100 percent, Rotated: No, Reflected: No *
G04 Dimensions in millimeters *
G04 leading zeros omitted , absolute positions ,4 integer and 5 decimal *
%FSLAX45Y45*%
%MOMM*%

%ADD10C,0.2560*%
%ADD12C,2.0000*%
%ADD13C,1.0000*%
%ADD14C,1.5000*%
%ADD15C,3.0000*%
%ADD16C,5.0000*%
%ADD17C,2.8000*%
%ADD19C,4.0000*%
%ADD20C,1.6000*%
%ADD21C,6.0000*%

%LPD*%
G36*
X914552Y5891479D02*
G01*
X911504Y5891936D01*
X908761Y5893257D01*
X906526Y5895340D01*
X899312Y5904534D01*
X885850Y5918657D01*
X871067Y5931458D01*
X855167Y5942787D01*
X838250Y5952540D01*
X820470Y5960668D01*
X814781Y5962650D01*
X811225Y5964783D01*
X808786Y5968187D01*
X807923Y5972251D01*
X808786Y5976315D01*
X811225Y5979718D01*
X814781Y5981852D01*
X820470Y5983833D01*
X838250Y5991961D01*
X855167Y6001715D01*
X871067Y6013043D01*
X885850Y6025845D01*
X899312Y6039967D01*
X911402Y6055309D01*
X921969Y6071768D01*
X924560Y6076848D01*
X926846Y6079744D01*
X929995Y6081674D01*
X933602Y6082334D01*
X952347Y6082334D01*
X959713Y6082588D01*
X966927Y6083249D01*
X974090Y6084417D01*
X981151Y6085992D01*
X988110Y6087973D01*
X994918Y6090462D01*
X1001572Y6093307D01*
X1008024Y6096609D01*
X1014272Y6100318D01*
X1020216Y6104382D01*
X1025906Y6108750D01*
X1034186Y6116269D01*
X1125321Y6207506D01*
X1132586Y6215989D01*
X1134567Y6218631D01*
X1142339Y6230823D01*
X1147216Y6240881D01*
X1148486Y6243929D01*
X1152093Y6254496D01*
X1153007Y6257696D01*
X1155242Y6268618D01*
X1155700Y6271920D01*
X1156614Y6283045D01*
X1156665Y6286347D01*
X1156106Y6297523D01*
X1155750Y6300774D01*
X1153820Y6311798D01*
X1153058Y6314998D01*
X1148638Y6328765D01*
X1144016Y6338976D01*
X1142492Y6341872D01*
X1136650Y6351422D01*
X1134719Y6354114D01*
X1127760Y6362852D01*
X1125524Y6365290D01*
X1117498Y6373063D01*
X1115009Y6375196D01*
X1106068Y6381902D01*
X1103274Y6383731D01*
X1093571Y6389268D01*
X1090625Y6390690D01*
X1080312Y6395008D01*
X1077163Y6396075D01*
X1066393Y6399022D01*
X1063142Y6399682D01*
X1052068Y6401257D01*
X1048816Y6401511D01*
X1037640Y6401663D01*
X1034338Y6401511D01*
X1023213Y6400292D01*
X1019962Y6399733D01*
X1009091Y6397142D01*
X1005941Y6396177D01*
X995476Y6392214D01*
X992479Y6390843D01*
X982573Y6385610D01*
X979779Y6383883D01*
X970635Y6377482D01*
X968044Y6375400D01*
X959713Y6367830D01*
X907745Y6315811D01*
X904443Y6313627D01*
X899769Y6312865D01*
X895756Y6313678D01*
X892403Y6316014D01*
X885850Y6322923D01*
X871067Y6335674D01*
X855167Y6347002D01*
X838250Y6356807D01*
X820470Y6364884D01*
X814781Y6366865D01*
X811225Y6368999D01*
X808786Y6372402D01*
X807923Y6376466D01*
X808786Y6380581D01*
X811225Y6383934D01*
X814781Y6386068D01*
X820470Y6388049D01*
X838250Y6396177D01*
X855167Y6405930D01*
X871067Y6417259D01*
X885850Y6430060D01*
X899312Y6444183D01*
X911301Y6459474D01*
X913536Y6461556D01*
X916279Y6462877D01*
X919327Y6463334D01*
X952347Y6463334D01*
X959713Y6463588D01*
X966927Y6464249D01*
X974090Y6465417D01*
X981151Y6466992D01*
X988110Y6468973D01*
X994918Y6471462D01*
X1001572Y6474307D01*
X1008024Y6477609D01*
X1014272Y6481318D01*
X1020216Y6485382D01*
X1025906Y6489750D01*
X1034186Y6497269D01*
X1125321Y6588506D01*
X1132586Y6596989D01*
X1134567Y6599631D01*
X1142339Y6611823D01*
X1147216Y6621881D01*
X1148486Y6624929D01*
X1152093Y6635496D01*
X1153007Y6638696D01*
X1155242Y6649618D01*
X1155700Y6652920D01*
X1156614Y6664045D01*
X1156665Y6667347D01*
X1156106Y6678523D01*
X1155750Y6681774D01*
X1153820Y6692798D01*
X1153058Y6695998D01*
X1148638Y6709765D01*
X1144016Y6719976D01*
X1142492Y6722872D01*
X1136650Y6732422D01*
X1134719Y6735114D01*
X1127760Y6743852D01*
X1125524Y6746290D01*
X1117498Y6754063D01*
X1115009Y6756196D01*
X1106068Y6762902D01*
X1103274Y6764731D01*
X1093571Y6770268D01*
X1090625Y6771690D01*
X1080312Y6776008D01*
X1077163Y6777075D01*
X1066393Y6780022D01*
X1063142Y6780682D01*
X1052068Y6782257D01*
X1048816Y6782511D01*
X1037640Y6782663D01*
X1034338Y6782511D01*
X1023213Y6781292D01*
X1019962Y6780733D01*
X1009091Y6778142D01*
X1005941Y6777177D01*
X995476Y6773214D01*
X992479Y6771843D01*
X982573Y6766610D01*
X979779Y6764883D01*
X970635Y6758482D01*
X968044Y6756400D01*
X959713Y6748830D01*
X918260Y6707327D01*
X914653Y6704990D01*
X910437Y6704380D01*
X906322Y6705498D01*
X903071Y6708241D01*
X899312Y6713016D01*
X885850Y6727139D01*
X871067Y6739940D01*
X855167Y6751269D01*
X838250Y6761022D01*
X820470Y6769150D01*
X802030Y6775551D01*
X783031Y6780123D01*
X763727Y6782917D01*
X743966Y6783831D01*
X424434Y6783831D01*
X404672Y6782917D01*
X394716Y6781495D01*
X392734Y6781393D01*
X380695Y6782053D01*
X305155Y6782053D01*
X289661Y6782917D01*
X275234Y6785254D01*
X261162Y6789115D01*
X247548Y6794398D01*
X234543Y6801103D01*
X222300Y6809079D01*
X210972Y6818325D01*
X200710Y6828688D01*
X191566Y6840067D01*
X183642Y6852361D01*
X177038Y6865416D01*
X171856Y6879081D01*
X168148Y6893204D01*
X165912Y6907631D01*
X165150Y6922617D01*
X165150Y6996074D01*
X165354Y6998512D01*
X165354Y7212939D01*
X165760Y7224318D01*
X166827Y7228484D01*
X169519Y7231837D01*
X173329Y7233767D01*
X177596Y7233970D01*
X181610Y7232396D01*
X184556Y7229297D01*
X185978Y7225233D01*
X188569Y7205167D01*
X193294Y7183170D01*
X199898Y7161631D01*
X208279Y7140752D01*
X218440Y7120636D01*
X230225Y7101484D01*
X243636Y7083348D01*
X258521Y7066483D01*
X274777Y7050887D01*
X292303Y7036765D01*
X310946Y7024116D01*
X330606Y7013143D01*
X351078Y7003897D01*
X372313Y6996379D01*
X394106Y6990689D01*
X416306Y6986930D01*
X438759Y6985000D01*
X461264Y6985000D01*
X483717Y6986930D01*
X505866Y6990689D01*
X527659Y6996379D01*
X548894Y7003897D01*
X569417Y7013143D01*
X589076Y7024116D01*
X607720Y7036765D01*
X625246Y7050887D01*
X641502Y7066483D01*
X656386Y7083348D01*
X669747Y7101484D01*
X681583Y7120636D01*
X691692Y7140752D01*
X700074Y7161631D01*
X706678Y7183170D01*
X711454Y7205167D01*
X714298Y7227519D01*
X715264Y7250023D01*
X714298Y7272477D01*
X711454Y7294829D01*
X706678Y7316825D01*
X700074Y7338364D01*
X691692Y7359243D01*
X681583Y7379360D01*
X669747Y7398512D01*
X656386Y7416647D01*
X641502Y7433513D01*
X625246Y7449108D01*
X607720Y7463231D01*
X589076Y7475880D01*
X569417Y7486853D01*
X548894Y7496098D01*
X527659Y7503617D01*
X505866Y7509306D01*
X483717Y7513116D01*
X461264Y7514996D01*
X438759Y7514996D01*
X417423Y7513167D01*
X413207Y7513726D01*
X409549Y7515961D01*
X407162Y7519517D01*
X406400Y7523683D01*
X407466Y7527848D01*
X410159Y7531201D01*
X413918Y7533131D01*
X422249Y7535316D01*
X446481Y7539888D01*
X471017Y7542631D01*
X495960Y7543546D01*
X2161794Y7543546D01*
X2165705Y7542784D01*
X2169007Y7540548D01*
X2171242Y7537196D01*
X2171954Y7533284D01*
X2171141Y7529372D01*
X2168855Y7526070D01*
X1825802Y7183069D01*
X1822145Y7180732D01*
X1817878Y7180122D01*
X1813763Y7181342D01*
X1810461Y7184186D01*
X1808683Y7188098D01*
X1808683Y7192416D01*
X1811426Y7205167D01*
X1814271Y7227519D01*
X1815236Y7250023D01*
X1814271Y7272477D01*
X1811426Y7294829D01*
X1806702Y7316825D01*
X1800098Y7338364D01*
X1791716Y7359243D01*
X1781556Y7379360D01*
X1769770Y7398512D01*
X1756359Y7416647D01*
X1741474Y7433513D01*
X1725218Y7449108D01*
X1707743Y7463231D01*
X1689049Y7475880D01*
X1669440Y7486853D01*
X1648917Y7496098D01*
X1627682Y7503617D01*
X1605889Y7509306D01*
X1583690Y7513116D01*
X1561236Y7514996D01*
X1538732Y7514996D01*
X1516329Y7513116D01*
X1494129Y7509306D01*
X1472336Y7503617D01*
X1451102Y7496098D01*
X1430578Y7486853D01*
X1410919Y7475880D01*
X1392275Y7463231D01*
X1374749Y7449108D01*
X1358493Y7433513D01*
X1343609Y7416647D01*
X1330248Y7398512D01*
X1318463Y7379360D01*
X1308303Y7359243D01*
X1299921Y7338364D01*
X1293317Y7316825D01*
X1288592Y7294829D01*
X1285697Y7272477D01*
X1284782Y7250023D01*
X1285697Y7227519D01*
X1288592Y7205167D01*
X1293317Y7183170D01*
X1299921Y7161631D01*
X1308303Y7140752D01*
X1318463Y7120636D01*
X1330248Y7101484D01*
X1343609Y7083348D01*
X1358493Y7066483D01*
X1374749Y7050887D01*
X1392275Y7036765D01*
X1410919Y7024116D01*
X1430578Y7013143D01*
X1451102Y7003897D01*
X1472336Y6996379D01*
X1494129Y6990689D01*
X1516329Y6986930D01*
X1538732Y6985000D01*
X1561236Y6985000D01*
X1583690Y6986930D01*
X1605889Y6990689D01*
X1611325Y6991146D01*
X1615338Y6989470D01*
X1618284Y6986219D01*
X1619605Y6982002D01*
X1619046Y6977684D01*
X1616659Y6973976D01*
X1466545Y6823811D01*
X1463243Y6821627D01*
X1459331Y6820865D01*
X1422552Y6820865D01*
X1415186Y6820611D01*
X1407972Y6819950D01*
X1400810Y6818782D01*
X1393748Y6817207D01*
X1386789Y6815226D01*
X1379982Y6812737D01*
X1373327Y6809892D01*
X1366875Y6806590D01*
X1360627Y6802881D01*
X1354683Y6798818D01*
X1348943Y6794398D01*
X1343507Y6789623D01*
X1338376Y6784492D01*
X1333601Y6779056D01*
X1329182Y6773316D01*
X1325118Y6767372D01*
X1321409Y6761124D01*
X1318107Y6754672D01*
X1315262Y6748018D01*
X1312773Y6741210D01*
X1310792Y6734251D01*
X1309217Y6727190D01*
X1308049Y6720027D01*
X1307388Y6712813D01*
X1307134Y6705600D01*
X1307388Y6698386D01*
X1308049Y6691172D01*
X1309217Y6684009D01*
X1310792Y6676948D01*
X1312773Y6669989D01*
X1315262Y6663181D01*
X1318107Y6656527D01*
X1321409Y6650075D01*
X1325118Y6643827D01*
X1329182Y6637883D01*
X1333601Y6632143D01*
X1338376Y6626707D01*
X1343507Y6621576D01*
X1348943Y6616801D01*
X1354683Y6612381D01*
X1360627Y6608318D01*
X1366875Y6604609D01*
X1373327Y6601307D01*
X1379982Y6598462D01*
X1386789Y6595973D01*
X1393748Y6593992D01*
X1400810Y6592417D01*
X1407972Y6591249D01*
X1415186Y6590588D01*
X1422552Y6590334D01*
X1493418Y6590334D01*
X1497330Y6589572D01*
X1500581Y6587388D01*
X1502816Y6584086D01*
X1503578Y6580174D01*
X1502816Y6576314D01*
X1500581Y6573012D01*
X1369161Y6441541D01*
X1363116Y6435191D01*
X1357477Y6428587D01*
X1352194Y6421729D01*
X1347317Y6414617D01*
X1342796Y6407200D01*
X1338681Y6399631D01*
X1334922Y6391808D01*
X1331620Y6383832D01*
X1328724Y6375654D01*
X1326286Y6367373D01*
X1324254Y6358940D01*
X1322679Y6350457D01*
X1321562Y6341872D01*
X1320901Y6333236D01*
X1320647Y6324447D01*
X1320647Y6004204D01*
X1319885Y6000292D01*
X1317701Y5997041D01*
X1314450Y5994806D01*
X1310589Y5994044D01*
X1306728Y5994755D01*
X1303426Y5996889D01*
X1295298Y6004763D01*
X1292809Y6006896D01*
X1283868Y6013602D01*
X1281074Y6015431D01*
X1271371Y6020968D01*
X1268425Y6022390D01*
X1258112Y6026708D01*
X1254963Y6027775D01*
X1244193Y6030722D01*
X1240942Y6031382D01*
X1229868Y6032957D01*
X1226616Y6033211D01*
X1215440Y6033363D01*
X1212138Y6033211D01*
X1201013Y6031992D01*
X1197762Y6031433D01*
X1186891Y6028842D01*
X1183741Y6027877D01*
X1173276Y6023914D01*
X1170279Y6022543D01*
X1160373Y6017310D01*
X1157579Y6015583D01*
X1148435Y6009182D01*
X1145844Y6007100D01*
X1137513Y5999530D01*
X1032459Y5894425D01*
X1029157Y5892241D01*
X1025245Y5891479D01*
G37*

%LPD*%
G36*
X2839923Y5436565D02*
G01*
X2836011Y5437327D01*
X2832709Y5439511D01*
X2830525Y5442813D01*
X2829763Y5446725D01*
X2829763Y5540654D01*
X2780538Y5540654D01*
X2776626Y5541416D01*
X2773324Y5543600D01*
X2771140Y5546902D01*
X2770378Y5550814D01*
X2770378Y5713171D01*
X2771140Y5717082D01*
X2773324Y5720384D01*
X2776626Y5722569D01*
X2780538Y5723331D01*
X2829763Y5723331D01*
X2829763Y5960668D01*
X2780538Y5960668D01*
X2776626Y5961430D01*
X2773324Y5963615D01*
X2771140Y5966917D01*
X2770378Y5970828D01*
X2770378Y6128258D01*
X2771140Y6132169D01*
X2773324Y6135471D01*
X2778252Y6140399D01*
X2781554Y6142583D01*
X2785465Y6143345D01*
X2834284Y6143345D01*
X2836976Y6144615D01*
X2839923Y6145022D01*
X2932277Y6145022D01*
X2935224Y6144615D01*
X2937916Y6143345D01*
X3055213Y6143345D01*
X3057906Y6144615D01*
X3060852Y6145022D01*
X3131362Y6145022D01*
X3135376Y6144209D01*
X3138728Y6141872D01*
X3140913Y6138418D01*
X3141522Y6134354D01*
X3140862Y6121755D01*
X3140862Y5982258D01*
X3141776Y5964732D01*
X3144469Y5947664D01*
X3148939Y5930950D01*
X3155137Y5914796D01*
X3163011Y5899404D01*
X3172409Y5884875D01*
X3183280Y5871464D01*
X3195523Y5859221D01*
X3207054Y5849874D01*
X3209798Y5846368D01*
X3210814Y5842000D01*
X3209798Y5837631D01*
X3207054Y5834126D01*
X3195523Y5824778D01*
X3183280Y5812536D01*
X3172409Y5799124D01*
X3163011Y5784596D01*
X3155137Y5769203D01*
X3148939Y5753049D01*
X3144469Y5736336D01*
X3141776Y5719267D01*
X3140862Y5701741D01*
X3140862Y5562244D01*
X3141776Y5544718D01*
X3141116Y5540552D01*
X3138779Y5536996D01*
X3041345Y5439511D01*
X3038043Y5437327D01*
X3034131Y5436565D01*
X3018180Y5436565D01*
X3014421Y5437276D01*
X3011220Y5439257D01*
X3008985Y5442356D01*
X3008020Y5446014D01*
X3008477Y5449773D01*
X3010255Y5453126D01*
X3019806Y5464860D01*
X3029204Y5479389D01*
X3037078Y5494782D01*
X3043275Y5510936D01*
X3047746Y5527649D01*
X3049778Y5540654D01*
X2942437Y5540654D01*
X2942437Y5446725D01*
X2941675Y5442813D01*
X2939491Y5439511D01*
X2936189Y5437327D01*
X2932277Y5436565D01*
G37*

%LPC*%
G36*
X2942437Y5723331D02*
G01*
X3049778Y5723331D01*
X3047746Y5736336D01*
X3043275Y5753049D01*
X3037078Y5769203D01*
X3029204Y5784596D01*
X3019806Y5799124D01*
X3008884Y5812536D01*
X2996692Y5824778D01*
X2985160Y5834126D01*
X2982417Y5837631D01*
X2981401Y5842000D01*
X2982417Y5846368D01*
X2985160Y5849874D01*
X2996692Y5859221D01*
X3008884Y5871464D01*
X3019806Y5884875D01*
X3029204Y5899404D01*
X3037078Y5914796D01*
X3043275Y5930950D01*
X3047746Y5947664D01*
X3049778Y5960668D01*
X2942437Y5960668D01*
G37*

%LPD*%
G36*
X8525916Y4673600D02*
G01*
X8522004Y4674362D01*
X8518702Y4676597D01*
X8054797Y5140502D01*
X8052562Y5143804D01*
X8051800Y5147716D01*
X8051800Y5599684D01*
X8051088Y5601411D01*
X7442911Y6209588D01*
X7441184Y6210300D01*
X6811060Y6210300D01*
X6807758Y6210858D01*
X6804812Y6212433D01*
X6802526Y6214922D01*
X6799783Y6219139D01*
X6788912Y6232550D01*
X6776669Y6244793D01*
X6763258Y6255664D01*
X6748729Y6265113D01*
X6733336Y6272936D01*
X6717182Y6279134D01*
X6700469Y6283655D01*
X6683400Y6286347D01*
X6666128Y6287262D01*
X6648856Y6286347D01*
X6631736Y6283655D01*
X6615074Y6279134D01*
X6598920Y6272936D01*
X6583476Y6265113D01*
X6568998Y6255664D01*
X6555536Y6244793D01*
X6543294Y6232550D01*
X6532422Y6219139D01*
X6529679Y6214922D01*
X6527444Y6212433D01*
X6524498Y6210858D01*
X6521196Y6210300D01*
X6391046Y6210300D01*
X6387744Y6210858D01*
X6384798Y6212433D01*
X6382512Y6214922D01*
X6379768Y6219139D01*
X6368897Y6232550D01*
X6356654Y6244793D01*
X6343243Y6255664D01*
X6328714Y6265113D01*
X6313322Y6272936D01*
X6297168Y6279134D01*
X6280454Y6283655D01*
X6262166Y6286550D01*
X6258610Y6287414D01*
X6247993Y6288227D01*
X5410606Y6288227D01*
X5399989Y6287414D01*
X5396433Y6286754D01*
X5388813Y6286347D01*
X5371744Y6283655D01*
X5355031Y6279134D01*
X5338876Y6272936D01*
X5323484Y6265113D01*
X5308955Y6255664D01*
X5295544Y6244793D01*
X5283301Y6232550D01*
X5272430Y6219139D01*
X5269687Y6214922D01*
X5267401Y6212433D01*
X5264454Y6210858D01*
X5261152Y6210300D01*
X5131054Y6210300D01*
X5127752Y6210858D01*
X5124805Y6212433D01*
X5122519Y6214922D01*
X5119776Y6219139D01*
X5108905Y6232550D01*
X5096662Y6244793D01*
X5083251Y6255664D01*
X5068722Y6265113D01*
X5053330Y6272936D01*
X5037175Y6279134D01*
X5020462Y6283655D01*
X5003393Y6286347D01*
X4986121Y6287262D01*
X4968849Y6286347D01*
X4951730Y6283655D01*
X4935067Y6279134D01*
X4918913Y6272936D01*
X4904384Y6265570D01*
X4900676Y6264503D01*
X4896815Y6264910D01*
X4893411Y6266738D01*
X4890871Y6269736D01*
X4889703Y6273444D01*
X4889042Y6279083D01*
X4886807Y6289903D01*
X4885893Y6293104D01*
X4882286Y6303670D01*
X4881016Y6306718D01*
X4876139Y6316776D01*
X4868367Y6328968D01*
X4866386Y6331610D01*
X4859121Y6340094D01*
X4701794Y6497421D01*
X4693310Y6504685D01*
X4690668Y6506667D01*
X4678476Y6514439D01*
X4668418Y6519316D01*
X4665370Y6520586D01*
X4654804Y6524193D01*
X4651603Y6525107D01*
X4640681Y6527342D01*
X4637379Y6527800D01*
X4626254Y6528714D01*
X3683152Y6528765D01*
X3675786Y6528511D01*
X3668572Y6527850D01*
X3661410Y6526682D01*
X3654348Y6525107D01*
X3647389Y6523126D01*
X3640582Y6520637D01*
X3633927Y6517792D01*
X3627475Y6514490D01*
X3621227Y6510781D01*
X3615283Y6506718D01*
X3609543Y6502298D01*
X3604107Y6497523D01*
X3598976Y6492392D01*
X3594201Y6486956D01*
X3589782Y6481216D01*
X3585718Y6475272D01*
X3582009Y6469024D01*
X3578707Y6462572D01*
X3575862Y6455918D01*
X3573373Y6449110D01*
X3571392Y6442151D01*
X3569817Y6435090D01*
X3568649Y6427927D01*
X3567988Y6420713D01*
X3567734Y6413500D01*
X3567988Y6406286D01*
X3568649Y6399072D01*
X3569817Y6391910D01*
X3571392Y6384848D01*
X3573373Y6377889D01*
X3575862Y6371082D01*
X3577539Y6367119D01*
X3578402Y6363258D01*
X3577691Y6359347D01*
X3575507Y6356045D01*
X3572256Y6353759D01*
X3568395Y6352946D01*
X3564483Y6353657D01*
X3553510Y6357975D01*
X3539490Y6361582D01*
X3525113Y6363411D01*
X3510686Y6363411D01*
X3496310Y6361582D01*
X3482289Y6357975D01*
X3468827Y6352641D01*
X3456178Y6345682D01*
X3444443Y6337198D01*
X3433876Y6327292D01*
X3424682Y6316116D01*
X3416909Y6303924D01*
X3410762Y6290818D01*
X3406292Y6277051D01*
X3405174Y6271107D01*
X3403650Y6267450D01*
X3400907Y6264656D01*
X3397250Y6263081D01*
X3393338Y6263030D01*
X3388715Y6265113D01*
X3373323Y6272936D01*
X3357168Y6279134D01*
X3340455Y6283655D01*
X3323386Y6286347D01*
X3306114Y6287262D01*
X3288842Y6286347D01*
X3271723Y6283655D01*
X3255060Y6279134D01*
X3238906Y6272936D01*
X3223463Y6265113D01*
X3208985Y6255664D01*
X3195523Y6244793D01*
X3183280Y6232550D01*
X3172409Y6219139D01*
X3169666Y6214922D01*
X3167430Y6212433D01*
X3164484Y6210858D01*
X3161182Y6210300D01*
X3031032Y6210300D01*
X3027730Y6210858D01*
X3024784Y6212433D01*
X3022498Y6214922D01*
X3019806Y6219139D01*
X3008884Y6232550D01*
X2996692Y6244793D01*
X2983230Y6255664D01*
X2968752Y6265113D01*
X2953308Y6272936D01*
X2937154Y6279134D01*
X2920441Y6283655D01*
X2903372Y6286347D01*
X2886100Y6287262D01*
X2868828Y6286347D01*
X2851759Y6283655D01*
X2835046Y6279134D01*
X2818892Y6272936D01*
X2803499Y6265113D01*
X2788970Y6255664D01*
X2775559Y6244793D01*
X2763316Y6232550D01*
X2752445Y6219139D01*
X2742996Y6204610D01*
X2736240Y6191351D01*
X2734360Y6188760D01*
X2705811Y6160211D01*
X2705100Y6158484D01*
X2705100Y5446725D01*
X2704338Y5442813D01*
X2702102Y5439511D01*
X2698851Y5437327D01*
X2694940Y5436565D01*
X2598166Y5436565D01*
X2594406Y5437276D01*
X2591206Y5439257D01*
X2588971Y5442356D01*
X2588006Y5446014D01*
X2588463Y5449773D01*
X2590241Y5453126D01*
X2599791Y5464860D01*
X2609189Y5479389D01*
X2617063Y5494782D01*
X2623261Y5510936D01*
X2627731Y5527649D01*
X2629763Y5540654D01*
X2522423Y5540654D01*
X2522423Y5446725D01*
X2521661Y5442813D01*
X2519476Y5439511D01*
X2516174Y5437327D01*
X2512263Y5436565D01*
X2419908Y5436565D01*
X2415997Y5437327D01*
X2412695Y5439511D01*
X2410510Y5442813D01*
X2409748Y5446725D01*
X2409748Y5540654D01*
X2302408Y5540654D01*
X2304491Y5527649D01*
X2308961Y5510936D01*
X2315159Y5494782D01*
X2322982Y5479389D01*
X2332431Y5464860D01*
X2341930Y5453126D01*
X2343708Y5449773D01*
X2344166Y5446014D01*
X2343200Y5442356D01*
X2340965Y5439257D01*
X2337765Y5437276D01*
X2334056Y5436565D01*
X2178151Y5436565D01*
X2174443Y5437276D01*
X2171242Y5439257D01*
X2169007Y5442356D01*
X2168042Y5446014D01*
X2168448Y5449773D01*
X2170277Y5453126D01*
X2179777Y5464860D01*
X2189226Y5479389D01*
X2197049Y5494782D01*
X2203246Y5510936D01*
X2207717Y5527649D01*
X2209800Y5540654D01*
X2102459Y5540654D01*
X2102459Y5446725D01*
X2101697Y5442813D01*
X2099462Y5439511D01*
X2096160Y5437327D01*
X2092299Y5436565D01*
X1999894Y5436565D01*
X1996033Y5437327D01*
X1992731Y5439511D01*
X1990547Y5442813D01*
X1989734Y5446725D01*
X1989734Y5540654D01*
X1882393Y5540654D01*
X1884476Y5527649D01*
X1888947Y5510936D01*
X1895144Y5494782D01*
X1896313Y5492546D01*
X1897380Y5488228D01*
X1896567Y5483910D01*
X1894027Y5480354D01*
X1890166Y5478170D01*
X1885746Y5477865D01*
X1881632Y5479440D01*
X1874723Y5484012D01*
X1865020Y5489143D01*
X1862023Y5490514D01*
X1851558Y5494477D01*
X1848408Y5495442D01*
X1837537Y5498033D01*
X1834286Y5498592D01*
X1823161Y5499811D01*
X1819859Y5499963D01*
X1808683Y5499811D01*
X1805432Y5499557D01*
X1794357Y5497982D01*
X1791106Y5497322D01*
X1780336Y5494375D01*
X1777187Y5493308D01*
X1768856Y5489854D01*
X1764995Y5489041D01*
X1761083Y5489854D01*
X1757781Y5492038D01*
X1755597Y5495340D01*
X1754835Y5499201D01*
X1755597Y5503113D01*
X1757781Y5506415D01*
X1823821Y5572506D01*
X1831086Y5580989D01*
X1833067Y5583631D01*
X1840839Y5595823D01*
X1845716Y5605881D01*
X1846986Y5608929D01*
X1850593Y5619496D01*
X1851507Y5622696D01*
X1853742Y5633618D01*
X1854200Y5636920D01*
X1855114Y5648045D01*
X1855165Y6196431D01*
X1855927Y6200343D01*
X1858111Y6203645D01*
X2432354Y6777888D01*
X2435656Y6780072D01*
X2439568Y6780834D01*
X2450947Y6780834D01*
X2458313Y6781088D01*
X2465527Y6781749D01*
X2472690Y6782917D01*
X2479751Y6784492D01*
X2486710Y6786473D01*
X2493518Y6788962D01*
X2500172Y6791807D01*
X2506624Y6795109D01*
X2512872Y6798818D01*
X2518816Y6802881D01*
X2524556Y6807301D01*
X2529992Y6812076D01*
X2535123Y6817207D01*
X2539898Y6822643D01*
X2544318Y6828383D01*
X2548382Y6834327D01*
X2552090Y6840575D01*
X2555392Y6847027D01*
X2558237Y6853681D01*
X2560726Y6860489D01*
X2562707Y6867448D01*
X2564282Y6874509D01*
X2565450Y6881672D01*
X2566111Y6888886D01*
X2566365Y6896100D01*
X2566111Y6903313D01*
X2565450Y6910527D01*
X2564282Y6917690D01*
X2562707Y6924751D01*
X2560726Y6931710D01*
X2558237Y6938518D01*
X2555392Y6945172D01*
X2552090Y6951624D01*
X2548382Y6957872D01*
X2544318Y6963816D01*
X2539898Y6969556D01*
X2535123Y6974992D01*
X2529992Y6980123D01*
X2524556Y6984898D01*
X2518816Y6989318D01*
X2512872Y6993381D01*
X2506624Y6997090D01*
X2500172Y7000392D01*
X2493518Y7003237D01*
X2486710Y7005726D01*
X2479751Y7007707D01*
X2472690Y7009282D01*
X2465527Y7010450D01*
X2458313Y7011111D01*
X2450947Y7011365D01*
X2430881Y7011365D01*
X2426970Y7012127D01*
X2423718Y7014311D01*
X2421483Y7017613D01*
X2420721Y7021525D01*
X2421483Y7025386D01*
X2423718Y7028688D01*
X2440381Y7045350D01*
X2443683Y7047585D01*
X2447544Y7048347D01*
X2653639Y7048347D01*
X2657856Y7047433D01*
X2661310Y7044842D01*
X2663393Y7041032D01*
X2663698Y7036765D01*
X2662174Y7032701D01*
X2659126Y7029653D01*
X2647950Y7022439D01*
X2635097Y7011924D01*
X2623515Y7000036D01*
X2613406Y6986930D01*
X2604820Y6972706D01*
X2597962Y6957618D01*
X2592832Y6941870D01*
X2589530Y6925614D01*
X2588107Y6909104D01*
X2588615Y6892493D01*
X2590952Y6876084D01*
X2595168Y6860082D01*
X2601163Y6844588D01*
X2608935Y6829958D01*
X2618282Y6816242D01*
X2629154Y6803745D01*
X2641346Y6792518D01*
X2654757Y6782765D01*
X2669235Y6774586D01*
X2684475Y6768134D01*
X2700375Y6763461D01*
X2716733Y6760667D01*
X2733294Y6759702D01*
X2749854Y6760667D01*
X2766212Y6763461D01*
X2782112Y6768134D01*
X2797352Y6774586D01*
X2811830Y6782765D01*
X2825242Y6792518D01*
X2837434Y6803745D01*
X2848305Y6816242D01*
X2857652Y6829958D01*
X2865424Y6844588D01*
X2871419Y6860082D01*
X2875635Y6876084D01*
X2877972Y6892493D01*
X2878480Y6909104D01*
X2877058Y6925614D01*
X2873756Y6941870D01*
X2868625Y6957618D01*
X2861767Y6972706D01*
X2853182Y6986930D01*
X2843072Y7000036D01*
X2831490Y7011924D01*
X2818638Y7022439D01*
X2807462Y7029653D01*
X2804414Y7032701D01*
X2802890Y7036765D01*
X2803194Y7041032D01*
X2805277Y7044842D01*
X2808732Y7047433D01*
X2812948Y7048347D01*
X3003651Y7048347D01*
X3007868Y7047433D01*
X3011322Y7044842D01*
X3013405Y7041032D01*
X3013710Y7036765D01*
X3012186Y7032701D01*
X3009138Y7029653D01*
X2997962Y7022439D01*
X2985109Y7011924D01*
X2973527Y7000036D01*
X2963418Y6986930D01*
X2954832Y6972706D01*
X2947974Y6957618D01*
X2945892Y6951268D01*
X3036976Y6951268D01*
X3036976Y7038187D01*
X3037738Y7042099D01*
X3039922Y7045350D01*
X3043224Y7047585D01*
X3047136Y7048347D01*
X3119475Y7048347D01*
X3123387Y7047585D01*
X3126689Y7045350D01*
X3128873Y7042099D01*
X3129635Y7038187D01*
X3129635Y6951268D01*
X3220720Y6951268D01*
X3218637Y6957618D01*
X3211779Y6972706D01*
X3203194Y6986930D01*
X3193084Y7000036D01*
X3181502Y7011924D01*
X3168650Y7022439D01*
X3157474Y7029653D01*
X3154426Y7032701D01*
X3152902Y7036765D01*
X3153206Y7041032D01*
X3155289Y7044842D01*
X3158744Y7047433D01*
X3162960Y7048347D01*
X4908905Y7048347D01*
X4912918Y7047534D01*
X4916271Y7045147D01*
X5032552Y6922008D01*
X5045303Y6909917D01*
X5058968Y6899351D01*
X5073700Y6890258D01*
X5089296Y6882790D01*
X5105603Y6876948D01*
X5122418Y6872884D01*
X5139537Y6870598D01*
X5156809Y6870090D01*
X5174081Y6871411D01*
X5191099Y6874509D01*
X5207660Y6879386D01*
X5223662Y6885990D01*
X5238902Y6894220D01*
X5253177Y6903974D01*
X5266334Y6915150D01*
X5278272Y6927697D01*
X5288838Y6941362D01*
X5297932Y6956094D01*
X5305399Y6971690D01*
X5311241Y6987997D01*
X5315305Y7004812D01*
X5317591Y7021931D01*
X5318099Y7039203D01*
X5316778Y7056475D01*
X5313680Y7073493D01*
X5308803Y7090054D01*
X5302199Y7106056D01*
X5293969Y7121296D01*
X5284216Y7135571D01*
X5272836Y7148931D01*
X5228539Y7195870D01*
X5226405Y7199274D01*
X5225745Y7203186D01*
X5226659Y7207046D01*
X5228996Y7210298D01*
X5232400Y7212380D01*
X5236311Y7212990D01*
X5245303Y7212634D01*
X5511647Y7212634D01*
X5519013Y7212888D01*
X5526227Y7213549D01*
X5533390Y7214717D01*
X5540451Y7216292D01*
X5547410Y7218273D01*
X5554218Y7220762D01*
X5560872Y7223607D01*
X5567324Y7226909D01*
X5573572Y7230618D01*
X5579516Y7234681D01*
X5585256Y7239101D01*
X5590692Y7243876D01*
X5595823Y7249007D01*
X5600598Y7254443D01*
X5605018Y7260183D01*
X5609082Y7266127D01*
X5612790Y7272375D01*
X5616092Y7278827D01*
X5618937Y7285481D01*
X5621426Y7292289D01*
X5623407Y7299248D01*
X5624982Y7306309D01*
X5626150Y7313472D01*
X5626811Y7320686D01*
X5627065Y7327900D01*
X5626811Y7335113D01*
X5626150Y7342327D01*
X5624982Y7349490D01*
X5623407Y7356551D01*
X5621426Y7363510D01*
X5618937Y7370318D01*
X5616092Y7376972D01*
X5612790Y7383424D01*
X5609082Y7389672D01*
X5605018Y7395616D01*
X5600598Y7401356D01*
X5595823Y7406792D01*
X5590692Y7411923D01*
X5585256Y7416698D01*
X5579516Y7421118D01*
X5573572Y7425181D01*
X5567324Y7428890D01*
X5560872Y7432192D01*
X5554218Y7435037D01*
X5547410Y7437526D01*
X5540451Y7439507D01*
X5533390Y7441082D01*
X5526227Y7442250D01*
X5519013Y7442911D01*
X5511647Y7443165D01*
X5297068Y7443165D01*
X5293156Y7443927D01*
X5289854Y7446111D01*
X5209844Y7526070D01*
X5207558Y7529372D01*
X5206746Y7533284D01*
X5207457Y7537196D01*
X5209692Y7540548D01*
X5212994Y7542784D01*
X5216906Y7543546D01*
X7746695Y7543546D01*
X7802930Y7542530D01*
X7858607Y7539532D01*
X7914131Y7534554D01*
X7969453Y7527594D01*
X8024469Y7518704D01*
X8079181Y7507782D01*
X8133435Y7494981D01*
X8187181Y7480198D01*
X8240420Y7463536D01*
X8292998Y7444994D01*
X8344865Y7424572D01*
X8395970Y7402322D01*
X8446262Y7378242D01*
X8495690Y7352385D01*
X8544102Y7324801D01*
X8591550Y7295489D01*
X8637879Y7264501D01*
X8683142Y7231888D01*
X8727135Y7197699D01*
X8769908Y7161936D01*
X8811412Y7124700D01*
X8851493Y7085939D01*
X8890203Y7045807D01*
X8927490Y7004354D01*
X8963202Y6961581D01*
X8997442Y6917537D01*
X9030055Y6872325D01*
X9060992Y6825945D01*
X9090304Y6778498D01*
X9117888Y6730034D01*
X9143695Y6680657D01*
X9167774Y6630365D01*
X9190024Y6579209D01*
X9210446Y6527342D01*
X9228988Y6474764D01*
X9245600Y6421526D01*
X9260382Y6367780D01*
X9273184Y6313525D01*
X9284055Y6258814D01*
X9292945Y6203797D01*
X9293910Y6196330D01*
X9293656Y6192418D01*
X9291929Y6188913D01*
X9288983Y6186322D01*
X9285274Y6185001D01*
X9281363Y6185204D01*
X9277807Y6186881D01*
X9275165Y6189726D01*
X9269780Y6198514D01*
X9256369Y6216650D01*
X9241485Y6233515D01*
X9225229Y6249111D01*
X9207703Y6263233D01*
X9189059Y6275882D01*
X9169400Y6286855D01*
X9148876Y6296101D01*
X9127693Y6303619D01*
X9105900Y6309309D01*
X9083700Y6313119D01*
X9061246Y6314998D01*
X9038742Y6314998D01*
X9016288Y6313119D01*
X8994140Y6309309D01*
X8972346Y6303619D01*
X8951112Y6296101D01*
X8930589Y6286855D01*
X8910929Y6275882D01*
X8892286Y6263233D01*
X8874760Y6249111D01*
X8858504Y6233515D01*
X8843619Y6216650D01*
X8830259Y6198514D01*
X8818422Y6179362D01*
X8808313Y6159246D01*
X8799931Y6138367D01*
X8793327Y6116828D01*
X8788552Y6094831D01*
X8785707Y6072479D01*
X8784742Y6049975D01*
X8785707Y6027521D01*
X8788552Y6005169D01*
X8793327Y5983173D01*
X8799931Y5961634D01*
X8808313Y5940755D01*
X8818422Y5920638D01*
X8830259Y5901486D01*
X8843619Y5883351D01*
X8858504Y5866485D01*
X8874760Y5850890D01*
X8892286Y5836767D01*
X8910929Y5824118D01*
X8930589Y5813145D01*
X8951112Y5803900D01*
X8972346Y5796381D01*
X8994140Y5790692D01*
X9016288Y5786882D01*
X9038742Y5785002D01*
X9061246Y5785002D01*
X9083700Y5786882D01*
X9105900Y5790692D01*
X9127693Y5796381D01*
X9148876Y5803900D01*
X9169400Y5813145D01*
X9189059Y5824118D01*
X9207703Y5836767D01*
X9225229Y5850890D01*
X9241485Y5866485D01*
X9256369Y5883351D01*
X9269780Y5901486D01*
X9281566Y5920638D01*
X9289592Y5936589D01*
X9292488Y5940094D01*
X9296552Y5941974D01*
X9301022Y5941923D01*
X9305086Y5939942D01*
X9307830Y5936437D01*
X9308846Y5932017D01*
X9308846Y4683760D01*
X9308084Y4679848D01*
X9305848Y4676597D01*
X9302597Y4674362D01*
X9298686Y4673600D01*
G37*

%LPC*%
G36*
X8893149Y4806848D02*
G01*
X8917279Y4815078D01*
X8941816Y4825492D01*
X8965539Y4837684D01*
X8988348Y4851603D01*
X9010040Y4867097D01*
X9030512Y4884166D01*
X9049766Y4902708D01*
X9067546Y4922570D01*
X9083852Y4943703D01*
X9098584Y4965954D01*
X9111640Y4989169D01*
X9116618Y4999837D01*
X8893149Y4999837D01*
G37*
G36*
X8893149Y5312562D02*
G01*
X9116618Y5312562D01*
X9111640Y5323230D01*
X9098584Y5346446D01*
X9083852Y5368696D01*
X9067546Y5389829D01*
X9049766Y5409692D01*
X9030512Y5428234D01*
X9010040Y5445302D01*
X8988348Y5460796D01*
X8965539Y5474716D01*
X8941816Y5486908D01*
X8917279Y5497322D01*
X8893149Y5505551D01*
G37*
G36*
X7838744Y6985000D02*
G01*
X7861249Y6985000D01*
X7883702Y6986930D01*
X7905902Y6990689D01*
X7927695Y6996379D01*
X7948879Y7003897D01*
X7969402Y7013143D01*
X7989062Y7024116D01*
X8007705Y7036765D01*
X8025231Y7050887D01*
X8041487Y7066483D01*
X8056372Y7083348D01*
X8069783Y7101484D01*
X8081568Y7120636D01*
X8091678Y7140752D01*
X8100110Y7161631D01*
X8106664Y7183170D01*
X8111439Y7205167D01*
X8114284Y7227519D01*
X8115249Y7250023D01*
X8114284Y7272477D01*
X8111439Y7294829D01*
X8106664Y7316825D01*
X8100110Y7338364D01*
X8091678Y7359243D01*
X8081568Y7379360D01*
X8069783Y7398512D01*
X8056372Y7416647D01*
X8041487Y7433513D01*
X8025231Y7449108D01*
X8007705Y7463231D01*
X7989062Y7475880D01*
X7969402Y7486853D01*
X7948879Y7496098D01*
X7927695Y7503617D01*
X7905902Y7509306D01*
X7883702Y7513116D01*
X7861249Y7514996D01*
X7838744Y7514996D01*
X7816291Y7513116D01*
X7794142Y7509306D01*
X7772349Y7503617D01*
X7751114Y7496098D01*
X7730591Y7486853D01*
X7710931Y7475880D01*
X7692288Y7463231D01*
X7674762Y7449108D01*
X7658506Y7433513D01*
X7643622Y7416647D01*
X7630261Y7398512D01*
X7618425Y7379360D01*
X7608316Y7359243D01*
X7599934Y7338364D01*
X7593330Y7316825D01*
X7588554Y7294829D01*
X7585709Y7272477D01*
X7584744Y7250023D01*
X7585709Y7227519D01*
X7588554Y7205167D01*
X7593330Y7183170D01*
X7599934Y7161631D01*
X7608316Y7140752D01*
X7618425Y7120636D01*
X7630261Y7101484D01*
X7643622Y7083348D01*
X7658506Y7066483D01*
X7674762Y7050887D01*
X7692288Y7036765D01*
X7710931Y7024116D01*
X7730591Y7013143D01*
X7751114Y7003897D01*
X7772349Y6996379D01*
X7794142Y6990689D01*
X7816291Y6986930D01*
G37*
G36*
X8480450Y4806848D02*
G01*
X8480450Y4999837D01*
X8256981Y4999837D01*
X8261959Y4989169D01*
X8275015Y4965954D01*
X8289747Y4943703D01*
X8306053Y4922570D01*
X8323834Y4902708D01*
X8343087Y4884166D01*
X8363559Y4867097D01*
X8385251Y4851603D01*
X8408060Y4837684D01*
X8431784Y4825492D01*
X8456320Y4815078D01*
G37*
G36*
X8256981Y5312562D02*
G01*
X8480450Y5312562D01*
X8480450Y5505551D01*
X8456320Y5497322D01*
X8431784Y5486908D01*
X8408060Y5474716D01*
X8385251Y5460796D01*
X8363559Y5445302D01*
X8343087Y5428234D01*
X8323834Y5409692D01*
X8306053Y5389829D01*
X8289747Y5368696D01*
X8275015Y5346446D01*
X8261959Y5323230D01*
G37*
G36*
X5494680Y6890207D02*
G01*
X5511241Y6890207D01*
X5527751Y6892086D01*
X5543854Y6895846D01*
X5559501Y6901434D01*
X5574385Y6908749D01*
X5588304Y6917740D01*
X5601157Y6928205D01*
X5612739Y6940092D01*
X5622848Y6953250D01*
X5631434Y6967423D01*
X5638292Y6982510D01*
X5643422Y6998309D01*
X5646724Y7014565D01*
X5648147Y7031075D01*
X5647639Y7047636D01*
X5645302Y7064044D01*
X5641086Y7080097D01*
X5635091Y7095540D01*
X5627319Y7110222D01*
X5617972Y7123887D01*
X5607100Y7136434D01*
X5594908Y7147661D01*
X5581497Y7157415D01*
X5567019Y7165543D01*
X5551779Y7171994D01*
X5535879Y7176668D01*
X5519521Y7179513D01*
X5502960Y7180478D01*
X5486400Y7179513D01*
X5470042Y7176668D01*
X5454142Y7171994D01*
X5438902Y7165543D01*
X5424424Y7157415D01*
X5411012Y7147661D01*
X5398820Y7136434D01*
X5387949Y7123887D01*
X5378602Y7110222D01*
X5370830Y7095540D01*
X5364835Y7080097D01*
X5360619Y7064044D01*
X5358282Y7047636D01*
X5357774Y7031075D01*
X5359196Y7014565D01*
X5362498Y6998309D01*
X5367629Y6982510D01*
X5374487Y6967423D01*
X5383072Y6953250D01*
X5393182Y6940092D01*
X5404764Y6928205D01*
X5417616Y6917740D01*
X5431536Y6908749D01*
X5446420Y6901434D01*
X5462066Y6895846D01*
X5478170Y6892086D01*
G37*
G36*
X1882393Y5723331D02*
G01*
X1989734Y5723331D01*
X1989734Y5960668D01*
X1882393Y5960668D01*
X1884476Y5947664D01*
X1888947Y5930950D01*
X1895144Y5914796D01*
X1903018Y5899404D01*
X1912416Y5884875D01*
X1923288Y5871464D01*
X1935530Y5859221D01*
X1947062Y5849874D01*
X1949805Y5846368D01*
X1950821Y5842000D01*
X1949805Y5837631D01*
X1947062Y5834126D01*
X1935530Y5824778D01*
X1923288Y5812536D01*
X1912416Y5799124D01*
X1903018Y5784596D01*
X1895144Y5769203D01*
X1888947Y5753049D01*
X1884476Y5736336D01*
G37*
G36*
X2102459Y5723331D02*
G01*
X2209800Y5723331D01*
X2207717Y5736336D01*
X2203246Y5753049D01*
X2197049Y5769203D01*
X2189226Y5784596D01*
X2179777Y5799124D01*
X2168906Y5812536D01*
X2156663Y5824778D01*
X2145182Y5834126D01*
X2142388Y5837631D01*
X2141423Y5842000D01*
X2142388Y5846368D01*
X2145182Y5849874D01*
X2156663Y5859221D01*
X2168906Y5871464D01*
X2179777Y5884875D01*
X2189226Y5899404D01*
X2197049Y5914796D01*
X2203246Y5930950D01*
X2207717Y5947664D01*
X2209800Y5960668D01*
X2102459Y5960668D01*
G37*
G36*
X2302408Y5723331D02*
G01*
X2409748Y5723331D01*
X2409748Y5813044D01*
X2410409Y5816650D01*
X2412339Y5819851D01*
X2415286Y5822086D01*
X2418842Y5823153D01*
X2422550Y5822848D01*
X2431745Y5820359D01*
X2448814Y5817666D01*
X2466086Y5816752D01*
X2483358Y5817666D01*
X2500426Y5820359D01*
X2509672Y5822848D01*
X2513330Y5823153D01*
X2516886Y5822086D01*
X2519832Y5819851D01*
X2521762Y5816650D01*
X2522423Y5813044D01*
X2522423Y5723331D01*
X2629763Y5723331D01*
X2627731Y5736336D01*
X2623261Y5753049D01*
X2617063Y5769203D01*
X2609189Y5784596D01*
X2599791Y5799124D01*
X2588869Y5812536D01*
X2576677Y5824778D01*
X2565146Y5834126D01*
X2562402Y5837631D01*
X2561386Y5842000D01*
X2562402Y5846368D01*
X2565146Y5849874D01*
X2576677Y5859221D01*
X2588869Y5871464D01*
X2599791Y5884875D01*
X2609189Y5899404D01*
X2617063Y5914796D01*
X2623261Y5930950D01*
X2627731Y5947664D01*
X2630424Y5964732D01*
X2631338Y5982258D01*
X2631338Y6121755D01*
X2630424Y6139281D01*
X2627731Y6156350D01*
X2623261Y6173063D01*
X2617063Y6189218D01*
X2609189Y6204610D01*
X2599791Y6219139D01*
X2588869Y6232550D01*
X2576677Y6244793D01*
X2563215Y6255664D01*
X2548737Y6265113D01*
X2533294Y6272936D01*
X2517140Y6279134D01*
X2500426Y6283655D01*
X2483358Y6286347D01*
X2466086Y6287262D01*
X2448814Y6286347D01*
X2431745Y6283655D01*
X2415032Y6279134D01*
X2398877Y6272936D01*
X2383485Y6265113D01*
X2368956Y6255664D01*
X2355545Y6244793D01*
X2343302Y6232550D01*
X2332431Y6219139D01*
X2322982Y6204610D01*
X2315159Y6189218D01*
X2308961Y6173063D01*
X2304491Y6156350D01*
X2301748Y6139281D01*
X2300833Y6121755D01*
X2300833Y5982258D01*
X2301748Y5964732D01*
X2304491Y5947664D01*
X2308961Y5930950D01*
X2315159Y5914796D01*
X2322982Y5899404D01*
X2332431Y5884875D01*
X2343302Y5871464D01*
X2355545Y5859221D01*
X2367026Y5849874D01*
X2369820Y5846368D01*
X2370785Y5842000D01*
X2369820Y5837631D01*
X2367026Y5834126D01*
X2355545Y5824778D01*
X2343302Y5812536D01*
X2332431Y5799124D01*
X2322982Y5784596D01*
X2315159Y5769203D01*
X2308961Y5753049D01*
X2304491Y5736336D01*
G37*
G36*
X3036976Y6767423D02*
G01*
X3036976Y6858609D01*
X2945739Y6858609D01*
X2951175Y6844588D01*
X2958947Y6829958D01*
X2968294Y6816242D01*
X2979166Y6803745D01*
X2991358Y6792518D01*
X3004769Y6782765D01*
X3019247Y6774586D01*
X3034487Y6768134D01*
G37*
G36*
X1882393Y6143345D02*
G01*
X1989734Y6143345D01*
X1989734Y6277152D01*
X1978914Y6272936D01*
X1963470Y6265113D01*
X1948992Y6255664D01*
X1935530Y6244793D01*
X1923288Y6232550D01*
X1912416Y6219139D01*
X1903018Y6204610D01*
X1895144Y6189218D01*
X1888947Y6173063D01*
X1884476Y6156350D01*
G37*
G36*
X2102459Y6143345D02*
G01*
X2209800Y6143345D01*
X2207717Y6156350D01*
X2203246Y6173063D01*
X2197049Y6189218D01*
X2189226Y6204610D01*
X2179777Y6219139D01*
X2168906Y6232550D01*
X2156663Y6244793D01*
X2143252Y6255664D01*
X2128723Y6265113D01*
X2113330Y6272936D01*
X2102459Y6277152D01*
G37*
G36*
X8251748Y6360566D02*
G01*
X8268258Y6362192D01*
X8284464Y6365748D01*
X8300161Y6371082D01*
X8315147Y6378194D01*
X8329218Y6386931D01*
X8342223Y6397244D01*
X8353958Y6408978D01*
X8364270Y6421983D01*
X8373008Y6436055D01*
X8380120Y6451041D01*
X8385454Y6466738D01*
X8389010Y6482943D01*
X8390636Y6499453D01*
X8390432Y6516014D01*
X8388299Y6532473D01*
X8384286Y6548577D01*
X8378494Y6564071D01*
X8370976Y6578853D01*
X8361832Y6592671D01*
X8351164Y6605371D01*
X8339074Y6616750D01*
X8325815Y6626707D01*
X8311489Y6635038D01*
X8296300Y6641744D01*
X8280450Y6646621D01*
X8264144Y6649669D01*
X8247634Y6650888D01*
X8231073Y6650177D01*
X8214664Y6647586D01*
X8198713Y6643116D01*
X8183321Y6636867D01*
X8168792Y6628942D01*
X8155228Y6619392D01*
X8142833Y6608368D01*
X8131809Y6595973D01*
X8122259Y6582409D01*
X8114334Y6567881D01*
X8108086Y6552488D01*
X8103616Y6536537D01*
X8101025Y6520129D01*
X8100314Y6503568D01*
X8101533Y6487058D01*
X8104581Y6470751D01*
X8109458Y6454902D01*
X8116163Y6439712D01*
X8124494Y6425387D01*
X8134451Y6412128D01*
X8145830Y6400038D01*
X8158530Y6389370D01*
X8172348Y6380226D01*
X8187131Y6372707D01*
X8202625Y6366916D01*
X8218728Y6362903D01*
X8235188Y6360769D01*
G37*
G36*
X8499246Y6608064D02*
G01*
X8515756Y6609689D01*
X8531961Y6613245D01*
X8547658Y6618579D01*
X8562644Y6625691D01*
X8576716Y6634429D01*
X8589721Y6644741D01*
X8601456Y6656476D01*
X8611768Y6669481D01*
X8620506Y6683552D01*
X8627618Y6698538D01*
X8632952Y6714236D01*
X8636508Y6730441D01*
X8638133Y6746951D01*
X8637930Y6763512D01*
X8635796Y6779971D01*
X8631783Y6796074D01*
X8625992Y6811568D01*
X8618474Y6826351D01*
X8609330Y6840169D01*
X8598662Y6852869D01*
X8586571Y6864248D01*
X8573312Y6874205D01*
X8558987Y6882536D01*
X8543798Y6889242D01*
X8527948Y6894118D01*
X8511641Y6897166D01*
X8495131Y6898386D01*
X8478570Y6897674D01*
X8462162Y6895084D01*
X8446211Y6890613D01*
X8430818Y6884365D01*
X8416290Y6876440D01*
X8402726Y6866890D01*
X8390331Y6855866D01*
X8379307Y6843471D01*
X8369757Y6829907D01*
X8361832Y6815378D01*
X8355584Y6799986D01*
X8351113Y6784035D01*
X8348522Y6767626D01*
X8347811Y6751066D01*
X8349030Y6734556D01*
X8352078Y6718249D01*
X8356955Y6702399D01*
X8363661Y6687210D01*
X8371992Y6672884D01*
X8381949Y6659625D01*
X8393328Y6647535D01*
X8406028Y6636867D01*
X8419846Y6627723D01*
X8434628Y6620205D01*
X8450122Y6614414D01*
X8466226Y6610400D01*
X8482685Y6608267D01*
G37*
G36*
X6160922Y6719976D02*
G01*
X6183477Y6719976D01*
X6205880Y6721906D01*
X6228080Y6725716D01*
X6249873Y6731406D01*
X6271107Y6738874D01*
X6291630Y6748170D01*
X6311290Y6759143D01*
X6329934Y6771741D01*
X6347460Y6785864D01*
X6363716Y6801459D01*
X6378549Y6818375D01*
X6391960Y6836460D01*
X6403746Y6855663D01*
X6413906Y6875729D01*
X6422288Y6896658D01*
X6428892Y6918147D01*
X6433616Y6940194D01*
X6436512Y6962495D01*
X6437426Y6985000D01*
X6436512Y7007504D01*
X6433616Y7029805D01*
X6428892Y7051852D01*
X6422288Y7073341D01*
X6413906Y7094270D01*
X6403746Y7114336D01*
X6391960Y7133539D01*
X6378549Y7151624D01*
X6363716Y7168540D01*
X6347460Y7184085D01*
X6329934Y7198258D01*
X6311290Y7210856D01*
X6291630Y7221829D01*
X6271107Y7231125D01*
X6249873Y7238593D01*
X6228080Y7244283D01*
X6205880Y7248093D01*
X6183477Y7250023D01*
X6160922Y7250023D01*
X6138519Y7248093D01*
X6116320Y7244283D01*
X6094526Y7238593D01*
X6073292Y7231125D01*
X6052769Y7221829D01*
X6033109Y7210856D01*
X6014466Y7198258D01*
X5996940Y7184085D01*
X5980684Y7168540D01*
X5965850Y7151624D01*
X5952439Y7133539D01*
X5940653Y7114336D01*
X5930493Y7094270D01*
X5922111Y7073341D01*
X5915507Y7051852D01*
X5910783Y7029805D01*
X5907938Y7007504D01*
X5906973Y6985000D01*
X5907938Y6962495D01*
X5910783Y6940194D01*
X5915507Y6918147D01*
X5922111Y6896658D01*
X5930493Y6875729D01*
X5940653Y6855663D01*
X5952439Y6836460D01*
X5965850Y6818375D01*
X5980684Y6801459D01*
X5996940Y6785864D01*
X6014466Y6771741D01*
X6033109Y6759143D01*
X6052769Y6748170D01*
X6073292Y6738874D01*
X6094526Y6731406D01*
X6116320Y6725716D01*
X6138519Y6721906D01*
G37*
G36*
X3129635Y6767423D02*
G01*
X3132124Y6768134D01*
X3147364Y6774586D01*
X3161842Y6782765D01*
X3175254Y6792518D01*
X3187446Y6803745D01*
X3198317Y6816242D01*
X3207664Y6829958D01*
X3215436Y6844588D01*
X3220872Y6858609D01*
X3129635Y6858609D01*
G37*

%LPD*%
G36*
X479094Y4615891D02*
G01*
X475284Y4616094D01*
X468223Y4617770D01*
X451561Y4623409D01*
X435508Y4630572D01*
X420166Y4639157D01*
X405688Y4649114D01*
X392226Y4660341D01*
X379831Y4672787D01*
X368655Y4686350D01*
X358749Y4700879D01*
X350215Y4716221D01*
X343154Y4732324D01*
X337616Y4748987D01*
X333654Y4766106D01*
X331266Y4783531D01*
X330454Y4801412D01*
X330454Y5053482D01*
X331419Y5066792D01*
X333756Y5078171D01*
X337566Y5089093D01*
X342747Y5099456D01*
X349250Y5109057D01*
X356971Y5117693D01*
X365709Y5125262D01*
X375412Y5131612D01*
X385826Y5136642D01*
X396798Y5140299D01*
X408228Y5142484D01*
X433222Y5144211D01*
X437489Y5144820D01*
X449326Y5147360D01*
X453390Y5148580D01*
X464718Y5152796D01*
X468579Y5154574D01*
X477469Y5159400D01*
X479806Y5160314D01*
X482346Y5160670D01*
X743966Y5160670D01*
X763727Y5161584D01*
X783031Y5164378D01*
X802030Y5168950D01*
X820470Y5175351D01*
X838250Y5183479D01*
X855167Y5193233D01*
X871575Y5204968D01*
X874369Y5206339D01*
X877468Y5206847D01*
X1066647Y5206847D01*
X1075436Y5207101D01*
X1084072Y5207762D01*
X1092657Y5208879D01*
X1101140Y5210454D01*
X1109573Y5212486D01*
X1117854Y5214924D01*
X1126032Y5217820D01*
X1134008Y5221122D01*
X1141831Y5224881D01*
X1149400Y5228996D01*
X1156817Y5233517D01*
X1163929Y5238394D01*
X1170787Y5243677D01*
X1177391Y5249316D01*
X1183741Y5255361D01*
X1415999Y5487619D01*
X1419301Y5489803D01*
X1423212Y5490565D01*
X1427073Y5489803D01*
X1430375Y5487619D01*
X1432560Y5484317D01*
X1433372Y5480405D01*
X1433372Y5461406D01*
X1434185Y5450789D01*
X1436573Y5440832D01*
X1440484Y5431383D01*
X1445818Y5422646D01*
X1452727Y5414568D01*
X1481988Y5385358D01*
X1484172Y5382056D01*
X1484934Y5378145D01*
X1484985Y5292445D01*
X1485900Y5281320D01*
X1486357Y5278018D01*
X1488592Y5267096D01*
X1489506Y5263896D01*
X1493113Y5253329D01*
X1494383Y5250281D01*
X1499260Y5240223D01*
X1507032Y5228031D01*
X1509014Y5225389D01*
X1516278Y5216906D01*
X1635506Y5097678D01*
X1643989Y5090414D01*
X1646631Y5088432D01*
X1658823Y5080660D01*
X1668881Y5075783D01*
X1671929Y5074513D01*
X1682496Y5070906D01*
X1685696Y5069992D01*
X1696618Y5067757D01*
X1699920Y5067300D01*
X1711045Y5066385D01*
X2260447Y5066334D01*
X2267813Y5066588D01*
X2275027Y5067249D01*
X2282190Y5068417D01*
X2289251Y5069992D01*
X2296210Y5071973D01*
X2303018Y5074462D01*
X2309672Y5077307D01*
X2316124Y5080609D01*
X2322372Y5084318D01*
X2328316Y5088382D01*
X2334056Y5092801D01*
X2339492Y5097576D01*
X2344623Y5102707D01*
X2349398Y5108143D01*
X2353818Y5113883D01*
X2357882Y5119827D01*
X2361590Y5126075D01*
X2364892Y5132527D01*
X2367737Y5139182D01*
X2370226Y5145989D01*
X2372207Y5152948D01*
X2373782Y5160010D01*
X2374950Y5167172D01*
X2375611Y5174386D01*
X2375865Y5181600D01*
X2375611Y5188813D01*
X2375052Y5194909D01*
X2375509Y5199126D01*
X2377643Y5202732D01*
X2381046Y5205171D01*
X2385161Y5206034D01*
X3089554Y5206085D01*
X3100679Y5207000D01*
X3103981Y5207457D01*
X3114903Y5209692D01*
X3118104Y5210606D01*
X3128670Y5214213D01*
X3131718Y5215483D01*
X3141776Y5220360D01*
X3153968Y5228132D01*
X3156610Y5230114D01*
X3165094Y5237378D01*
X3323488Y5395722D01*
X3326079Y5397601D01*
X3329127Y5398566D01*
X3340455Y5400344D01*
X3357168Y5404866D01*
X3373323Y5411063D01*
X3388715Y5418886D01*
X3403244Y5428335D01*
X3416655Y5439206D01*
X3428898Y5451449D01*
X3439769Y5464860D01*
X3449218Y5479389D01*
X3457041Y5494782D01*
X3463239Y5510936D01*
X3467709Y5527649D01*
X3470452Y5544718D01*
X3471367Y5562244D01*
X3471367Y5699252D01*
X3472129Y5703112D01*
X3474313Y5706414D01*
X3477615Y5708599D01*
X3481527Y5709412D01*
X3485387Y5708599D01*
X3488690Y5706414D01*
X3637127Y5557977D01*
X3639312Y5554675D01*
X3640124Y5550814D01*
X3639312Y5546902D01*
X3637127Y5543600D01*
X3633825Y5541416D01*
X3629964Y5540654D01*
X3562400Y5540654D01*
X3564483Y5527649D01*
X3568954Y5510936D01*
X3575151Y5494782D01*
X3583025Y5479389D01*
X3592423Y5464860D01*
X3603294Y5451449D01*
X3615537Y5439206D01*
X3628999Y5428335D01*
X3643477Y5418886D01*
X3658920Y5411063D01*
X3669741Y5406847D01*
X3669741Y5515610D01*
X3670503Y5519369D01*
X3672586Y5522620D01*
X3675786Y5524855D01*
X3679545Y5525770D01*
X3683355Y5525160D01*
X3693972Y5521350D01*
X3708095Y5518200D01*
X3722471Y5516829D01*
X3736949Y5517286D01*
X3751224Y5519521D01*
X3765143Y5523585D01*
X3768242Y5524906D01*
X3772154Y5525770D01*
X3776116Y5525008D01*
X3779418Y5522823D01*
X3781653Y5519521D01*
X3782466Y5515610D01*
X3782466Y5406847D01*
X3793337Y5411063D01*
X3808729Y5418886D01*
X3823258Y5428335D01*
X3836670Y5439206D01*
X3848912Y5451449D01*
X3859784Y5464860D01*
X3869232Y5479389D01*
X3877056Y5494782D01*
X3883253Y5510936D01*
X3887724Y5527649D01*
X3889806Y5540654D01*
X3821531Y5540654D01*
X3817162Y5541619D01*
X3813606Y5544413D01*
X3811676Y5548477D01*
X3811625Y5552948D01*
X3813505Y5557012D01*
X3821429Y5567222D01*
X3828796Y5579668D01*
X3834536Y5592978D01*
X3838549Y5606846D01*
X3840835Y5621172D01*
X3841292Y5635599D01*
X3839921Y5650026D01*
X3836771Y5664149D01*
X3831844Y5677763D01*
X3825290Y5690666D01*
X3817162Y5702604D01*
X3813759Y5706465D01*
X3811828Y5709767D01*
X3811219Y5713628D01*
X3812133Y5717387D01*
X3814368Y5720537D01*
X3817620Y5722620D01*
X3821379Y5723331D01*
X3889806Y5723331D01*
X3887724Y5736336D01*
X3883253Y5753049D01*
X3877056Y5769203D01*
X3869232Y5784596D01*
X3859784Y5799124D01*
X3848912Y5812536D01*
X3836670Y5824778D01*
X3825189Y5834126D01*
X3822395Y5837631D01*
X3821429Y5842000D01*
X3822395Y5846368D01*
X3825189Y5849874D01*
X3836670Y5859221D01*
X3848912Y5871464D01*
X3859784Y5884875D01*
X3869232Y5899404D01*
X3877056Y5914796D01*
X3883253Y5930950D01*
X3887724Y5947664D01*
X3889806Y5960668D01*
X3782466Y5960668D01*
X3782466Y5763158D01*
X3781704Y5759297D01*
X3779469Y5755995D01*
X3776167Y5753760D01*
X3772306Y5752998D01*
X3768394Y5753760D01*
X3765092Y5755995D01*
X3672738Y5848350D01*
X3670554Y5851652D01*
X3669741Y5855563D01*
X3669741Y5960668D01*
X3643325Y5960668D01*
X3639413Y5961430D01*
X3636111Y5963615D01*
X3633927Y5966917D01*
X3633165Y5970828D01*
X3633165Y6133185D01*
X3633927Y6137097D01*
X3636111Y6140399D01*
X3639413Y6142583D01*
X3643325Y6143345D01*
X3674313Y6143345D01*
X3677005Y6144615D01*
X3679901Y6145022D01*
X3772306Y6145022D01*
X3775252Y6144615D01*
X3777894Y6143345D01*
X3895242Y6143345D01*
X3897934Y6144615D01*
X3900830Y6145022D01*
X3971340Y6145022D01*
X3974287Y6144615D01*
X3976979Y6143345D01*
X4094276Y6143345D01*
X4096969Y6144615D01*
X4099915Y6145022D01*
X4192270Y6145022D01*
X4195216Y6144615D01*
X4197908Y6143345D01*
X4315206Y6143345D01*
X4317898Y6144615D01*
X4320844Y6145022D01*
X4391355Y6145022D01*
X4394301Y6144615D01*
X4396994Y6143345D01*
X4514291Y6143345D01*
X4516983Y6144615D01*
X4519930Y6145022D01*
X4612284Y6145022D01*
X4615230Y6144615D01*
X4617923Y6143345D01*
X4649774Y6143345D01*
X4653686Y6142583D01*
X4656988Y6140399D01*
X4659172Y6137097D01*
X4659934Y6133185D01*
X4659934Y5970828D01*
X4659172Y5966917D01*
X4656988Y5963615D01*
X4653686Y5961430D01*
X4649774Y5960668D01*
X4622444Y5960668D01*
X4622444Y5723331D01*
X4727549Y5723331D01*
X4731461Y5722569D01*
X4734763Y5720384D01*
X4817872Y5637225D01*
X4820056Y5633923D01*
X4820869Y5630062D01*
X4820869Y5562244D01*
X4821783Y5544718D01*
X4824476Y5527649D01*
X4828946Y5510936D01*
X4835144Y5494782D01*
X4843018Y5479389D01*
X4852416Y5464860D01*
X4863287Y5451449D01*
X4875530Y5439206D01*
X4888992Y5428335D01*
X4903470Y5418886D01*
X4918913Y5411063D01*
X4935067Y5404866D01*
X4951730Y5400344D01*
X4968849Y5397652D01*
X4986121Y5396738D01*
X5000802Y5397500D01*
X5004816Y5396941D01*
X5008270Y5394807D01*
X5010607Y5391505D01*
X5011470Y5387543D01*
X5010759Y5383580D01*
X5008524Y5380177D01*
X4624171Y4995824D01*
X4620869Y4993640D01*
X4616958Y4992827D01*
X4432706Y4992827D01*
X4422089Y4992014D01*
X4412132Y4989626D01*
X4402683Y4985715D01*
X4393946Y4980381D01*
X4385868Y4973472D01*
X4332071Y4919624D01*
X4328769Y4917440D01*
X4324858Y4916627D01*
X4130903Y4916627D01*
X4126687Y4917592D01*
X4123232Y4920183D01*
X4121150Y4923942D01*
X4120845Y4928260D01*
X4122369Y4932324D01*
X4126941Y4939487D01*
X4134256Y4954371D01*
X4137914Y4964531D01*
X4046829Y4964531D01*
X4046829Y4926787D01*
X4046067Y4922926D01*
X4043883Y4919624D01*
X4040581Y4917440D01*
X4036669Y4916627D01*
X3964330Y4916627D01*
X3960418Y4917440D01*
X3957116Y4919624D01*
X3954932Y4922926D01*
X3954170Y4926787D01*
X3954170Y4964531D01*
X3862984Y4964531D01*
X3863695Y4962093D01*
X3870147Y4946802D01*
X3878630Y4931816D01*
X3879900Y4927803D01*
X3879443Y4923637D01*
X3877310Y4919980D01*
X3873906Y4917541D01*
X3869791Y4916627D01*
X3178403Y4916627D01*
X3174187Y4917592D01*
X3170732Y4920183D01*
X3168650Y4923942D01*
X3168345Y4928260D01*
X3169869Y4932324D01*
X3174441Y4939487D01*
X3181756Y4954371D01*
X3185414Y4964531D01*
X3094329Y4964531D01*
X3094329Y4926787D01*
X3093567Y4922926D01*
X3091383Y4919624D01*
X3088081Y4917440D01*
X3084169Y4916627D01*
X3011830Y4916627D01*
X3007918Y4917440D01*
X3004616Y4919624D01*
X3002432Y4922926D01*
X3001670Y4926787D01*
X3001670Y4964531D01*
X2910484Y4964531D01*
X2911195Y4962093D01*
X2917647Y4946802D01*
X2926130Y4931816D01*
X2927400Y4927803D01*
X2926943Y4923637D01*
X2924810Y4919980D01*
X2921406Y4917541D01*
X2917291Y4916627D01*
X2660142Y4916627D01*
X2656230Y4917440D01*
X2652928Y4919624D01*
X2599131Y4973472D01*
X2591054Y4980381D01*
X2582316Y4985715D01*
X2572867Y4989626D01*
X2562910Y4992014D01*
X2552293Y4992827D01*
X1054506Y4992827D01*
X1043889Y4992014D01*
X1033932Y4989626D01*
X1024483Y4985715D01*
X1015746Y4980381D01*
X1007668Y4973472D01*
X784758Y4750511D01*
X781456Y4748326D01*
X777544Y4747564D01*
X739190Y4747564D01*
X714248Y4746548D01*
X689660Y4743653D01*
X665429Y4738827D01*
X641604Y4732121D01*
X618337Y4723536D01*
X595884Y4713173D01*
X574294Y4701082D01*
X553720Y4687316D01*
X534263Y4672025D01*
X516077Y4655210D01*
X499262Y4637024D01*
X485597Y4619701D01*
X482701Y4617161D01*
G37*

%LPC*%
G36*
X4509770Y5406847D02*
G01*
X4509770Y5540654D01*
X4402429Y5540654D01*
X4404512Y5527649D01*
X4408982Y5510936D01*
X4415180Y5494782D01*
X4423003Y5479389D01*
X4432452Y5464860D01*
X4443323Y5451449D01*
X4455566Y5439206D01*
X4468977Y5428335D01*
X4483506Y5418886D01*
X4498898Y5411063D01*
G37*
G36*
X3862984Y5057241D02*
G01*
X3954170Y5057241D01*
X3954170Y5148427D01*
X3940149Y5142992D01*
X3925519Y5135270D01*
X3911803Y5125923D01*
X3899255Y5115052D01*
X3888079Y5102809D01*
X3878326Y5089398D01*
X3870147Y5074970D01*
X3863695Y5059680D01*
G37*
G36*
X4146092Y5396738D02*
G01*
X4163364Y5397652D01*
X4180433Y5400344D01*
X4197146Y5404866D01*
X4213301Y5411063D01*
X4228744Y5418886D01*
X4243222Y5428335D01*
X4256684Y5439206D01*
X4268876Y5451449D01*
X4279798Y5464860D01*
X4289196Y5479389D01*
X4297070Y5494782D01*
X4303268Y5510936D01*
X4307738Y5527649D01*
X4310430Y5544718D01*
X4311345Y5562244D01*
X4311345Y5701741D01*
X4310430Y5719267D01*
X4307738Y5736336D01*
X4303268Y5753049D01*
X4297070Y5769203D01*
X4289196Y5784596D01*
X4279798Y5799124D01*
X4268876Y5812536D01*
X4256684Y5824778D01*
X4245152Y5834126D01*
X4242409Y5837631D01*
X4241393Y5842000D01*
X4242409Y5846368D01*
X4245152Y5849874D01*
X4256684Y5859221D01*
X4268876Y5871464D01*
X4279798Y5884875D01*
X4289196Y5899404D01*
X4297070Y5914796D01*
X4303268Y5930950D01*
X4307738Y5947664D01*
X4309770Y5960668D01*
X4202430Y5960668D01*
X4202430Y5870956D01*
X4201769Y5867349D01*
X4199839Y5864148D01*
X4196892Y5861913D01*
X4193336Y5860846D01*
X4189679Y5861151D01*
X4180433Y5863640D01*
X4163364Y5866333D01*
X4146092Y5867247D01*
X4128820Y5866333D01*
X4111751Y5863640D01*
X4102557Y5861151D01*
X4098848Y5860846D01*
X4095292Y5861913D01*
X4092346Y5864148D01*
X4090415Y5867349D01*
X4089755Y5870956D01*
X4089755Y5960668D01*
X3982415Y5960668D01*
X3984498Y5947664D01*
X3988968Y5930950D01*
X3995165Y5914796D01*
X4002989Y5899404D01*
X4012437Y5884875D01*
X4023309Y5871464D01*
X4035551Y5859221D01*
X4047032Y5849874D01*
X4049826Y5846368D01*
X4050792Y5842000D01*
X4049826Y5837631D01*
X4047032Y5834126D01*
X4035551Y5824778D01*
X4023309Y5812536D01*
X4012437Y5799124D01*
X4002989Y5784596D01*
X3995165Y5769203D01*
X3988968Y5753049D01*
X3984498Y5736336D01*
X3981754Y5719267D01*
X3980840Y5701741D01*
X3980840Y5562244D01*
X3981754Y5544718D01*
X3984498Y5527649D01*
X3988968Y5510936D01*
X3995165Y5494782D01*
X4002989Y5479389D01*
X4012437Y5464860D01*
X4023309Y5451449D01*
X4035551Y5439206D01*
X4048963Y5428335D01*
X4063492Y5418886D01*
X4078884Y5411063D01*
X4095038Y5404866D01*
X4111751Y5400344D01*
X4128820Y5397652D01*
G37*
G36*
X4402429Y5723331D02*
G01*
X4509770Y5723331D01*
X4509770Y5960668D01*
X4402429Y5960668D01*
X4404512Y5947664D01*
X4408982Y5930950D01*
X4415180Y5914796D01*
X4423003Y5899404D01*
X4432452Y5884875D01*
X4443323Y5871464D01*
X4455566Y5859221D01*
X4467047Y5849874D01*
X4469841Y5846368D01*
X4470806Y5842000D01*
X4469841Y5837631D01*
X4467047Y5834126D01*
X4455566Y5824778D01*
X4443323Y5812536D01*
X4432452Y5799124D01*
X4423003Y5784596D01*
X4415180Y5769203D01*
X4408982Y5753049D01*
X4404512Y5736336D01*
G37*
G36*
X4622444Y5406847D02*
G01*
X4633315Y5411063D01*
X4648758Y5418886D01*
X4663236Y5428335D01*
X4676698Y5439206D01*
X4688890Y5451449D01*
X4699812Y5464860D01*
X4709210Y5479389D01*
X4717084Y5494782D01*
X4723282Y5510936D01*
X4727752Y5527649D01*
X4729784Y5540654D01*
X4622444Y5540654D01*
G37*
G36*
X4046829Y5057241D02*
G01*
X4137914Y5057241D01*
X4134256Y5067452D01*
X4126941Y5082336D01*
X4118000Y5096256D01*
X4107484Y5109108D01*
X4095597Y5120640D01*
X4082491Y5130800D01*
X4068267Y5139334D01*
X4053179Y5146243D01*
X4046829Y5148275D01*
G37*
G36*
X3094329Y5057241D02*
G01*
X3185414Y5057241D01*
X3181756Y5067452D01*
X3174441Y5082336D01*
X3165500Y5096256D01*
X3154984Y5109108D01*
X3143097Y5120640D01*
X3129991Y5130800D01*
X3115767Y5139334D01*
X3100679Y5146243D01*
X3094329Y5148275D01*
G37*
G36*
X2910484Y5057241D02*
G01*
X3001670Y5057241D01*
X3001670Y5148427D01*
X2987649Y5142992D01*
X2973019Y5135270D01*
X2959303Y5125923D01*
X2946755Y5115052D01*
X2935579Y5102809D01*
X2925826Y5089398D01*
X2917647Y5074970D01*
X2911195Y5059680D01*
G37*

%LPD*%
G36*
X1044041Y2964840D02*
G01*
X1039825Y2966161D01*
X1036624Y2969209D01*
X1032967Y2974492D01*
X1020267Y2989783D01*
X1006195Y3003854D01*
X990904Y3016554D01*
X974496Y3027781D01*
X957122Y3037484D01*
X938936Y3045510D01*
X920089Y3051810D01*
X900734Y3056382D01*
X881075Y3059125D01*
X860958Y3060039D01*
X561441Y3060039D01*
X541324Y3059125D01*
X521665Y3056382D01*
X502310Y3051810D01*
X483463Y3045510D01*
X465277Y3037484D01*
X458470Y3033725D01*
X455625Y3032658D01*
X452628Y3032455D01*
X449681Y3033217D01*
X437134Y3038398D01*
X434035Y3039465D01*
X419404Y3043682D01*
X416153Y3044444D01*
X401167Y3046984D01*
X397865Y3047339D01*
X382524Y3048203D01*
X372313Y3049117D01*
X364642Y3051098D01*
X357428Y3054248D01*
X350723Y3058464D01*
X344779Y3063697D01*
X339750Y3069793D01*
X335737Y3076600D01*
X332790Y3083966D01*
X331063Y3091688D01*
X330454Y3100171D01*
X330454Y3428187D01*
X331368Y3447034D01*
X333806Y3464407D01*
X337870Y3481476D01*
X343509Y3498138D01*
X350672Y3514191D01*
X359257Y3529533D01*
X369214Y3544011D01*
X380441Y3557473D01*
X392887Y3569868D01*
X406450Y3581044D01*
X420979Y3590950D01*
X436321Y3599484D01*
X452424Y3606546D01*
X469087Y3612083D01*
X475284Y3613505D01*
X479094Y3613658D01*
X482701Y3612438D01*
X485597Y3609898D01*
X499262Y3592576D01*
X516077Y3574389D01*
X534263Y3557574D01*
X553720Y3542284D01*
X574294Y3528517D01*
X595884Y3516426D01*
X618337Y3506063D01*
X641604Y3497478D01*
X665429Y3490772D01*
X689660Y3485946D01*
X714248Y3483051D01*
X739190Y3482035D01*
X775512Y3482035D01*
X779373Y3481273D01*
X782675Y3479088D01*
X784860Y3475786D01*
X785672Y3471875D01*
X785672Y3403803D01*
X785876Y3398265D01*
X786434Y3393389D01*
X787501Y3388156D01*
X788822Y3383432D01*
X790702Y3378403D01*
X792734Y3373983D01*
X795375Y3369310D01*
X798118Y3365246D01*
X801420Y3361080D01*
X804875Y3357321D01*
X994968Y3167227D01*
X1003046Y3160318D01*
X1011783Y3154984D01*
X1021232Y3151073D01*
X1031189Y3148685D01*
X1041806Y3147822D01*
X1207719Y3147822D01*
X1211630Y3147060D01*
X1214932Y3144875D01*
X1217117Y3141573D01*
X1217879Y3137662D01*
X1217117Y3133801D01*
X1214932Y3130499D01*
X1052169Y2967736D01*
X1048410Y2965399D01*
G37*

%LPD*%
G36*
X1885391Y2635402D02*
G01*
X1881022Y2635504D01*
X1877110Y2637485D01*
X1859534Y2651658D01*
X1840890Y2664256D01*
X1821230Y2675229D01*
X1800707Y2684526D01*
X1779473Y2691993D01*
X1757680Y2697683D01*
X1735480Y2701493D01*
X1713077Y2703423D01*
X1690522Y2703423D01*
X1668119Y2701493D01*
X1645920Y2697683D01*
X1624126Y2691993D01*
X1602892Y2684526D01*
X1584147Y2676042D01*
X1580235Y2675128D01*
X1576273Y2675839D01*
X1572920Y2677972D01*
X1570634Y2681274D01*
X1569770Y2685186D01*
X1570532Y2689148D01*
X1572768Y2692450D01*
X1704593Y2824276D01*
X1707845Y2826461D01*
X1711756Y2827274D01*
X1715668Y2826461D01*
X1718919Y2824276D01*
X1890674Y2652572D01*
X1893011Y2648864D01*
X1893620Y2644546D01*
X1892300Y2640380D01*
X1889404Y2637129D01*
G37*

%LPD*%
G36*
X1039215Y2489606D02*
G01*
X1035151Y2490622D01*
X1031849Y2493264D01*
X1020267Y2507183D01*
X1006195Y2521254D01*
X990904Y2533954D01*
X974496Y2545181D01*
X957122Y2554884D01*
X938936Y2562910D01*
X920089Y2569210D01*
X900734Y2573782D01*
X881075Y2576525D01*
X860958Y2577439D01*
X561441Y2577439D01*
X556971Y2577236D01*
X552958Y2577896D01*
X549503Y2580030D01*
X547166Y2583383D01*
X546354Y2587396D01*
X546354Y2619603D01*
X547166Y2623616D01*
X549503Y2626969D01*
X552958Y2629103D01*
X556971Y2629763D01*
X561441Y2629560D01*
X860958Y2629560D01*
X881075Y2630474D01*
X900734Y2633218D01*
X920089Y2637790D01*
X938936Y2644089D01*
X957122Y2652115D01*
X974496Y2661818D01*
X990904Y2673045D01*
X1006195Y2685745D01*
X1020267Y2699816D01*
X1032967Y2715107D01*
X1039825Y2725115D01*
X1042111Y2727502D01*
X1045006Y2729026D01*
X1048207Y2729534D01*
X1095654Y2729585D01*
X1106779Y2730500D01*
X1110081Y2730957D01*
X1121003Y2733192D01*
X1124204Y2734106D01*
X1134770Y2737713D01*
X1137818Y2738983D01*
X1147876Y2743860D01*
X1160068Y2751632D01*
X1162710Y2753614D01*
X1171194Y2760878D01*
X1488694Y3078276D01*
X1491945Y3080461D01*
X1495856Y3081274D01*
X1499768Y3080461D01*
X1503019Y3078276D01*
X1560626Y3020669D01*
X1562811Y3017418D01*
X1563624Y3013506D01*
X1562811Y3009595D01*
X1560626Y3006344D01*
X1046835Y2492552D01*
X1043330Y2490266D01*
G37*

%LPD*%
G36*
X1666798Y1346200D02*
G01*
X1662938Y1346962D01*
X1659636Y1349197D01*
X1657400Y1352448D01*
X1656638Y1356360D01*
X1656638Y1475435D01*
X1525981Y1475435D01*
X1522120Y1476197D01*
X1518818Y1478381D01*
X1463497Y1533702D01*
X1461262Y1537004D01*
X1460500Y1540916D01*
X1460500Y1875383D01*
X1461262Y1879295D01*
X1463497Y1882597D01*
X1622602Y2041702D01*
X1625904Y2043938D01*
X1629816Y2044700D01*
X1853184Y2044700D01*
X1854911Y2045411D01*
X1967788Y2158288D01*
X1968500Y2160016D01*
X1968500Y2665984D01*
X1967788Y2667711D01*
X1764690Y2870809D01*
X1762556Y2873908D01*
X1761743Y2877616D01*
X1762252Y2881325D01*
X1764131Y2884576D01*
X1769567Y2891231D01*
X1777339Y2903423D01*
X1782216Y2913481D01*
X1783486Y2916529D01*
X1787093Y2927096D01*
X1788007Y2930296D01*
X1790242Y2941218D01*
X1790700Y2944520D01*
X1791614Y2955645D01*
X1791665Y2958947D01*
X1791106Y2970123D01*
X1790750Y2973374D01*
X1788820Y2984398D01*
X1788058Y2987598D01*
X1783638Y3001365D01*
X1779016Y3011576D01*
X1777492Y3014472D01*
X1771650Y3024022D01*
X1769719Y3026714D01*
X1762760Y3035452D01*
X1760524Y3037890D01*
X1752498Y3045663D01*
X1750009Y3047796D01*
X1741068Y3054502D01*
X1738274Y3056331D01*
X1728571Y3061868D01*
X1725625Y3063290D01*
X1715312Y3067608D01*
X1701342Y3071622D01*
X1698142Y3072282D01*
X1687068Y3073857D01*
X1683816Y3074111D01*
X1672640Y3074263D01*
X1669338Y3074111D01*
X1658213Y3072892D01*
X1654962Y3072333D01*
X1644091Y3069742D01*
X1640941Y3068777D01*
X1630476Y3064814D01*
X1627530Y3063494D01*
X1623009Y3060954D01*
X1618843Y3059734D01*
X1614525Y3060344D01*
X1610918Y3062681D01*
X1548790Y3124809D01*
X1546656Y3127908D01*
X1545844Y3131616D01*
X1546352Y3135325D01*
X1548231Y3138576D01*
X1553667Y3145231D01*
X1561439Y3157423D01*
X1566316Y3167481D01*
X1567586Y3170529D01*
X1571193Y3181096D01*
X1572107Y3184296D01*
X1574342Y3195218D01*
X1574800Y3198520D01*
X1575714Y3209645D01*
X1575765Y3212947D01*
X1575206Y3224123D01*
X1574850Y3227374D01*
X1572920Y3238398D01*
X1572158Y3241598D01*
X1569466Y3250336D01*
X1567637Y3255517D01*
X1563166Y3265474D01*
X1555750Y3278022D01*
X1553819Y3280714D01*
X1546860Y3289452D01*
X1544624Y3291890D01*
X1536598Y3299663D01*
X1534109Y3301796D01*
X1525168Y3308502D01*
X1522374Y3310331D01*
X1512671Y3315868D01*
X1509725Y3317290D01*
X1499412Y3321608D01*
X1496263Y3322675D01*
X1485493Y3325622D01*
X1482242Y3326282D01*
X1471168Y3327857D01*
X1467916Y3328111D01*
X1456740Y3328263D01*
X1453438Y3328111D01*
X1442313Y3326892D01*
X1439062Y3326333D01*
X1428191Y3323742D01*
X1425041Y3322777D01*
X1414576Y3318814D01*
X1411579Y3317443D01*
X1401673Y3312210D01*
X1398879Y3310483D01*
X1389735Y3304082D01*
X1387144Y3302000D01*
X1378813Y3294430D01*
X1300480Y3216097D01*
X1297178Y3213862D01*
X1293317Y3213100D01*
X1045616Y3213100D01*
X1041704Y3213862D01*
X1038402Y3216097D01*
X853897Y3400602D01*
X851662Y3403904D01*
X850900Y3407816D01*
X850900Y3542284D01*
X850290Y3543655D01*
X739851Y3605479D01*
X736803Y3608120D01*
X735025Y3611727D01*
X734771Y3615740D01*
X736092Y3619550D01*
X738835Y3622548D01*
X742492Y3624224D01*
X760425Y3628440D01*
X784504Y3636518D01*
X805180Y3645814D01*
X824941Y3656939D01*
X843534Y3669842D01*
X858926Y3682593D01*
X875030Y3698544D01*
X889609Y3715918D01*
X903986Y3736848D01*
X914908Y3756710D01*
X923950Y3777538D01*
X931011Y3799078D01*
X936091Y3821176D01*
X939088Y3843629D01*
X940003Y3863594D01*
X940003Y3874871D01*
X938784Y3898290D01*
X935431Y3921556D01*
X930706Y3941775D01*
X923340Y3964076D01*
X913993Y3985615D01*
X902665Y4006189D01*
X889508Y4025595D01*
X874572Y4043781D01*
X856081Y4062272D01*
X837895Y4077208D01*
X818489Y4090365D01*
X800354Y4100474D01*
X789228Y4105503D01*
X786028Y4107738D01*
X783894Y4110990D01*
X783183Y4114800D01*
X783894Y4118610D01*
X786028Y4121861D01*
X789228Y4124096D01*
X797763Y4127855D01*
X818489Y4139234D01*
X837895Y4152392D01*
X856081Y4167327D01*
X874572Y4185818D01*
X889508Y4204004D01*
X902665Y4223410D01*
X913993Y4243984D01*
X923340Y4265523D01*
X930706Y4287824D01*
X935939Y4310735D01*
X938784Y4331106D01*
X939444Y4341926D01*
X940003Y4356862D01*
X939342Y4362500D01*
X938428Y4379315D01*
X935075Y4402734D01*
X929538Y4425696D01*
X922883Y4445558D01*
X913434Y4467199D01*
X900633Y4490262D01*
X888796Y4507484D01*
X873861Y4525670D01*
X857148Y4542586D01*
X839012Y4557776D01*
X819607Y4571238D01*
X799033Y4582871D01*
X777443Y4592523D01*
X755040Y4600143D01*
X736092Y4604766D01*
X732637Y4606290D01*
X729996Y4608982D01*
X728522Y4612436D01*
X728370Y4616196D01*
X729640Y4619752D01*
X732129Y4622596D01*
X813003Y4686503D01*
X1051102Y4924602D01*
X1054404Y4926838D01*
X1058316Y4927600D01*
X2034997Y4927600D01*
X2039162Y4926685D01*
X2042617Y4924145D01*
X2044700Y4920437D01*
X2045055Y4916170D01*
X2043633Y4912106D01*
X2040686Y4909007D01*
X2026666Y4899558D01*
X2009139Y4885385D01*
X1992884Y4869840D01*
X1978050Y4852924D01*
X1964639Y4834839D01*
X1952853Y4815636D01*
X1942693Y4795570D01*
X1934311Y4774641D01*
X1927707Y4753152D01*
X1922983Y4731105D01*
X1920138Y4708804D01*
X1919173Y4686300D01*
X1920138Y4663795D01*
X1922983Y4641494D01*
X1927707Y4619447D01*
X1934311Y4597958D01*
X1942693Y4577029D01*
X1952853Y4556963D01*
X1964639Y4537760D01*
X1978050Y4519676D01*
X1992884Y4502759D01*
X2009139Y4487164D01*
X2026666Y4473041D01*
X2045309Y4460443D01*
X2064969Y4449470D01*
X2085492Y4440174D01*
X2106726Y4432706D01*
X2128520Y4427016D01*
X2150719Y4423206D01*
X2173122Y4421276D01*
X2195677Y4421276D01*
X2218080Y4423206D01*
X2240280Y4427016D01*
X2262073Y4432706D01*
X2283307Y4440174D01*
X2303830Y4449470D01*
X2323490Y4460443D01*
X2342134Y4473041D01*
X2359660Y4487164D01*
X2375916Y4502759D01*
X2390749Y4519676D01*
X2404160Y4537760D01*
X2415946Y4556963D01*
X2426106Y4577029D01*
X2434488Y4597958D01*
X2441092Y4619447D01*
X2445816Y4641494D01*
X2448712Y4663795D01*
X2449626Y4686300D01*
X2448712Y4708804D01*
X2445816Y4731105D01*
X2441092Y4753152D01*
X2434488Y4774641D01*
X2426106Y4795570D01*
X2415946Y4815636D01*
X2404160Y4834839D01*
X2390749Y4852924D01*
X2375916Y4869840D01*
X2359660Y4885385D01*
X2342134Y4899558D01*
X2328113Y4909007D01*
X2325166Y4912106D01*
X2323744Y4916170D01*
X2324100Y4920437D01*
X2326182Y4924145D01*
X2329637Y4926685D01*
X2333802Y4927600D01*
X2548483Y4927600D01*
X2552395Y4926838D01*
X2555697Y4924602D01*
X2628188Y4852111D01*
X2629916Y4851400D01*
X4355084Y4851400D01*
X4356811Y4852111D01*
X4429302Y4924602D01*
X4432604Y4926838D01*
X4436516Y4927600D01*
X4648200Y4927600D01*
X5233060Y5512460D01*
X5236413Y5514695D01*
X5240324Y5515406D01*
X5244287Y5514594D01*
X5247589Y5512308D01*
X5249722Y5508904D01*
X5255158Y5494782D01*
X5262981Y5479389D01*
X5272430Y5464860D01*
X5283301Y5451449D01*
X5295544Y5439206D01*
X5308955Y5428335D01*
X5323484Y5418886D01*
X5338876Y5411063D01*
X5355031Y5404866D01*
X5371744Y5400344D01*
X5388813Y5397652D01*
X5406085Y5396738D01*
X5423357Y5397652D01*
X5440426Y5400344D01*
X5457139Y5404866D01*
X5473293Y5411063D01*
X5488736Y5418886D01*
X5503214Y5428335D01*
X5516676Y5439206D01*
X5528868Y5451449D01*
X5539790Y5464860D01*
X5549188Y5479389D01*
X5557062Y5494782D01*
X5563260Y5510936D01*
X5567730Y5527649D01*
X5570423Y5544718D01*
X5571337Y5562244D01*
X5571337Y5701741D01*
X5570423Y5719267D01*
X5567730Y5736336D01*
X5563260Y5753049D01*
X5557062Y5769203D01*
X5549188Y5784596D01*
X5539740Y5799175D01*
X5538216Y5803188D01*
X5538520Y5807506D01*
X5540603Y5811316D01*
X5544058Y5813907D01*
X5548274Y5814822D01*
X5683910Y5814822D01*
X5688177Y5813907D01*
X5691632Y5811316D01*
X5693664Y5807506D01*
X5693968Y5803188D01*
X5692444Y5799175D01*
X5682996Y5784596D01*
X5675172Y5769203D01*
X5668975Y5753049D01*
X5664504Y5736336D01*
X5662422Y5723331D01*
X5769762Y5723331D01*
X5769762Y5804662D01*
X5770524Y5808573D01*
X5772708Y5811875D01*
X5776010Y5814060D01*
X5779922Y5814822D01*
X5872276Y5814822D01*
X5876188Y5814060D01*
X5879490Y5811875D01*
X5881674Y5808573D01*
X5882436Y5804662D01*
X5882436Y5723331D01*
X5989777Y5723331D01*
X5987745Y5736336D01*
X5983274Y5753049D01*
X5977077Y5769203D01*
X5969203Y5784596D01*
X5959754Y5799175D01*
X5958230Y5803188D01*
X5958535Y5807506D01*
X5960618Y5811316D01*
X5964072Y5813907D01*
X5968288Y5814822D01*
X6103924Y5814822D01*
X6108141Y5813907D01*
X6111595Y5811316D01*
X6113678Y5807506D01*
X6113983Y5803188D01*
X6112459Y5799175D01*
X6103010Y5784596D01*
X6095136Y5769203D01*
X6088938Y5753049D01*
X6084468Y5736336D01*
X6082385Y5723331D01*
X6189726Y5723331D01*
X6189726Y5804662D01*
X6190538Y5808573D01*
X6192723Y5811875D01*
X6196025Y5814060D01*
X6199886Y5814822D01*
X6247993Y5814822D01*
X6258610Y5815685D01*
X6271412Y5818936D01*
X6280454Y5820359D01*
X6289649Y5822848D01*
X6293358Y5823153D01*
X6296914Y5822086D01*
X6299860Y5819851D01*
X6301790Y5816650D01*
X6302451Y5813044D01*
X6302451Y5723331D01*
X6409791Y5723331D01*
X6407708Y5736336D01*
X6403238Y5753049D01*
X6397040Y5769203D01*
X6389217Y5784596D01*
X6384645Y5791657D01*
X6383121Y5795619D01*
X6383324Y5799836D01*
X6385255Y5803595D01*
X6388557Y5806236D01*
X6392621Y5807354D01*
X6396786Y5806694D01*
X6400342Y5804357D01*
X6497878Y5706821D01*
X6500063Y5703519D01*
X6500876Y5699658D01*
X6500876Y5562244D01*
X6501790Y5544718D01*
X6504482Y5527649D01*
X6508953Y5510936D01*
X6515150Y5494782D01*
X6523024Y5479389D01*
X6532422Y5464860D01*
X6543294Y5451449D01*
X6555536Y5439206D01*
X6568998Y5428335D01*
X6583476Y5418886D01*
X6598920Y5411063D01*
X6615074Y5404866D01*
X6631736Y5400344D01*
X6648856Y5397652D01*
X6666128Y5396738D01*
X6683400Y5397652D01*
X6700469Y5400344D01*
X6717182Y5404866D01*
X6733336Y5411063D01*
X6748729Y5418886D01*
X6763410Y5428437D01*
X6766661Y5430215D01*
X6770319Y5430672D01*
X6773925Y5429808D01*
X6776974Y5427726D01*
X6791502Y5413197D01*
X6793738Y5409895D01*
X6794500Y5405983D01*
X6794500Y5144617D01*
X6793585Y5140452D01*
X6791096Y5136997D01*
X6787388Y5134914D01*
X6783120Y5134508D01*
X6779107Y5135930D01*
X6773367Y5139385D01*
X6758279Y5146243D01*
X6742531Y5151374D01*
X6726275Y5154676D01*
X6709765Y5156098D01*
X6693153Y5155590D01*
X6676745Y5153253D01*
X6660743Y5149037D01*
X6645249Y5143042D01*
X6630619Y5135270D01*
X6616903Y5125923D01*
X6604355Y5115052D01*
X6593179Y5102860D01*
X6583425Y5089448D01*
X6575247Y5074970D01*
X6568795Y5059730D01*
X6564122Y5043830D01*
X6561328Y5027472D01*
X6560362Y5010912D01*
X6561328Y4994351D01*
X6564122Y4977993D01*
X6568795Y4962093D01*
X6575247Y4946853D01*
X6583425Y4932375D01*
X6593179Y4918964D01*
X6604355Y4906772D01*
X6616903Y4895900D01*
X6630619Y4886553D01*
X6645249Y4878781D01*
X6660743Y4872786D01*
X6676745Y4868570D01*
X6693153Y4866233D01*
X6709765Y4865725D01*
X6726275Y4867148D01*
X6742531Y4870450D01*
X6758279Y4875580D01*
X6773367Y4882438D01*
X6779107Y4885893D01*
X6783120Y4887315D01*
X6787388Y4886909D01*
X6791096Y4884826D01*
X6793585Y4881372D01*
X6794500Y4877206D01*
X6794500Y4794605D01*
X6793585Y4790440D01*
X6791096Y4786985D01*
X6787388Y4784902D01*
X6783120Y4784496D01*
X6779107Y4785918D01*
X6773367Y4789373D01*
X6758279Y4796231D01*
X6742531Y4801362D01*
X6726275Y4804664D01*
X6709765Y4806086D01*
X6693153Y4805578D01*
X6676745Y4803241D01*
X6660743Y4799025D01*
X6645249Y4793030D01*
X6630619Y4785258D01*
X6616903Y4775911D01*
X6604355Y4765040D01*
X6593179Y4752848D01*
X6583425Y4739436D01*
X6575247Y4724958D01*
X6568795Y4709718D01*
X6564122Y4693818D01*
X6561328Y4677460D01*
X6560362Y4660900D01*
X6561328Y4644339D01*
X6564122Y4627981D01*
X6568795Y4612081D01*
X6575247Y4596841D01*
X6583425Y4582363D01*
X6593179Y4568952D01*
X6604355Y4556760D01*
X6616903Y4545888D01*
X6630619Y4536541D01*
X6645249Y4528769D01*
X6660743Y4522774D01*
X6676745Y4518558D01*
X6693153Y4516221D01*
X6709765Y4515713D01*
X6726275Y4517136D01*
X6742531Y4520438D01*
X6758279Y4525568D01*
X6773367Y4532426D01*
X6779107Y4535881D01*
X6783120Y4537303D01*
X6787388Y4536897D01*
X6791096Y4534814D01*
X6793585Y4531360D01*
X6794500Y4527194D01*
X6794500Y4074261D01*
X6793738Y4070350D01*
X6791858Y4067556D01*
X6793738Y4064711D01*
X6794500Y4060850D01*
X6794500Y3928465D01*
X6793738Y3924604D01*
X6791858Y3921760D01*
X6793738Y3918965D01*
X6794500Y3915054D01*
X6794500Y3724960D01*
X6793738Y3721049D01*
X6791502Y3717747D01*
X6788251Y3715562D01*
X6784340Y3714800D01*
X6738315Y3714800D01*
X6734352Y3715613D01*
X6731000Y3717848D01*
X6724192Y3724808D01*
X6709054Y3737610D01*
X6692747Y3748887D01*
X6675424Y3758539D01*
X6657238Y3766464D01*
X6638340Y3772560D01*
X6618986Y3776827D01*
X6599326Y3779265D01*
X6579463Y3779723D01*
X6559702Y3778300D01*
X6540144Y3774948D01*
X6521043Y3769715D01*
X6502501Y3762705D01*
X6484721Y3753916D01*
X6467856Y3743451D01*
X6452108Y3731412D01*
X6437579Y3717899D01*
X6424422Y3703065D01*
X6412788Y3687013D01*
X6402730Y3669944D01*
X6394348Y3651961D01*
X6387795Y3633215D01*
X6383020Y3613962D01*
X6380175Y3594354D01*
X6379210Y3574542D01*
X6380175Y3554729D01*
X6383020Y3535121D01*
X6387795Y3515868D01*
X6394348Y3497122D01*
X6402730Y3479139D01*
X6412788Y3462070D01*
X6424422Y3446018D01*
X6437579Y3431184D01*
X6452108Y3417671D01*
X6467856Y3405632D01*
X6484721Y3395167D01*
X6502501Y3386378D01*
X6521043Y3379368D01*
X6540144Y3374136D01*
X6559702Y3370783D01*
X6579463Y3369360D01*
X6599326Y3369818D01*
X6618986Y3372256D01*
X6638340Y3376523D01*
X6657238Y3382619D01*
X6675424Y3390544D01*
X6692747Y3400196D01*
X6709054Y3411474D01*
X6724192Y3424275D01*
X6731000Y3431235D01*
X6734352Y3433470D01*
X6738315Y3434283D01*
X6784340Y3434283D01*
X6788251Y3433521D01*
X6791502Y3431336D01*
X6793738Y3428034D01*
X6794500Y3424123D01*
X6794500Y2133600D01*
X7045502Y1882597D01*
X7047738Y1879295D01*
X7048500Y1875383D01*
X7048500Y1477416D01*
X7047738Y1473504D01*
X7045502Y1470202D01*
X7036663Y1461363D01*
X7033310Y1459128D01*
X7029399Y1458366D01*
X7025436Y1459179D01*
X7022185Y1461465D01*
X7020001Y1464818D01*
X7019290Y1468780D01*
X7020204Y1472692D01*
X7020966Y1474419D01*
X6903161Y1474419D01*
X6903161Y1356360D01*
X6902399Y1352448D01*
X6900164Y1349197D01*
X6896862Y1346962D01*
X6893001Y1346200D01*
X6866381Y1346200D01*
X6864248Y1346403D01*
X6856984Y1347978D01*
X6836918Y1350365D01*
X6816750Y1350822D01*
X6796633Y1349400D01*
X6776466Y1346200D01*
X6750608Y1346200D01*
X6746748Y1346962D01*
X6743446Y1349197D01*
X6741210Y1352448D01*
X6740448Y1356360D01*
X6740448Y1474419D01*
X6622745Y1474419D01*
X6625437Y1467612D01*
X6634581Y1449578D01*
X6645351Y1432509D01*
X6657644Y1416558D01*
X6671411Y1401775D01*
X6686499Y1388364D01*
X6702755Y1376426D01*
X6720078Y1366062D01*
X6724345Y1363218D01*
X6726377Y1359916D01*
X6726986Y1356055D01*
X6726123Y1352245D01*
X6723888Y1349044D01*
X6720636Y1346962D01*
X6716826Y1346200D01*
X6506311Y1346200D01*
X6501993Y1347165D01*
X6498488Y1349908D01*
X6496456Y1353870D01*
X6496354Y1358341D01*
X6498132Y1362405D01*
X6501536Y1365300D01*
X6512204Y1371041D01*
X6529019Y1382217D01*
X6544716Y1394917D01*
X6559143Y1408988D01*
X6572199Y1424381D01*
X6583730Y1440942D01*
X6593687Y1458468D01*
X6600850Y1474419D01*
X6483045Y1474419D01*
X6483045Y1356360D01*
X6482283Y1352448D01*
X6480048Y1349197D01*
X6476746Y1346962D01*
X6472885Y1346200D01*
X6446266Y1346200D01*
X6444132Y1346403D01*
X6436868Y1347978D01*
X6416802Y1350365D01*
X6396634Y1350822D01*
X6376517Y1349400D01*
X6356350Y1346200D01*
X6330492Y1346200D01*
X6326632Y1346962D01*
X6323330Y1349197D01*
X6321094Y1352448D01*
X6320332Y1356360D01*
X6320332Y1474419D01*
X6202629Y1474419D01*
X6205321Y1467612D01*
X6214465Y1449578D01*
X6225235Y1432509D01*
X6237528Y1416558D01*
X6251295Y1401775D01*
X6266383Y1388364D01*
X6282639Y1376426D01*
X6299962Y1366062D01*
X6304229Y1363218D01*
X6306261Y1359916D01*
X6306870Y1356055D01*
X6306007Y1352245D01*
X6303772Y1349044D01*
X6300520Y1346962D01*
X6296710Y1346200D01*
X6083554Y1346200D01*
X6079185Y1347165D01*
X6075680Y1349908D01*
X6073698Y1353870D01*
X6073597Y1358341D01*
X6075375Y1362405D01*
X6078728Y1365300D01*
X6091326Y1372057D01*
X6108141Y1383233D01*
X6123838Y1395933D01*
X6138265Y1410004D01*
X6151321Y1425397D01*
X6162852Y1441958D01*
X6172809Y1459484D01*
X6179972Y1475435D01*
X6062167Y1475435D01*
X6062167Y1356360D01*
X6061405Y1352448D01*
X6059170Y1349197D01*
X6055868Y1346962D01*
X6052007Y1346200D01*
X6030112Y1346200D01*
X6027978Y1346403D01*
X6015990Y1348994D01*
X5995924Y1351381D01*
X5975756Y1351838D01*
X5955639Y1350416D01*
X5930950Y1346200D01*
X5909614Y1346200D01*
X5905754Y1346962D01*
X5902452Y1349197D01*
X5900216Y1352448D01*
X5899454Y1356360D01*
X5899454Y1475435D01*
X5781751Y1475435D01*
X5784443Y1468628D01*
X5793587Y1450594D01*
X5804357Y1433525D01*
X5816650Y1417574D01*
X5830417Y1402791D01*
X5845505Y1389380D01*
X5861761Y1377442D01*
X5879084Y1367078D01*
X5882335Y1365504D01*
X5885484Y1363218D01*
X5887466Y1359916D01*
X5888126Y1356055D01*
X5887262Y1352245D01*
X5885027Y1349044D01*
X5881776Y1346962D01*
X5877966Y1346200D01*
X5663438Y1346200D01*
X5659069Y1347165D01*
X5655564Y1349908D01*
X5653582Y1353870D01*
X5653481Y1358341D01*
X5655259Y1362405D01*
X5658612Y1365300D01*
X5671210Y1372057D01*
X5688025Y1383233D01*
X5703722Y1395933D01*
X5718149Y1410004D01*
X5731205Y1425397D01*
X5742736Y1441958D01*
X5752693Y1459484D01*
X5759856Y1475435D01*
X5642051Y1475435D01*
X5642051Y1356360D01*
X5641289Y1352448D01*
X5639054Y1349197D01*
X5635752Y1346962D01*
X5631891Y1346200D01*
X5609996Y1346200D01*
X5607862Y1346403D01*
X5595874Y1348994D01*
X5575808Y1351381D01*
X5555640Y1351838D01*
X5535523Y1350416D01*
X5510834Y1346200D01*
X5489498Y1346200D01*
X5485638Y1346962D01*
X5482336Y1349197D01*
X5480100Y1352448D01*
X5479338Y1356360D01*
X5479338Y1475435D01*
X5361635Y1475435D01*
X5364327Y1468628D01*
X5373471Y1450594D01*
X5384241Y1433525D01*
X5396534Y1417574D01*
X5410301Y1402791D01*
X5425389Y1389380D01*
X5441645Y1377442D01*
X5458968Y1367078D01*
X5462219Y1365504D01*
X5465368Y1363218D01*
X5467350Y1359916D01*
X5468010Y1356055D01*
X5467146Y1352245D01*
X5464911Y1349044D01*
X5461660Y1346962D01*
X5457850Y1346200D01*
X5015077Y1346200D01*
X5010759Y1347165D01*
X5007254Y1349908D01*
X5005222Y1353870D01*
X5005120Y1358341D01*
X5006898Y1362405D01*
X5010302Y1365300D01*
X5020970Y1371041D01*
X5037785Y1382217D01*
X5053482Y1394917D01*
X5067909Y1408988D01*
X5080965Y1424381D01*
X5092496Y1440942D01*
X5102453Y1458468D01*
X5109616Y1474419D01*
X4991811Y1474419D01*
X4991811Y1356360D01*
X4991049Y1352448D01*
X4988814Y1349197D01*
X4985512Y1346962D01*
X4981651Y1346200D01*
X4955032Y1346200D01*
X4952898Y1346403D01*
X4945634Y1347978D01*
X4925568Y1350365D01*
X4905400Y1350822D01*
X4885283Y1349400D01*
X4865116Y1346200D01*
X4839258Y1346200D01*
X4835398Y1346962D01*
X4832096Y1349197D01*
X4829860Y1352448D01*
X4829098Y1356360D01*
X4829098Y1474419D01*
X4711395Y1474419D01*
X4714087Y1467612D01*
X4723231Y1449578D01*
X4734001Y1432509D01*
X4746294Y1416558D01*
X4760061Y1401775D01*
X4775149Y1388364D01*
X4791405Y1376426D01*
X4808728Y1366062D01*
X4812995Y1363218D01*
X4815027Y1359916D01*
X4815636Y1356055D01*
X4814773Y1352245D01*
X4812538Y1349044D01*
X4809286Y1346962D01*
X4805476Y1346200D01*
X4594961Y1346200D01*
X4590643Y1347165D01*
X4587138Y1349908D01*
X4585106Y1353870D01*
X4585004Y1358341D01*
X4586782Y1362405D01*
X4590186Y1365300D01*
X4600854Y1371041D01*
X4617669Y1382217D01*
X4633366Y1394917D01*
X4647793Y1408988D01*
X4660849Y1424381D01*
X4672380Y1440942D01*
X4682337Y1458468D01*
X4689500Y1474419D01*
X4571695Y1474419D01*
X4571695Y1356360D01*
X4570933Y1352448D01*
X4568698Y1349197D01*
X4565396Y1346962D01*
X4561535Y1346200D01*
X4534916Y1346200D01*
X4532782Y1346403D01*
X4525518Y1347978D01*
X4505452Y1350365D01*
X4485284Y1350822D01*
X4465167Y1349400D01*
X4445000Y1346200D01*
X4419142Y1346200D01*
X4415282Y1346962D01*
X4411980Y1349197D01*
X4409744Y1352448D01*
X4408982Y1356360D01*
X4408982Y1474419D01*
X4291279Y1474419D01*
X4293971Y1467612D01*
X4303115Y1449578D01*
X4313885Y1432509D01*
X4326178Y1416558D01*
X4339945Y1401775D01*
X4355033Y1388364D01*
X4371289Y1376426D01*
X4388612Y1366062D01*
X4392879Y1363218D01*
X4394911Y1359916D01*
X4395520Y1356055D01*
X4394657Y1352245D01*
X4392422Y1349044D01*
X4389170Y1346962D01*
X4385360Y1346200D01*
X4172204Y1346200D01*
X4167835Y1347165D01*
X4164329Y1349908D01*
X4162348Y1353870D01*
X4162247Y1358341D01*
X4164025Y1362405D01*
X4167378Y1365300D01*
X4179976Y1372057D01*
X4196791Y1383233D01*
X4212488Y1395933D01*
X4226915Y1410004D01*
X4239971Y1425397D01*
X4251502Y1441958D01*
X4261459Y1459484D01*
X4268622Y1475435D01*
X4150817Y1475435D01*
X4150817Y1356360D01*
X4150055Y1352448D01*
X4147820Y1349197D01*
X4144518Y1346962D01*
X4140657Y1346200D01*
X4118762Y1346200D01*
X4116628Y1346403D01*
X4104640Y1348994D01*
X4084574Y1351381D01*
X4064406Y1351838D01*
X4044289Y1350416D01*
X4019600Y1346200D01*
X3998264Y1346200D01*
X3994404Y1346962D01*
X3991101Y1349197D01*
X3988866Y1352448D01*
X3988104Y1356360D01*
X3988104Y1475435D01*
X3870401Y1475435D01*
X3873093Y1468628D01*
X3882237Y1450594D01*
X3893007Y1433525D01*
X3905300Y1417574D01*
X3919067Y1402791D01*
X3934155Y1389380D01*
X3950411Y1377442D01*
X3967734Y1367078D01*
X3970985Y1365504D01*
X3974134Y1363218D01*
X3976115Y1359916D01*
X3976776Y1356055D01*
X3975912Y1352245D01*
X3973677Y1349044D01*
X3970426Y1346962D01*
X3966616Y1346200D01*
X3752087Y1346200D01*
X3747719Y1347165D01*
X3744214Y1349908D01*
X3742232Y1353870D01*
X3742131Y1358341D01*
X3743909Y1362405D01*
X3747262Y1365300D01*
X3759860Y1372057D01*
X3776675Y1383233D01*
X3792372Y1395933D01*
X3806799Y1410004D01*
X3819855Y1425397D01*
X3831386Y1441958D01*
X3841343Y1459484D01*
X3848506Y1475435D01*
X3730701Y1475435D01*
X3730701Y1356360D01*
X3729939Y1352448D01*
X3727704Y1349197D01*
X3724401Y1346962D01*
X3720541Y1346200D01*
X3698646Y1346200D01*
X3696512Y1346403D01*
X3684524Y1348994D01*
X3664458Y1351381D01*
X3644290Y1351838D01*
X3624173Y1350416D01*
X3599484Y1346200D01*
X3578148Y1346200D01*
X3574287Y1346962D01*
X3570986Y1349197D01*
X3568750Y1352448D01*
X3567988Y1356360D01*
X3567988Y1475435D01*
X3450285Y1475435D01*
X3452977Y1468628D01*
X3462121Y1450594D01*
X3472891Y1433525D01*
X3485184Y1417574D01*
X3498951Y1402791D01*
X3514039Y1389380D01*
X3530295Y1377442D01*
X3547618Y1367078D01*
X3550869Y1365504D01*
X3554018Y1363218D01*
X3556000Y1359916D01*
X3556660Y1356055D01*
X3555796Y1352245D01*
X3553561Y1349044D01*
X3550310Y1346962D01*
X3546500Y1346200D01*
X3103727Y1346200D01*
X3099409Y1347165D01*
X3095904Y1349908D01*
X3093872Y1353870D01*
X3093770Y1358341D01*
X3095548Y1362405D01*
X3098952Y1365300D01*
X3109620Y1371041D01*
X3126435Y1382217D01*
X3142132Y1394917D01*
X3156559Y1408988D01*
X3169615Y1424381D01*
X3181146Y1440942D01*
X3191103Y1458468D01*
X3198266Y1474419D01*
X3080461Y1474419D01*
X3080461Y1356360D01*
X3079699Y1352448D01*
X3077464Y1349197D01*
X3074162Y1346962D01*
X3070301Y1346200D01*
X3043682Y1346200D01*
X3041548Y1346403D01*
X3034284Y1347978D01*
X3014218Y1350365D01*
X2994050Y1350822D01*
X2973933Y1349400D01*
X2953766Y1346200D01*
X2927908Y1346200D01*
X2924048Y1346962D01*
X2920746Y1349197D01*
X2918510Y1352448D01*
X2917748Y1356360D01*
X2917748Y1474419D01*
X2800045Y1474419D01*
X2802737Y1467612D01*
X2811881Y1449578D01*
X2822651Y1432509D01*
X2834944Y1416558D01*
X2848711Y1401775D01*
X2863799Y1388364D01*
X2880055Y1376426D01*
X2897378Y1366062D01*
X2901645Y1363218D01*
X2903677Y1359916D01*
X2904286Y1356055D01*
X2903423Y1352245D01*
X2901188Y1349044D01*
X2897936Y1346962D01*
X2894126Y1346200D01*
X2683611Y1346200D01*
X2679293Y1347165D01*
X2675788Y1349908D01*
X2673756Y1353870D01*
X2673654Y1358341D01*
X2675432Y1362405D01*
X2678836Y1365300D01*
X2689504Y1371041D01*
X2706319Y1382217D01*
X2722016Y1394917D01*
X2736443Y1408988D01*
X2749499Y1424381D01*
X2761030Y1440942D01*
X2770987Y1458468D01*
X2778150Y1474419D01*
X2660345Y1474419D01*
X2660345Y1356360D01*
X2659583Y1352448D01*
X2657348Y1349197D01*
X2654046Y1346962D01*
X2650185Y1346200D01*
X2623566Y1346200D01*
X2621432Y1346403D01*
X2614168Y1347978D01*
X2594102Y1350365D01*
X2573934Y1350822D01*
X2553817Y1349400D01*
X2533650Y1346200D01*
X2507792Y1346200D01*
X2503932Y1346962D01*
X2500630Y1349197D01*
X2498394Y1352448D01*
X2497632Y1356360D01*
X2497632Y1474419D01*
X2379929Y1474419D01*
X2382621Y1467612D01*
X2391765Y1449578D01*
X2402535Y1432509D01*
X2414828Y1416558D01*
X2428595Y1401775D01*
X2443683Y1388364D01*
X2459939Y1376426D01*
X2477262Y1366062D01*
X2481529Y1363218D01*
X2483561Y1359916D01*
X2484170Y1356055D01*
X2483307Y1352245D01*
X2481072Y1349044D01*
X2477820Y1346962D01*
X2474010Y1346200D01*
X2260854Y1346200D01*
X2256485Y1347165D01*
X2252980Y1349908D01*
X2250998Y1353870D01*
X2250897Y1358341D01*
X2252675Y1362405D01*
X2256028Y1365300D01*
X2268626Y1372057D01*
X2285441Y1383233D01*
X2301138Y1395933D01*
X2315565Y1410004D01*
X2328621Y1425397D01*
X2340152Y1441958D01*
X2350109Y1459484D01*
X2357272Y1475435D01*
X2239467Y1475435D01*
X2239467Y1356360D01*
X2238705Y1352448D01*
X2236470Y1349197D01*
X2233168Y1346962D01*
X2229307Y1346200D01*
X2207412Y1346200D01*
X2205278Y1346403D01*
X2193290Y1348994D01*
X2173224Y1351381D01*
X2153056Y1351838D01*
X2132939Y1350416D01*
X2108250Y1346200D01*
X2086914Y1346200D01*
X2083054Y1346962D01*
X2079752Y1349197D01*
X2077516Y1352448D01*
X2076754Y1356360D01*
X2076754Y1475435D01*
X1959051Y1475435D01*
X1961743Y1468628D01*
X1970887Y1450594D01*
X1981657Y1433525D01*
X1993950Y1417574D01*
X2007717Y1402791D01*
X2022805Y1389380D01*
X2039061Y1377442D01*
X2056384Y1367078D01*
X2059635Y1365504D01*
X2062784Y1363218D01*
X2064766Y1359916D01*
X2065426Y1356055D01*
X2064562Y1352245D01*
X2062327Y1349044D01*
X2059076Y1346962D01*
X2055266Y1346200D01*
X1840738Y1346200D01*
X1836369Y1347165D01*
X1832864Y1349908D01*
X1830882Y1353870D01*
X1830781Y1358341D01*
X1832559Y1362405D01*
X1835912Y1365300D01*
X1848510Y1372057D01*
X1865325Y1383233D01*
X1881022Y1395933D01*
X1895449Y1410004D01*
X1908505Y1425397D01*
X1920036Y1441958D01*
X1929993Y1459484D01*
X1937156Y1475435D01*
X1819351Y1475435D01*
X1819351Y1356360D01*
X1818589Y1352448D01*
X1816354Y1349197D01*
X1813052Y1346962D01*
X1809191Y1346200D01*
X1787296Y1346200D01*
X1785162Y1346403D01*
X1773174Y1348994D01*
X1753107Y1351381D01*
X1732940Y1351838D01*
X1712823Y1350416D01*
X1688134Y1346200D01*
G37*

%LPC*%
G36*
X4711395Y1637080D02*
G01*
X4829098Y1637080D01*
X4829098Y1754936D01*
X4826914Y1754124D01*
X4808728Y1745437D01*
X4791405Y1735074D01*
X4775149Y1723136D01*
X4760061Y1709724D01*
X4746294Y1694942D01*
X4734001Y1678990D01*
X4723231Y1661922D01*
X4714087Y1643888D01*
G37*
G36*
X5642051Y1638096D02*
G01*
X5759856Y1638096D01*
X5752693Y1654048D01*
X5742736Y1671574D01*
X5731205Y1688134D01*
X5718149Y1703527D01*
X5703722Y1717598D01*
X5688025Y1730298D01*
X5671210Y1741474D01*
X5653430Y1751025D01*
X5642051Y1755800D01*
G37*
G36*
X3730701Y1638096D02*
G01*
X3848506Y1638096D01*
X3841343Y1654048D01*
X3831386Y1671574D01*
X3819855Y1688134D01*
X3806799Y1703527D01*
X3792372Y1717598D01*
X3776675Y1730298D01*
X3759860Y1741474D01*
X3742080Y1751025D01*
X3730701Y1755800D01*
G37*
G36*
X4150817Y1638096D02*
G01*
X4268622Y1638096D01*
X4261459Y1654048D01*
X4251502Y1671574D01*
X4239971Y1688134D01*
X4226915Y1703527D01*
X4212488Y1717598D01*
X4196791Y1730298D01*
X4179976Y1741474D01*
X4162196Y1751025D01*
X4150817Y1755800D01*
G37*
G36*
X6062167Y1638096D02*
G01*
X6179972Y1638096D01*
X6172809Y1654048D01*
X6162852Y1671574D01*
X6151321Y1688134D01*
X6138265Y1703527D01*
X6123838Y1717598D01*
X6108141Y1730298D01*
X6091326Y1741474D01*
X6073546Y1751025D01*
X6062167Y1755800D01*
G37*
G36*
X2239467Y1638096D02*
G01*
X2357272Y1638096D01*
X2350109Y1654048D01*
X2340152Y1671574D01*
X2328621Y1688134D01*
X2315565Y1703527D01*
X2301138Y1717598D01*
X2285441Y1730298D01*
X2268626Y1741474D01*
X2250846Y1751025D01*
X2239467Y1755800D01*
G37*
G36*
X5781751Y1638096D02*
G01*
X5899454Y1638096D01*
X5899454Y1755952D01*
X5897270Y1755139D01*
X5879084Y1746453D01*
X5861761Y1736089D01*
X5845505Y1724152D01*
X5830417Y1710740D01*
X5816650Y1695957D01*
X5804357Y1680006D01*
X5793587Y1662938D01*
X5784443Y1644904D01*
G37*
G36*
X5361635Y1638096D02*
G01*
X5479338Y1638096D01*
X5479338Y1755952D01*
X5477154Y1755139D01*
X5458968Y1746453D01*
X5441645Y1736089D01*
X5425389Y1724152D01*
X5410301Y1710740D01*
X5396534Y1695957D01*
X5384241Y1680006D01*
X5373471Y1662938D01*
X5364327Y1644904D01*
G37*
G36*
X3450285Y1638096D02*
G01*
X3567988Y1638096D01*
X3567988Y1755952D01*
X3565804Y1755139D01*
X3547618Y1746453D01*
X3530295Y1736089D01*
X3514039Y1724152D01*
X3498951Y1710740D01*
X3485184Y1695957D01*
X3472891Y1680006D01*
X3462121Y1662938D01*
X3452977Y1644904D01*
G37*
G36*
X1538935Y1638096D02*
G01*
X1656638Y1638096D01*
X1656638Y1755952D01*
X1654454Y1755139D01*
X1636268Y1746453D01*
X1618945Y1736089D01*
X1602689Y1724152D01*
X1587601Y1710740D01*
X1573834Y1695957D01*
X1561541Y1680006D01*
X1550771Y1662938D01*
X1541627Y1644904D01*
G37*
G36*
X3870401Y1638096D02*
G01*
X3988104Y1638096D01*
X3988104Y1755952D01*
X3985920Y1755139D01*
X3967734Y1746453D01*
X3950411Y1736089D01*
X3934155Y1724152D01*
X3919067Y1710740D01*
X3905300Y1695957D01*
X3893007Y1680006D01*
X3882237Y1662938D01*
X3873093Y1644904D01*
G37*
G36*
X1959051Y1638096D02*
G01*
X2076754Y1638096D01*
X2076754Y1755952D01*
X2074570Y1755139D01*
X2056384Y1746453D01*
X2039061Y1736089D01*
X2022805Y1724152D01*
X2007717Y1710740D01*
X1993950Y1695957D01*
X1981657Y1680006D01*
X1970887Y1662938D01*
X1961743Y1644904D01*
G37*
G36*
X4560722Y2173376D02*
G01*
X4583277Y2173376D01*
X4605680Y2175306D01*
X4627880Y2179116D01*
X4649673Y2184806D01*
X4670907Y2192274D01*
X4691430Y2201570D01*
X4711090Y2212543D01*
X4729734Y2225141D01*
X4747260Y2239264D01*
X4763516Y2254859D01*
X4778349Y2271776D01*
X4791760Y2289860D01*
X4803546Y2309063D01*
X4813706Y2329129D01*
X4822088Y2350058D01*
X4828692Y2371547D01*
X4833416Y2393594D01*
X4836312Y2415895D01*
X4837226Y2438400D01*
X4836312Y2460904D01*
X4833416Y2483205D01*
X4828692Y2505252D01*
X4822088Y2526741D01*
X4813706Y2547670D01*
X4803546Y2567736D01*
X4791760Y2586939D01*
X4778349Y2605024D01*
X4763516Y2621940D01*
X4747260Y2637485D01*
X4729734Y2651658D01*
X4711090Y2664256D01*
X4691430Y2675229D01*
X4670907Y2684526D01*
X4649673Y2691993D01*
X4627880Y2697683D01*
X4605680Y2701493D01*
X4583277Y2703423D01*
X4560722Y2703423D01*
X4538319Y2701493D01*
X4516120Y2697683D01*
X4494326Y2691993D01*
X4473092Y2684526D01*
X4452569Y2675229D01*
X4432909Y2664256D01*
X4414266Y2651658D01*
X4396740Y2637485D01*
X4380484Y2621940D01*
X4365650Y2605024D01*
X4352239Y2586939D01*
X4340453Y2567736D01*
X4330293Y2547670D01*
X4321911Y2526741D01*
X4315307Y2505252D01*
X4310583Y2483205D01*
X4307738Y2460904D01*
X4306773Y2438400D01*
X4307738Y2415895D01*
X4310583Y2393594D01*
X4315307Y2371547D01*
X4321911Y2350058D01*
X4330293Y2329129D01*
X4340453Y2309063D01*
X4352239Y2289860D01*
X4365650Y2271776D01*
X4380484Y2254859D01*
X4396740Y2239264D01*
X4414266Y2225141D01*
X4432909Y2212543D01*
X4452569Y2201570D01*
X4473092Y2192274D01*
X4494326Y2184806D01*
X4516120Y2179116D01*
X4538319Y2175306D01*
G37*
G36*
X2379929Y1637080D02*
G01*
X2497632Y1637080D01*
X2497632Y1754936D01*
X2495448Y1754124D01*
X2477262Y1745437D01*
X2459939Y1735074D01*
X2443683Y1723136D01*
X2428595Y1709724D01*
X2414828Y1694942D01*
X2402535Y1678990D01*
X2391765Y1661922D01*
X2382621Y1643888D01*
G37*
G36*
X6354470Y2212086D02*
G01*
X6354470Y2303170D01*
X6263386Y2303170D01*
X6265468Y2296820D01*
X6272326Y2281732D01*
X6280912Y2267559D01*
X6291021Y2254402D01*
X6302603Y2242515D01*
X6315456Y2232050D01*
X6329375Y2223058D01*
X6344259Y2215743D01*
G37*
G36*
X2696870Y2212086D02*
G01*
X2696870Y2303170D01*
X2605786Y2303170D01*
X2607868Y2296820D01*
X2614726Y2281732D01*
X2623312Y2267508D01*
X2633421Y2254402D01*
X2645003Y2242515D01*
X2657856Y2231999D01*
X2671775Y2223058D01*
X2686659Y2215743D01*
G37*
G36*
X5494629Y2212086D02*
G01*
X5504840Y2215743D01*
X5519724Y2223058D01*
X5533644Y2232050D01*
X5546496Y2242515D01*
X5558078Y2254402D01*
X5568188Y2267559D01*
X5576773Y2281732D01*
X5583631Y2296820D01*
X5585714Y2303170D01*
X5494629Y2303170D01*
G37*
G36*
X3742029Y2212086D02*
G01*
X3752240Y2215743D01*
X3767124Y2223058D01*
X3781044Y2231999D01*
X3793896Y2242515D01*
X3805478Y2254402D01*
X3815587Y2267508D01*
X3824173Y2281732D01*
X3831031Y2296820D01*
X3833114Y2303170D01*
X3742029Y2303170D01*
G37*
G36*
X3649370Y2212086D02*
G01*
X3649370Y2303170D01*
X3558286Y2303170D01*
X3560368Y2296820D01*
X3567226Y2281732D01*
X3575812Y2267508D01*
X3585921Y2254402D01*
X3597503Y2242515D01*
X3610356Y2231999D01*
X3624275Y2223058D01*
X3639159Y2215743D01*
G37*
G36*
X6447129Y2212086D02*
G01*
X6457340Y2215743D01*
X6472224Y2223058D01*
X6486144Y2232050D01*
X6498996Y2242515D01*
X6510578Y2254402D01*
X6520688Y2267559D01*
X6529273Y2281732D01*
X6536131Y2296820D01*
X6538214Y2303170D01*
X6447129Y2303170D01*
G37*
G36*
X2789529Y2212086D02*
G01*
X2799740Y2215743D01*
X2814624Y2223058D01*
X2828544Y2231999D01*
X2841396Y2242515D01*
X2852978Y2254402D01*
X2863088Y2267508D01*
X2871673Y2281732D01*
X2878531Y2296820D01*
X2880614Y2303170D01*
X2789529Y2303170D01*
G37*
G36*
X5401970Y2212086D02*
G01*
X5401970Y2303170D01*
X5310886Y2303170D01*
X5312968Y2296820D01*
X5319826Y2281732D01*
X5328412Y2267559D01*
X5338521Y2254402D01*
X5350103Y2242515D01*
X5362956Y2232050D01*
X5376875Y2223058D01*
X5391759Y2215743D01*
G37*
G36*
X2800045Y1637080D02*
G01*
X2917748Y1637080D01*
X2917748Y1754936D01*
X2915564Y1754124D01*
X2897378Y1745437D01*
X2880055Y1735074D01*
X2863799Y1723136D01*
X2848711Y1709724D01*
X2834944Y1694942D01*
X2822651Y1678990D01*
X2811881Y1661922D01*
X2802737Y1643888D01*
G37*
G36*
X4291279Y1637080D02*
G01*
X4408982Y1637080D01*
X4408982Y1754936D01*
X4406798Y1754124D01*
X4388612Y1745437D01*
X4371289Y1735074D01*
X4355033Y1723136D01*
X4339945Y1709724D01*
X4326178Y1694942D01*
X4313885Y1678990D01*
X4303115Y1661922D01*
X4293971Y1643888D01*
G37*
G36*
X2605633Y2395829D02*
G01*
X2696870Y2395829D01*
X2696870Y2452624D01*
X2697480Y2456180D01*
X2699359Y2459329D01*
X2702204Y2461564D01*
X2705658Y2462682D01*
X2709316Y2462530D01*
X2718409Y2460396D01*
X2734919Y2458516D01*
X2751480Y2458516D01*
X2767990Y2460396D01*
X2777083Y2462530D01*
X2780741Y2462682D01*
X2784195Y2461564D01*
X2787040Y2459329D01*
X2788920Y2456180D01*
X2789529Y2452624D01*
X2789529Y2395829D01*
X2880766Y2395829D01*
X2875330Y2409850D01*
X2867558Y2424480D01*
X2858211Y2438196D01*
X2847340Y2450744D01*
X2835148Y2461920D01*
X2826512Y2468219D01*
X2823819Y2471064D01*
X2822448Y2474772D01*
X2822549Y2478684D01*
X2824124Y2482240D01*
X2826969Y2484983D01*
X2828544Y2485999D01*
X2841396Y2496515D01*
X2852978Y2508402D01*
X2863088Y2521508D01*
X2871673Y2535732D01*
X2878531Y2550820D01*
X2883662Y2566568D01*
X2886964Y2582824D01*
X2888386Y2599334D01*
X2887878Y2615946D01*
X2885541Y2632354D01*
X2881325Y2648356D01*
X2875330Y2663850D01*
X2867558Y2678480D01*
X2858211Y2692196D01*
X2847340Y2704744D01*
X2835148Y2715920D01*
X2821736Y2725674D01*
X2807258Y2733852D01*
X2792018Y2740304D01*
X2776118Y2744978D01*
X2759760Y2747772D01*
X2743200Y2748737D01*
X2726639Y2747772D01*
X2710281Y2744978D01*
X2694381Y2740304D01*
X2679141Y2733852D01*
X2664663Y2725674D01*
X2651252Y2715920D01*
X2639060Y2704744D01*
X2628188Y2692196D01*
X2618841Y2678480D01*
X2611069Y2663850D01*
X2605074Y2648356D01*
X2600858Y2632354D01*
X2598521Y2615946D01*
X2598013Y2599334D01*
X2599436Y2582824D01*
X2602738Y2566568D01*
X2607868Y2550820D01*
X2614726Y2535732D01*
X2623312Y2521508D01*
X2633421Y2508402D01*
X2645003Y2496515D01*
X2657856Y2485999D01*
X2659430Y2484983D01*
X2662275Y2482240D01*
X2663850Y2478684D01*
X2663952Y2474772D01*
X2662580Y2471064D01*
X2659888Y2468219D01*
X2651252Y2461920D01*
X2639060Y2450744D01*
X2628188Y2438196D01*
X2618841Y2424480D01*
X2611069Y2409850D01*
G37*
G36*
X3558133Y2395829D02*
G01*
X3649370Y2395829D01*
X3649370Y2452624D01*
X3649979Y2456180D01*
X3651859Y2459329D01*
X3654704Y2461564D01*
X3658158Y2462682D01*
X3661816Y2462530D01*
X3670909Y2460396D01*
X3687419Y2458516D01*
X3703980Y2458516D01*
X3720490Y2460396D01*
X3729583Y2462530D01*
X3733241Y2462682D01*
X3736695Y2461564D01*
X3739540Y2459329D01*
X3741420Y2456180D01*
X3742029Y2452624D01*
X3742029Y2395829D01*
X3833266Y2395829D01*
X3827830Y2409850D01*
X3820058Y2424480D01*
X3810711Y2438196D01*
X3799840Y2450744D01*
X3787648Y2461920D01*
X3779012Y2468219D01*
X3776319Y2471064D01*
X3774948Y2474772D01*
X3775049Y2478684D01*
X3776624Y2482240D01*
X3779469Y2484983D01*
X3781044Y2485999D01*
X3793896Y2496515D01*
X3805478Y2508402D01*
X3815587Y2521508D01*
X3824173Y2535732D01*
X3831031Y2550820D01*
X3836162Y2566568D01*
X3839464Y2582824D01*
X3840886Y2599334D01*
X3840378Y2615946D01*
X3838041Y2632354D01*
X3833825Y2648356D01*
X3827830Y2663850D01*
X3820058Y2678480D01*
X3810711Y2692196D01*
X3799840Y2704744D01*
X3787648Y2715920D01*
X3774236Y2725674D01*
X3759758Y2733852D01*
X3744518Y2740304D01*
X3728618Y2744978D01*
X3712260Y2747772D01*
X3695700Y2748737D01*
X3679139Y2747772D01*
X3662781Y2744978D01*
X3646881Y2740304D01*
X3631641Y2733852D01*
X3617163Y2725674D01*
X3603751Y2715920D01*
X3591560Y2704744D01*
X3580688Y2692196D01*
X3571341Y2678480D01*
X3563569Y2663850D01*
X3557574Y2648356D01*
X3553358Y2632354D01*
X3551021Y2615946D01*
X3550513Y2599334D01*
X3551936Y2582824D01*
X3555237Y2566568D01*
X3560368Y2550820D01*
X3567226Y2535732D01*
X3575812Y2521508D01*
X3585921Y2508402D01*
X3597503Y2496515D01*
X3610356Y2485999D01*
X3611930Y2484983D01*
X3614775Y2482240D01*
X3616350Y2478684D01*
X3616451Y2474772D01*
X3615080Y2471064D01*
X3612387Y2468219D01*
X3603751Y2461920D01*
X3591560Y2450744D01*
X3580688Y2438196D01*
X3571341Y2424480D01*
X3563569Y2409850D01*
G37*
G36*
X6263233Y2395880D02*
G01*
X6354470Y2395880D01*
X6354470Y2452624D01*
X6355080Y2456230D01*
X6356959Y2459329D01*
X6359804Y2461615D01*
X6363258Y2462733D01*
X6366916Y2462530D01*
X6376009Y2460396D01*
X6392519Y2458516D01*
X6409080Y2458516D01*
X6425590Y2460396D01*
X6434683Y2462530D01*
X6438341Y2462733D01*
X6441795Y2461615D01*
X6444640Y2459329D01*
X6446520Y2456230D01*
X6447129Y2452624D01*
X6447129Y2395880D01*
X6538366Y2395880D01*
X6532930Y2409850D01*
X6525158Y2424531D01*
X6515811Y2438196D01*
X6504940Y2450744D01*
X6492748Y2461971D01*
X6484112Y2468219D01*
X6481419Y2471115D01*
X6480048Y2474772D01*
X6480149Y2478684D01*
X6481724Y2482291D01*
X6484569Y2484983D01*
X6486144Y2486050D01*
X6498996Y2496515D01*
X6510578Y2508402D01*
X6520688Y2521559D01*
X6529273Y2535732D01*
X6536131Y2550820D01*
X6541262Y2566619D01*
X6544564Y2582875D01*
X6545986Y2599385D01*
X6545478Y2615946D01*
X6543141Y2632354D01*
X6538925Y2648407D01*
X6532930Y2663850D01*
X6525158Y2678531D01*
X6515811Y2692196D01*
X6504940Y2704744D01*
X6492748Y2715971D01*
X6479336Y2725724D01*
X6464858Y2733852D01*
X6449618Y2740304D01*
X6433718Y2744978D01*
X6417360Y2747822D01*
X6400800Y2748737D01*
X6384239Y2747822D01*
X6367881Y2744978D01*
X6351981Y2740304D01*
X6336741Y2733852D01*
X6322263Y2725724D01*
X6308852Y2715971D01*
X6296660Y2704744D01*
X6285788Y2692196D01*
X6276441Y2678531D01*
X6268669Y2663850D01*
X6262674Y2648407D01*
X6258458Y2632354D01*
X6256121Y2615946D01*
X6255613Y2599385D01*
X6257036Y2582875D01*
X6260338Y2566619D01*
X6265468Y2550820D01*
X6272326Y2535732D01*
X6280912Y2521559D01*
X6291021Y2508402D01*
X6302603Y2496515D01*
X6315456Y2486050D01*
X6317030Y2484983D01*
X6319875Y2482291D01*
X6321450Y2478684D01*
X6321552Y2474772D01*
X6320180Y2471115D01*
X6317488Y2468219D01*
X6308852Y2461971D01*
X6296660Y2450744D01*
X6285788Y2438196D01*
X6276441Y2424531D01*
X6268669Y2409850D01*
G37*
G36*
X5310733Y2395880D02*
G01*
X5401970Y2395880D01*
X5401970Y2452624D01*
X5402580Y2456230D01*
X5404459Y2459329D01*
X5407304Y2461615D01*
X5410758Y2462733D01*
X5414416Y2462530D01*
X5423509Y2460396D01*
X5440019Y2458516D01*
X5456580Y2458516D01*
X5473090Y2460396D01*
X5482183Y2462530D01*
X5485841Y2462733D01*
X5489295Y2461615D01*
X5492140Y2459329D01*
X5494020Y2456230D01*
X5494629Y2452624D01*
X5494629Y2395880D01*
X5585866Y2395880D01*
X5580430Y2409850D01*
X5572658Y2424531D01*
X5563311Y2438196D01*
X5552440Y2450744D01*
X5540248Y2461971D01*
X5531612Y2468219D01*
X5528919Y2471115D01*
X5527548Y2474772D01*
X5527649Y2478684D01*
X5529224Y2482291D01*
X5532069Y2484983D01*
X5533644Y2486050D01*
X5546496Y2496515D01*
X5558078Y2508402D01*
X5568188Y2521559D01*
X5576773Y2535732D01*
X5583631Y2550820D01*
X5588762Y2566619D01*
X5592064Y2582875D01*
X5593486Y2599385D01*
X5592978Y2615946D01*
X5590641Y2632354D01*
X5586425Y2648407D01*
X5580430Y2663850D01*
X5572658Y2678531D01*
X5563311Y2692196D01*
X5552440Y2704744D01*
X5540248Y2715971D01*
X5526836Y2725724D01*
X5512358Y2733852D01*
X5497118Y2740304D01*
X5481218Y2744978D01*
X5464860Y2747822D01*
X5448300Y2748737D01*
X5431739Y2747822D01*
X5415381Y2744978D01*
X5399481Y2740304D01*
X5384241Y2733852D01*
X5369763Y2725724D01*
X5356352Y2715971D01*
X5344160Y2704744D01*
X5333288Y2692196D01*
X5323941Y2678531D01*
X5316169Y2663850D01*
X5310174Y2648407D01*
X5305958Y2632354D01*
X5303621Y2615946D01*
X5303113Y2599385D01*
X5304536Y2582875D01*
X5307838Y2566619D01*
X5312968Y2550820D01*
X5319826Y2535732D01*
X5328412Y2521559D01*
X5338521Y2508402D01*
X5350103Y2496515D01*
X5362956Y2486050D01*
X5364530Y2484983D01*
X5367375Y2482291D01*
X5368950Y2478684D01*
X5369052Y2474772D01*
X5367680Y2471115D01*
X5364988Y2468219D01*
X5356352Y2461971D01*
X5344160Y2450744D01*
X5333288Y2438196D01*
X5323941Y2424531D01*
X5316169Y2409850D01*
G37*
G36*
X5882436Y5406847D02*
G01*
X5893308Y5411063D01*
X5908751Y5418886D01*
X5923229Y5428335D01*
X5936691Y5439206D01*
X5948883Y5451449D01*
X5959805Y5464860D01*
X5969203Y5479389D01*
X5977077Y5494782D01*
X5983274Y5510936D01*
X5987745Y5527649D01*
X5989777Y5540654D01*
X5882436Y5540654D01*
G37*
G36*
X6302451Y5406847D02*
G01*
X6313322Y5411063D01*
X6328714Y5418886D01*
X6343243Y5428335D01*
X6356654Y5439206D01*
X6368897Y5451449D01*
X6379768Y5464860D01*
X6389217Y5479389D01*
X6397040Y5494782D01*
X6403238Y5510936D01*
X6407708Y5527649D01*
X6409791Y5540654D01*
X6302451Y5540654D01*
G37*
G36*
X6622745Y1637080D02*
G01*
X6740448Y1637080D01*
X6740448Y1754936D01*
X6738264Y1754124D01*
X6720078Y1745437D01*
X6702755Y1735074D01*
X6686499Y1723136D01*
X6671411Y1709724D01*
X6657644Y1694942D01*
X6645351Y1678990D01*
X6634581Y1661922D01*
X6625437Y1643888D01*
G37*
G36*
X6189726Y5406847D02*
G01*
X6189726Y5540654D01*
X6082385Y5540654D01*
X6084468Y5527649D01*
X6088938Y5510936D01*
X6095136Y5494782D01*
X6103010Y5479389D01*
X6112408Y5464860D01*
X6123279Y5451449D01*
X6135522Y5439206D01*
X6148984Y5428335D01*
X6163462Y5418886D01*
X6178905Y5411063D01*
G37*
G36*
X6202629Y1637080D02*
G01*
X6320332Y1637080D01*
X6320332Y1754936D01*
X6318148Y1754124D01*
X6299962Y1745437D01*
X6282639Y1735074D01*
X6266383Y1723136D01*
X6251295Y1709724D01*
X6237528Y1694942D01*
X6225235Y1678990D01*
X6214465Y1661922D01*
X6205321Y1643888D01*
G37*
G36*
X5474563Y3369360D02*
G01*
X5494426Y3369818D01*
X5514086Y3372256D01*
X5533440Y3376523D01*
X5552338Y3382619D01*
X5570524Y3390544D01*
X5587847Y3400196D01*
X5604154Y3411474D01*
X5619292Y3424275D01*
X5626100Y3431235D01*
X5629452Y3433470D01*
X5633415Y3434283D01*
X5745480Y3434283D01*
X5749188Y3433572D01*
X5752388Y3431590D01*
X5767324Y3417671D01*
X5783072Y3405632D01*
X5799937Y3395167D01*
X5817717Y3386378D01*
X5836259Y3379368D01*
X5855360Y3374136D01*
X5874918Y3370783D01*
X5894679Y3369360D01*
X5914542Y3369818D01*
X5934202Y3372256D01*
X5953556Y3376523D01*
X5972454Y3382619D01*
X5990640Y3390544D01*
X6007963Y3400196D01*
X6024270Y3411474D01*
X6039408Y3424275D01*
X6053277Y3438448D01*
X6065723Y3453892D01*
X6076594Y3470503D01*
X6085789Y3488029D01*
X6093256Y3506419D01*
X6098946Y3525418D01*
X6102756Y3544874D01*
X6104636Y3564636D01*
X6104636Y3584448D01*
X6102756Y3604209D01*
X6098946Y3623665D01*
X6093256Y3642664D01*
X6085789Y3661054D01*
X6076594Y3678580D01*
X6065723Y3695192D01*
X6053277Y3710635D01*
X6039408Y3724808D01*
X6024270Y3737610D01*
X6007963Y3748887D01*
X5990640Y3758539D01*
X5972454Y3766464D01*
X5953556Y3772560D01*
X5944057Y3774694D01*
X5940450Y3776218D01*
X5937758Y3779012D01*
X5936284Y3782669D01*
X5936284Y3786530D01*
X5937758Y3790187D01*
X5940450Y3792982D01*
X5944057Y3794506D01*
X5953556Y3796639D01*
X5972454Y3802735D01*
X5990640Y3810660D01*
X6007963Y3820312D01*
X6024270Y3831590D01*
X6039408Y3844391D01*
X6053277Y3858564D01*
X6065723Y3874008D01*
X6076594Y3890619D01*
X6085789Y3908145D01*
X6093256Y3926535D01*
X6098946Y3945534D01*
X6102756Y3964990D01*
X6104636Y3984751D01*
X6104636Y4004564D01*
X6102756Y4024325D01*
X6098946Y4043781D01*
X6093256Y4062780D01*
X6085789Y4081170D01*
X6076594Y4098696D01*
X6065723Y4115308D01*
X6053277Y4130751D01*
X6039408Y4144924D01*
X6024270Y4157726D01*
X6007963Y4169003D01*
X5990640Y4178655D01*
X5972454Y4186580D01*
X5953556Y4192676D01*
X5934202Y4196943D01*
X5914542Y4199382D01*
X5894679Y4199839D01*
X5874918Y4198416D01*
X5855360Y4195064D01*
X5836259Y4189831D01*
X5817717Y4182821D01*
X5799937Y4174032D01*
X5783072Y4163568D01*
X5767324Y4151528D01*
X5752795Y4138015D01*
X5739638Y4123182D01*
X5728004Y4107129D01*
X5717946Y4090060D01*
X5709564Y4072077D01*
X5703011Y4053332D01*
X5698236Y4034078D01*
X5695391Y4014470D01*
X5694426Y3994658D01*
X5695391Y3974846D01*
X5698236Y3955237D01*
X5703011Y3935984D01*
X5709564Y3917238D01*
X5717946Y3899255D01*
X5728004Y3882186D01*
X5739638Y3866134D01*
X5752795Y3851300D01*
X5767324Y3837787D01*
X5783072Y3825748D01*
X5799937Y3815283D01*
X5817717Y3806494D01*
X5836259Y3799484D01*
X5854801Y3794404D01*
X5858713Y3792372D01*
X5861354Y3788867D01*
X5862320Y3784600D01*
X5861354Y3780332D01*
X5858713Y3776827D01*
X5854801Y3774795D01*
X5836259Y3769715D01*
X5817717Y3762705D01*
X5799937Y3753916D01*
X5783072Y3743451D01*
X5767324Y3731412D01*
X5752388Y3717493D01*
X5749188Y3715512D01*
X5745480Y3714800D01*
X5633415Y3714800D01*
X5629452Y3715613D01*
X5626100Y3717848D01*
X5619292Y3724808D01*
X5604154Y3737610D01*
X5587847Y3748887D01*
X5570524Y3758539D01*
X5552338Y3766464D01*
X5533440Y3772560D01*
X5514086Y3776827D01*
X5494426Y3779265D01*
X5474563Y3779723D01*
X5454802Y3778300D01*
X5435244Y3774948D01*
X5416143Y3769715D01*
X5397601Y3762705D01*
X5379821Y3753916D01*
X5362956Y3743451D01*
X5347208Y3731412D01*
X5332679Y3717899D01*
X5319522Y3703065D01*
X5307888Y3687013D01*
X5297830Y3669944D01*
X5289448Y3651961D01*
X5282895Y3633215D01*
X5278120Y3613962D01*
X5275275Y3594354D01*
X5274310Y3574542D01*
X5275275Y3554729D01*
X5278120Y3535121D01*
X5282895Y3515868D01*
X5289448Y3497122D01*
X5297830Y3479139D01*
X5307888Y3462070D01*
X5319522Y3446018D01*
X5332679Y3431184D01*
X5347208Y3417671D01*
X5362956Y3405632D01*
X5379821Y3395167D01*
X5397601Y3386378D01*
X5416143Y3379368D01*
X5435244Y3374136D01*
X5454802Y3370783D01*
G37*
G36*
X4382363Y3369360D02*
G01*
X4402226Y3369818D01*
X4421886Y3372256D01*
X4441240Y3376523D01*
X4460138Y3382619D01*
X4478324Y3390544D01*
X4495647Y3400196D01*
X4511954Y3411474D01*
X4527092Y3424275D01*
X4533900Y3431235D01*
X4537252Y3433470D01*
X4541215Y3434283D01*
X4653280Y3434283D01*
X4656988Y3433572D01*
X4660188Y3431590D01*
X4675124Y3417671D01*
X4690872Y3405632D01*
X4707737Y3395167D01*
X4725517Y3386378D01*
X4744059Y3379368D01*
X4763160Y3374136D01*
X4782718Y3370783D01*
X4802479Y3369360D01*
X4822342Y3369818D01*
X4842002Y3372256D01*
X4861356Y3376523D01*
X4880254Y3382619D01*
X4898440Y3390544D01*
X4915763Y3400196D01*
X4932070Y3411474D01*
X4947208Y3424275D01*
X4961077Y3438448D01*
X4973523Y3453892D01*
X4984394Y3470503D01*
X4993589Y3488029D01*
X5001056Y3506419D01*
X5006746Y3525418D01*
X5010556Y3544874D01*
X5012436Y3564636D01*
X5012436Y3584448D01*
X5010556Y3604209D01*
X5006746Y3623665D01*
X5001056Y3642664D01*
X4993589Y3661054D01*
X4984394Y3678580D01*
X4973523Y3695192D01*
X4961077Y3710635D01*
X4947208Y3724808D01*
X4932070Y3737610D01*
X4915763Y3748887D01*
X4898440Y3758539D01*
X4880254Y3766464D01*
X4861356Y3772560D01*
X4851857Y3774694D01*
X4848250Y3776218D01*
X4845558Y3779012D01*
X4844084Y3782669D01*
X4844084Y3786530D01*
X4845558Y3790187D01*
X4848250Y3792982D01*
X4851857Y3794506D01*
X4861356Y3796639D01*
X4880254Y3802735D01*
X4898440Y3810660D01*
X4915763Y3820312D01*
X4932070Y3831590D01*
X4947208Y3844391D01*
X4961077Y3858564D01*
X4973523Y3874008D01*
X4984394Y3890619D01*
X4993589Y3908145D01*
X5001056Y3926535D01*
X5006746Y3945534D01*
X5010556Y3964990D01*
X5012436Y3984751D01*
X5012436Y4004564D01*
X5010556Y4024325D01*
X5006746Y4043781D01*
X5001056Y4062780D01*
X4993589Y4081170D01*
X4984394Y4098696D01*
X4973523Y4115308D01*
X4961077Y4130751D01*
X4947208Y4144924D01*
X4932070Y4157726D01*
X4915763Y4169003D01*
X4898440Y4178655D01*
X4880254Y4186580D01*
X4861356Y4192676D01*
X4842002Y4196943D01*
X4822342Y4199382D01*
X4802479Y4199839D01*
X4782718Y4198416D01*
X4763160Y4195064D01*
X4744059Y4189831D01*
X4725517Y4182821D01*
X4707737Y4174032D01*
X4690872Y4163568D01*
X4675124Y4151528D01*
X4660595Y4138015D01*
X4647438Y4123182D01*
X4635804Y4107129D01*
X4625746Y4090060D01*
X4617364Y4072077D01*
X4610811Y4053332D01*
X4606036Y4034078D01*
X4603191Y4014470D01*
X4602226Y3994658D01*
X4603191Y3974846D01*
X4606036Y3955237D01*
X4610811Y3935984D01*
X4617364Y3917238D01*
X4625746Y3899255D01*
X4635804Y3882186D01*
X4647438Y3866134D01*
X4660595Y3851300D01*
X4675124Y3837787D01*
X4690872Y3825748D01*
X4707737Y3815283D01*
X4725517Y3806494D01*
X4744059Y3799484D01*
X4762601Y3794404D01*
X4766513Y3792372D01*
X4769154Y3788867D01*
X4770120Y3784600D01*
X4769154Y3780332D01*
X4766513Y3776827D01*
X4762601Y3774795D01*
X4744059Y3769715D01*
X4725517Y3762705D01*
X4707737Y3753916D01*
X4690872Y3743451D01*
X4675124Y3731412D01*
X4660188Y3717493D01*
X4656988Y3715512D01*
X4653280Y3714800D01*
X4541215Y3714800D01*
X4537252Y3715613D01*
X4533900Y3717848D01*
X4527092Y3724808D01*
X4511954Y3737610D01*
X4495647Y3748887D01*
X4478324Y3758539D01*
X4460138Y3766464D01*
X4441240Y3772560D01*
X4421886Y3776827D01*
X4402226Y3779265D01*
X4382363Y3779723D01*
X4362602Y3778300D01*
X4343044Y3774948D01*
X4323943Y3769715D01*
X4305350Y3762705D01*
X4287621Y3753916D01*
X4270756Y3743451D01*
X4255008Y3731412D01*
X4240479Y3717899D01*
X4227322Y3703065D01*
X4215688Y3687013D01*
X4205630Y3669944D01*
X4197248Y3651961D01*
X4190695Y3633215D01*
X4185920Y3613962D01*
X4183075Y3594354D01*
X4182110Y3574542D01*
X4183075Y3554729D01*
X4185920Y3535121D01*
X4190695Y3515868D01*
X4197248Y3497122D01*
X4205630Y3479139D01*
X4215688Y3462070D01*
X4227322Y3446018D01*
X4240479Y3431184D01*
X4255008Y3417671D01*
X4270756Y3405632D01*
X4287621Y3395167D01*
X4305350Y3386378D01*
X4323943Y3379368D01*
X4343044Y3374136D01*
X4362602Y3370783D01*
G37*
G36*
X3264763Y3369360D02*
G01*
X3284626Y3369818D01*
X3304286Y3372256D01*
X3323640Y3376523D01*
X3342538Y3382619D01*
X3360724Y3390544D01*
X3378047Y3400196D01*
X3394354Y3411474D01*
X3409492Y3424275D01*
X3416300Y3431235D01*
X3419652Y3433470D01*
X3423615Y3434283D01*
X3535679Y3434283D01*
X3539388Y3433572D01*
X3542588Y3431590D01*
X3557524Y3417671D01*
X3573272Y3405632D01*
X3590137Y3395167D01*
X3607866Y3386378D01*
X3626459Y3379368D01*
X3645560Y3374136D01*
X3665118Y3370783D01*
X3684879Y3369360D01*
X3704742Y3369818D01*
X3724401Y3372256D01*
X3743756Y3376523D01*
X3762654Y3382619D01*
X3780840Y3390544D01*
X3798163Y3400196D01*
X3814470Y3411474D01*
X3829608Y3424275D01*
X3843477Y3438448D01*
X3855923Y3453892D01*
X3866743Y3470503D01*
X3875989Y3488029D01*
X3883456Y3506419D01*
X3889146Y3525418D01*
X3892956Y3544874D01*
X3894836Y3564636D01*
X3894836Y3584448D01*
X3892956Y3604209D01*
X3889146Y3623665D01*
X3883456Y3642664D01*
X3875989Y3661054D01*
X3866743Y3678580D01*
X3855923Y3695192D01*
X3843477Y3710635D01*
X3829608Y3724808D01*
X3814470Y3737610D01*
X3798163Y3748887D01*
X3780840Y3758539D01*
X3762654Y3766464D01*
X3743756Y3772560D01*
X3734257Y3774694D01*
X3730650Y3776218D01*
X3727958Y3779012D01*
X3726484Y3782669D01*
X3726484Y3786530D01*
X3727958Y3790187D01*
X3730650Y3792982D01*
X3734257Y3794506D01*
X3743756Y3796639D01*
X3762654Y3802735D01*
X3780840Y3810660D01*
X3798163Y3820312D01*
X3814470Y3831590D01*
X3829608Y3844391D01*
X3843477Y3858564D01*
X3855923Y3874008D01*
X3866743Y3890619D01*
X3875989Y3908145D01*
X3883456Y3926535D01*
X3889146Y3945534D01*
X3892956Y3964990D01*
X3894836Y3984751D01*
X3894836Y4004564D01*
X3892956Y4024325D01*
X3889146Y4043781D01*
X3883456Y4062780D01*
X3875989Y4081170D01*
X3866743Y4098696D01*
X3855923Y4115308D01*
X3843477Y4130751D01*
X3829608Y4144924D01*
X3814470Y4157726D01*
X3798163Y4169003D01*
X3780840Y4178655D01*
X3762654Y4186580D01*
X3743756Y4192676D01*
X3724401Y4196943D01*
X3704742Y4199382D01*
X3684879Y4199839D01*
X3665118Y4198416D01*
X3645560Y4195064D01*
X3626459Y4189831D01*
X3607866Y4182821D01*
X3590137Y4174032D01*
X3573272Y4163568D01*
X3557524Y4151528D01*
X3542995Y4138015D01*
X3529837Y4123182D01*
X3518204Y4107129D01*
X3508146Y4090060D01*
X3499764Y4072077D01*
X3493211Y4053332D01*
X3488436Y4034078D01*
X3485591Y4014470D01*
X3484626Y3994658D01*
X3485591Y3974846D01*
X3488436Y3955237D01*
X3493211Y3935984D01*
X3499764Y3917238D01*
X3508146Y3899255D01*
X3518204Y3882186D01*
X3529837Y3866134D01*
X3542995Y3851300D01*
X3557524Y3837787D01*
X3573272Y3825748D01*
X3590137Y3815283D01*
X3607866Y3806494D01*
X3626459Y3799484D01*
X3645001Y3794404D01*
X3648913Y3792372D01*
X3651554Y3788867D01*
X3652520Y3784600D01*
X3651554Y3780332D01*
X3648913Y3776827D01*
X3645001Y3774795D01*
X3626459Y3769715D01*
X3607866Y3762705D01*
X3590137Y3753916D01*
X3573272Y3743451D01*
X3557524Y3731412D01*
X3542588Y3717493D01*
X3539388Y3715512D01*
X3535679Y3714800D01*
X3423615Y3714800D01*
X3419652Y3715613D01*
X3416300Y3717848D01*
X3409492Y3724808D01*
X3394354Y3737610D01*
X3378047Y3748887D01*
X3360724Y3758539D01*
X3342538Y3766464D01*
X3323640Y3772560D01*
X3304286Y3776827D01*
X3284626Y3779265D01*
X3264763Y3779723D01*
X3245002Y3778300D01*
X3225444Y3774948D01*
X3206343Y3769715D01*
X3187750Y3762705D01*
X3170021Y3753916D01*
X3153156Y3743451D01*
X3137408Y3731412D01*
X3122879Y3717899D01*
X3109722Y3703065D01*
X3098088Y3687013D01*
X3088030Y3669944D01*
X3079648Y3651961D01*
X3073095Y3633215D01*
X3068320Y3613962D01*
X3065475Y3594354D01*
X3064510Y3574542D01*
X3065475Y3554729D01*
X3068320Y3535121D01*
X3073095Y3515868D01*
X3079648Y3497122D01*
X3088030Y3479139D01*
X3098088Y3462070D01*
X3109722Y3446018D01*
X3122879Y3431184D01*
X3137408Y3417671D01*
X3153156Y3405632D01*
X3170021Y3395167D01*
X3187750Y3386378D01*
X3206343Y3379368D01*
X3225444Y3374136D01*
X3245002Y3370783D01*
G37*
G36*
X2172563Y3369360D02*
G01*
X2192426Y3369818D01*
X2212086Y3372256D01*
X2231440Y3376523D01*
X2250338Y3382619D01*
X2268524Y3390544D01*
X2285847Y3400196D01*
X2302154Y3411474D01*
X2317292Y3424275D01*
X2324100Y3431235D01*
X2327452Y3433470D01*
X2331415Y3434283D01*
X2443480Y3434283D01*
X2447188Y3433572D01*
X2450388Y3431590D01*
X2465324Y3417671D01*
X2481072Y3405632D01*
X2497937Y3395167D01*
X2515666Y3386378D01*
X2534259Y3379368D01*
X2553360Y3374136D01*
X2572918Y3370783D01*
X2592679Y3369360D01*
X2612542Y3369818D01*
X2632202Y3372256D01*
X2651556Y3376523D01*
X2670454Y3382619D01*
X2688640Y3390544D01*
X2705963Y3400196D01*
X2722270Y3411474D01*
X2737408Y3424275D01*
X2751277Y3438448D01*
X2763723Y3453892D01*
X2774543Y3470503D01*
X2783789Y3488029D01*
X2791256Y3506419D01*
X2796946Y3525418D01*
X2800756Y3544874D01*
X2802636Y3564636D01*
X2802636Y3584448D01*
X2800756Y3604209D01*
X2796946Y3623665D01*
X2791256Y3642664D01*
X2783789Y3661054D01*
X2774543Y3678580D01*
X2763723Y3695192D01*
X2751277Y3710635D01*
X2737408Y3724808D01*
X2722270Y3737610D01*
X2705963Y3748887D01*
X2688640Y3758539D01*
X2670454Y3766464D01*
X2651556Y3772560D01*
X2642057Y3774694D01*
X2638450Y3776218D01*
X2635758Y3779012D01*
X2634284Y3782669D01*
X2634284Y3786530D01*
X2635758Y3790187D01*
X2638450Y3792982D01*
X2642057Y3794506D01*
X2651556Y3796639D01*
X2670454Y3802735D01*
X2688640Y3810660D01*
X2705963Y3820312D01*
X2722270Y3831590D01*
X2737408Y3844391D01*
X2751277Y3858564D01*
X2763723Y3874008D01*
X2774543Y3890619D01*
X2783789Y3908145D01*
X2791256Y3926535D01*
X2796946Y3945534D01*
X2800756Y3964990D01*
X2802636Y3984751D01*
X2802636Y4004564D01*
X2800756Y4024325D01*
X2796946Y4043781D01*
X2791256Y4062780D01*
X2783789Y4081170D01*
X2774543Y4098696D01*
X2763723Y4115308D01*
X2751277Y4130751D01*
X2737408Y4144924D01*
X2722270Y4157726D01*
X2705963Y4169003D01*
X2688640Y4178655D01*
X2670454Y4186580D01*
X2651556Y4192676D01*
X2632202Y4196943D01*
X2612542Y4199382D01*
X2592679Y4199839D01*
X2572918Y4198416D01*
X2553360Y4195064D01*
X2534259Y4189831D01*
X2515666Y4182821D01*
X2497937Y4174032D01*
X2481072Y4163568D01*
X2465324Y4151528D01*
X2450795Y4138015D01*
X2437638Y4123182D01*
X2426004Y4107129D01*
X2415946Y4090060D01*
X2407564Y4072077D01*
X2401011Y4053332D01*
X2396236Y4034078D01*
X2393391Y4014470D01*
X2392426Y3994658D01*
X2393391Y3974846D01*
X2396236Y3955237D01*
X2401011Y3935984D01*
X2407564Y3917238D01*
X2415946Y3899255D01*
X2426004Y3882186D01*
X2437638Y3866134D01*
X2450795Y3851300D01*
X2465324Y3837787D01*
X2481072Y3825748D01*
X2497937Y3815283D01*
X2515666Y3806494D01*
X2534259Y3799484D01*
X2552801Y3794404D01*
X2556713Y3792372D01*
X2559354Y3788867D01*
X2560320Y3784600D01*
X2559354Y3780332D01*
X2556713Y3776827D01*
X2552801Y3774795D01*
X2534259Y3769715D01*
X2515666Y3762705D01*
X2497937Y3753916D01*
X2481072Y3743451D01*
X2465324Y3731412D01*
X2450388Y3717493D01*
X2447188Y3715512D01*
X2443480Y3714800D01*
X2331415Y3714800D01*
X2327452Y3715613D01*
X2324100Y3717848D01*
X2317292Y3724808D01*
X2302154Y3737610D01*
X2285847Y3748887D01*
X2268524Y3758539D01*
X2250338Y3766464D01*
X2231440Y3772560D01*
X2212086Y3776827D01*
X2192426Y3779265D01*
X2172563Y3779723D01*
X2152802Y3778300D01*
X2133244Y3774948D01*
X2114143Y3769715D01*
X2095550Y3762705D01*
X2077821Y3753916D01*
X2060956Y3743451D01*
X2045207Y3731412D01*
X2030679Y3717899D01*
X2017522Y3703065D01*
X2005888Y3687013D01*
X1995830Y3669944D01*
X1987448Y3651961D01*
X1980895Y3633215D01*
X1976120Y3613962D01*
X1973275Y3594354D01*
X1972310Y3574542D01*
X1973275Y3554729D01*
X1976120Y3535121D01*
X1980895Y3515868D01*
X1987448Y3497122D01*
X1995830Y3479139D01*
X2005888Y3462070D01*
X2017522Y3446018D01*
X2030679Y3431184D01*
X2045207Y3417671D01*
X2060956Y3405632D01*
X2077821Y3395167D01*
X2095550Y3386378D01*
X2114143Y3379368D01*
X2133244Y3374136D01*
X2152802Y3370783D01*
G37*
G36*
X6903161Y1637080D02*
G01*
X7020966Y1637080D01*
X7013803Y1653032D01*
X7003846Y1670557D01*
X6992315Y1687118D01*
X6979259Y1702511D01*
X6964832Y1716582D01*
X6949135Y1729282D01*
X6932320Y1740458D01*
X6914540Y1750009D01*
X6903161Y1754784D01*
G37*
G36*
X1095349Y3487318D02*
G01*
X1112570Y3490772D01*
X1136396Y3497478D01*
X1159662Y3506063D01*
X1182116Y3516426D01*
X1203706Y3528517D01*
X1224280Y3542284D01*
X1243736Y3557574D01*
X1261922Y3574389D01*
X1278737Y3592576D01*
X1294028Y3611981D01*
X1307795Y3632606D01*
X1319885Y3654196D01*
X1325321Y3665931D01*
X1095349Y3665931D01*
G37*
G36*
X2660345Y1637080D02*
G01*
X2778150Y1637080D01*
X2770987Y1653032D01*
X2761030Y1670557D01*
X2749499Y1687118D01*
X2736443Y1702511D01*
X2722016Y1716582D01*
X2706319Y1729282D01*
X2689504Y1740458D01*
X2671724Y1750009D01*
X2660345Y1754784D01*
G37*
G36*
X4571695Y1637080D02*
G01*
X4689500Y1637080D01*
X4682337Y1653032D01*
X4672380Y1670557D01*
X4660849Y1687118D01*
X4647793Y1702511D01*
X4633366Y1716582D01*
X4617669Y1729282D01*
X4600854Y1740458D01*
X4583074Y1750009D01*
X4571695Y1754784D01*
G37*
G36*
X4991811Y1637080D02*
G01*
X5109616Y1637080D01*
X5102453Y1653032D01*
X5092496Y1670557D01*
X5080965Y1687118D01*
X5067909Y1702511D01*
X5053482Y1716582D01*
X5037785Y1729282D01*
X5020970Y1740458D01*
X5003190Y1750009D01*
X4991811Y1754784D01*
G37*
G36*
X3080461Y1637080D02*
G01*
X3198266Y1637080D01*
X3191103Y1653032D01*
X3181146Y1670557D01*
X3169615Y1687118D01*
X3156559Y1702511D01*
X3142132Y1716582D01*
X3126435Y1729282D01*
X3109620Y1740458D01*
X3091840Y1750009D01*
X3080461Y1754784D01*
G37*
G36*
X6483045Y1637080D02*
G01*
X6600850Y1637080D01*
X6593687Y1653032D01*
X6583730Y1670557D01*
X6572199Y1687118D01*
X6559143Y1702511D01*
X6544716Y1716582D01*
X6529019Y1729282D01*
X6512204Y1740458D01*
X6494424Y1750009D01*
X6483045Y1754784D01*
G37*
G36*
X2253894Y3804310D02*
G01*
X2268524Y3810660D01*
X2285847Y3820312D01*
X2302154Y3831590D01*
X2317292Y3844391D01*
X2331161Y3858564D01*
X2343607Y3874008D01*
X2354427Y3890619D01*
X2363673Y3908145D01*
X2367788Y3918305D01*
X2253894Y3918305D01*
G37*
G36*
X4463694Y3804310D02*
G01*
X4478324Y3810660D01*
X4495647Y3820312D01*
X4511954Y3831590D01*
X4527092Y3844391D01*
X4540961Y3858564D01*
X4553407Y3874008D01*
X4564278Y3890619D01*
X4573473Y3908145D01*
X4577588Y3918305D01*
X4463694Y3918305D01*
G37*
G36*
X5555894Y3804310D02*
G01*
X5570524Y3810660D01*
X5587847Y3820312D01*
X5604154Y3831590D01*
X5619292Y3844391D01*
X5633161Y3858564D01*
X5645607Y3874008D01*
X5656478Y3890619D01*
X5665673Y3908145D01*
X5669788Y3918305D01*
X5555894Y3918305D01*
G37*
G36*
X3346094Y3804310D02*
G01*
X3360724Y3810660D01*
X3378047Y3820312D01*
X3394354Y3831590D01*
X3409492Y3844391D01*
X3423361Y3858564D01*
X3435807Y3874008D01*
X3446627Y3890619D01*
X3455873Y3908145D01*
X3459987Y3918305D01*
X3346094Y3918305D01*
G37*
G36*
X6660794Y3804310D02*
G01*
X6675424Y3810660D01*
X6692747Y3820312D01*
X6709054Y3831590D01*
X6724192Y3844391D01*
X6738061Y3858564D01*
X6750507Y3874008D01*
X6761378Y3890619D01*
X6770573Y3908145D01*
X6774688Y3918305D01*
X6660794Y3918305D01*
G37*
G36*
X6508089Y3804361D02*
G01*
X6508089Y3918305D01*
X6393992Y3918305D01*
X6402730Y3899255D01*
X6412788Y3882186D01*
X6424422Y3866134D01*
X6437579Y3851300D01*
X6452108Y3837787D01*
X6467856Y3825748D01*
X6484721Y3815283D01*
X6502501Y3806494D01*
G37*
G36*
X3193389Y3804361D02*
G01*
X3193389Y3918305D01*
X3079292Y3918305D01*
X3088030Y3899255D01*
X3098088Y3882186D01*
X3109722Y3866134D01*
X3122879Y3851300D01*
X3137408Y3837787D01*
X3153156Y3825748D01*
X3170021Y3815283D01*
X3187750Y3806494D01*
G37*
G36*
X4310989Y3804361D02*
G01*
X4310989Y3918305D01*
X4196892Y3918305D01*
X4205630Y3899255D01*
X4215688Y3882186D01*
X4227322Y3866134D01*
X4240479Y3851300D01*
X4255008Y3837787D01*
X4270756Y3825748D01*
X4287621Y3815283D01*
X4305350Y3806494D01*
G37*
G36*
X5403189Y3804361D02*
G01*
X5403189Y3918305D01*
X5289092Y3918305D01*
X5297830Y3899255D01*
X5307888Y3882186D01*
X5319522Y3866134D01*
X5332679Y3851300D01*
X5347208Y3837787D01*
X5362956Y3825748D01*
X5379821Y3815283D01*
X5397601Y3806494D01*
G37*
G36*
X2101189Y3804361D02*
G01*
X2101189Y3918305D01*
X1987092Y3918305D01*
X1995830Y3899255D01*
X2005888Y3882186D01*
X2017522Y3866134D01*
X2030679Y3851300D01*
X2045207Y3837787D01*
X2060956Y3825748D01*
X2077821Y3815283D01*
X2095550Y3806494D01*
G37*
G36*
X1354277Y3911600D02*
G01*
X1354277Y3933444D01*
X1095349Y3933444D01*
X1095349Y3928668D01*
X1340866Y3928668D01*
X1344879Y3927805D01*
X1348232Y3925468D01*
X1350416Y3922014D01*
G37*
G36*
X1819351Y1638096D02*
G01*
X1937156Y1638096D01*
X1929993Y1654048D01*
X1920036Y1671574D01*
X1908505Y1688134D01*
X1895449Y1703527D01*
X1881022Y1717598D01*
X1865325Y1730298D01*
X1848510Y1741474D01*
X1830730Y1751025D01*
X1819351Y1755800D01*
G37*
G36*
X3346094Y4071010D02*
G01*
X3459987Y4071010D01*
X3455873Y4081170D01*
X3446627Y4098696D01*
X3435807Y4115308D01*
X3423361Y4130751D01*
X3409492Y4144924D01*
X3394354Y4157726D01*
X3378047Y4169003D01*
X3360724Y4178655D01*
X3346094Y4185005D01*
G37*
G36*
X4463694Y4071010D02*
G01*
X4577588Y4071010D01*
X4573473Y4081170D01*
X4564278Y4098696D01*
X4553407Y4115308D01*
X4540961Y4130751D01*
X4527092Y4144924D01*
X4511954Y4157726D01*
X4495647Y4169003D01*
X4478324Y4178655D01*
X4463694Y4185005D01*
G37*
G36*
X2253894Y4071010D02*
G01*
X2367788Y4071010D01*
X2363673Y4081170D01*
X2354427Y4098696D01*
X2343607Y4115308D01*
X2331161Y4130751D01*
X2317292Y4144924D01*
X2302154Y4157726D01*
X2285847Y4169003D01*
X2268524Y4178655D01*
X2253894Y4185005D01*
G37*
G36*
X5555894Y4071010D02*
G01*
X5669788Y4071010D01*
X5665673Y4081170D01*
X5656478Y4098696D01*
X5645607Y4115308D01*
X5633161Y4130751D01*
X5619292Y4144924D01*
X5604154Y4157726D01*
X5587847Y4169003D01*
X5570524Y4178655D01*
X5555894Y4185005D01*
G37*
G36*
X6660794Y4071010D02*
G01*
X6774688Y4071010D01*
X6770573Y4081170D01*
X6761378Y4098696D01*
X6750507Y4115308D01*
X6738061Y4130751D01*
X6724192Y4144924D01*
X6709054Y4157726D01*
X6692747Y4169003D01*
X6675424Y4178655D01*
X6660794Y4185005D01*
G37*
G36*
X6393992Y4071010D02*
G01*
X6508089Y4071010D01*
X6508089Y4184954D01*
X6502450Y4182821D01*
X6484721Y4174032D01*
X6467856Y4163568D01*
X6452108Y4151528D01*
X6437579Y4138015D01*
X6424422Y4123182D01*
X6412788Y4107129D01*
X6402730Y4090060D01*
G37*
G36*
X1987092Y4071010D02*
G01*
X2101189Y4071010D01*
X2101189Y4184954D01*
X2095550Y4182821D01*
X2077821Y4174032D01*
X2060956Y4163568D01*
X2045207Y4151528D01*
X2030679Y4138015D01*
X2017522Y4123182D01*
X2005888Y4107129D01*
X1995830Y4090060D01*
G37*
G36*
X5289092Y4071010D02*
G01*
X5403189Y4071010D01*
X5403189Y4184954D01*
X5397550Y4182821D01*
X5379821Y4174032D01*
X5362956Y4163568D01*
X5347208Y4151528D01*
X5332679Y4138015D01*
X5319522Y4123182D01*
X5307888Y4107129D01*
X5297830Y4090060D01*
G37*
G36*
X3079292Y4071010D02*
G01*
X3193389Y4071010D01*
X3193389Y4184954D01*
X3187750Y4182821D01*
X3170021Y4174032D01*
X3153156Y4163568D01*
X3137408Y4151528D01*
X3122879Y4138015D01*
X3109722Y4123182D01*
X3098088Y4107129D01*
X3088030Y4090060D01*
G37*
G36*
X4196892Y4071010D02*
G01*
X4310989Y4071010D01*
X4310989Y4184954D01*
X4305350Y4182821D01*
X4287621Y4174032D01*
X4270756Y4163568D01*
X4255008Y4151528D01*
X4240479Y4138015D01*
X4227322Y4123182D01*
X4215688Y4107129D01*
X4205630Y4090060D01*
G37*
G36*
X1095349Y4296156D02*
G01*
X1354277Y4296156D01*
X1354277Y4318000D01*
X1350416Y4307586D01*
X1348232Y4304131D01*
X1344879Y4301794D01*
X1340866Y4300931D01*
X1095349Y4300931D01*
G37*
G36*
X4840122Y4421276D02*
G01*
X4862677Y4421276D01*
X4885080Y4423206D01*
X4907280Y4427016D01*
X4929073Y4432706D01*
X4950307Y4440174D01*
X4970830Y4449470D01*
X4990490Y4460443D01*
X5009134Y4473041D01*
X5026660Y4487164D01*
X5042916Y4502759D01*
X5057749Y4519676D01*
X5071160Y4537760D01*
X5082946Y4556963D01*
X5093106Y4577029D01*
X5101488Y4597958D01*
X5108092Y4619447D01*
X5112816Y4641494D01*
X5115712Y4663795D01*
X5116626Y4686300D01*
X5115712Y4708804D01*
X5112816Y4731105D01*
X5108092Y4753152D01*
X5101488Y4774641D01*
X5093106Y4795570D01*
X5082946Y4815636D01*
X5071160Y4834839D01*
X5057749Y4852924D01*
X5042916Y4869840D01*
X5026660Y4885385D01*
X5009134Y4899558D01*
X4990490Y4912156D01*
X4970830Y4923129D01*
X4950307Y4932426D01*
X4929073Y4939893D01*
X4907280Y4945583D01*
X4885080Y4949393D01*
X4862677Y4951323D01*
X4840122Y4951323D01*
X4817719Y4949393D01*
X4795520Y4945583D01*
X4773726Y4939893D01*
X4752492Y4932426D01*
X4731969Y4923129D01*
X4712309Y4912156D01*
X4693666Y4899558D01*
X4676140Y4885385D01*
X4659884Y4869840D01*
X4645050Y4852924D01*
X4631639Y4834839D01*
X4619853Y4815636D01*
X4609693Y4795570D01*
X4601311Y4774641D01*
X4594707Y4753152D01*
X4589983Y4731105D01*
X4587138Y4708804D01*
X4586173Y4686300D01*
X4587138Y4663795D01*
X4589983Y4641494D01*
X4594707Y4619447D01*
X4601311Y4597958D01*
X4609693Y4577029D01*
X4619853Y4556963D01*
X4631639Y4537760D01*
X4645050Y4519676D01*
X4659884Y4502759D01*
X4676140Y4487164D01*
X4693666Y4473041D01*
X4712309Y4460443D01*
X4731969Y4449470D01*
X4752492Y4440174D01*
X4773726Y4432706D01*
X4795520Y4427016D01*
X4817719Y4423206D01*
G37*
G36*
X4004665Y4515713D02*
G01*
X4021175Y4517136D01*
X4037431Y4520438D01*
X4053179Y4525568D01*
X4068267Y4532426D01*
X4082491Y4541012D01*
X4095597Y4551121D01*
X4107484Y4562703D01*
X4118000Y4575505D01*
X4126941Y4589475D01*
X4134256Y4604359D01*
X4139844Y4619955D01*
X4143603Y4636109D01*
X4145483Y4652568D01*
X4145483Y4669180D01*
X4143603Y4685639D01*
X4139844Y4701794D01*
X4134256Y4717440D01*
X4126941Y4732324D01*
X4118000Y4746244D01*
X4107484Y4759096D01*
X4095597Y4770628D01*
X4082491Y4780788D01*
X4068267Y4789322D01*
X4053179Y4796231D01*
X4037431Y4801362D01*
X4021175Y4804664D01*
X4004665Y4806086D01*
X3988054Y4805578D01*
X3971645Y4803241D01*
X3955643Y4799025D01*
X3940149Y4792980D01*
X3925519Y4785258D01*
X3911803Y4775911D01*
X3899255Y4765040D01*
X3888079Y4752797D01*
X3878326Y4739386D01*
X3870147Y4724958D01*
X3863695Y4709668D01*
X3859022Y4693767D01*
X3856228Y4677460D01*
X3855262Y4660900D01*
X3856228Y4644339D01*
X3859022Y4627981D01*
X3863695Y4612081D01*
X3870147Y4596790D01*
X3878326Y4582363D01*
X3888079Y4568952D01*
X3899255Y4556709D01*
X3911803Y4545888D01*
X3925519Y4536490D01*
X3940149Y4528769D01*
X3955643Y4522774D01*
X3971645Y4518558D01*
X3988054Y4516170D01*
G37*
G36*
X3001670Y4523333D02*
G01*
X3001670Y4614519D01*
X2910484Y4614519D01*
X2911195Y4612081D01*
X2917647Y4596790D01*
X2925826Y4582363D01*
X2935579Y4568952D01*
X2946755Y4556709D01*
X2959303Y4545888D01*
X2973019Y4536490D01*
X2987649Y4528769D01*
G37*
G36*
X5706770Y4523333D02*
G01*
X5706770Y4614570D01*
X5615584Y4614570D01*
X5616295Y4612081D01*
X5622747Y4596841D01*
X5630926Y4582363D01*
X5640679Y4568952D01*
X5651855Y4556760D01*
X5664403Y4545888D01*
X5678119Y4536541D01*
X5692749Y4528769D01*
G37*
G36*
X5799429Y4523486D02*
G01*
X5805779Y4525568D01*
X5820867Y4532426D01*
X5835091Y4541012D01*
X5848197Y4551121D01*
X5860084Y4562703D01*
X5870600Y4575556D01*
X5879541Y4589475D01*
X5886856Y4604359D01*
X5890514Y4614570D01*
X5799429Y4614570D01*
G37*
G36*
X3094329Y4523486D02*
G01*
X3100679Y4525568D01*
X3115767Y4532426D01*
X3129991Y4541012D01*
X3143097Y4551121D01*
X3154984Y4562703D01*
X3165500Y4575505D01*
X3174441Y4589475D01*
X3181756Y4604359D01*
X3185414Y4614519D01*
X3094329Y4614519D01*
G37*
G36*
X1095349Y4563668D02*
G01*
X1325321Y4563668D01*
X1319885Y4575403D01*
X1307795Y4596993D01*
X1294028Y4617618D01*
X1278737Y4637024D01*
X1261922Y4655210D01*
X1243736Y4672025D01*
X1224280Y4687316D01*
X1203706Y4701082D01*
X1182116Y4713173D01*
X1159662Y4723536D01*
X1136396Y4732121D01*
X1112570Y4738827D01*
X1095349Y4742281D01*
G37*
G36*
X5769762Y5406847D02*
G01*
X5769762Y5540654D01*
X5662422Y5540654D01*
X5664504Y5527649D01*
X5668975Y5510936D01*
X5675172Y5494782D01*
X5682996Y5479389D01*
X5692444Y5464860D01*
X5703316Y5451449D01*
X5715558Y5439206D01*
X5728970Y5428335D01*
X5743498Y5418886D01*
X5758891Y5411063D01*
G37*
G36*
X5757265Y4865725D02*
G01*
X5773775Y4867148D01*
X5790031Y4870450D01*
X5805779Y4875580D01*
X5820867Y4882438D01*
X5835091Y4891024D01*
X5848197Y4901133D01*
X5860084Y4912715D01*
X5870600Y4925568D01*
X5879541Y4939487D01*
X5886856Y4954371D01*
X5892444Y4970018D01*
X5896203Y4986121D01*
X5898083Y5002631D01*
X5898083Y5019192D01*
X5896203Y5035702D01*
X5892444Y5051806D01*
X5886856Y5067452D01*
X5879541Y5082336D01*
X5870600Y5096256D01*
X5860084Y5109108D01*
X5848197Y5120690D01*
X5835091Y5130800D01*
X5820867Y5139385D01*
X5805779Y5146243D01*
X5790031Y5151374D01*
X5773775Y5154676D01*
X5757265Y5156098D01*
X5740654Y5155590D01*
X5724245Y5153253D01*
X5708243Y5149037D01*
X5692749Y5143042D01*
X5678119Y5135270D01*
X5664403Y5125923D01*
X5651855Y5115052D01*
X5640679Y5102860D01*
X5630926Y5089448D01*
X5622747Y5074970D01*
X5616295Y5059730D01*
X5611622Y5043830D01*
X5608828Y5027472D01*
X5607862Y5010912D01*
X5608828Y4994351D01*
X5611622Y4977993D01*
X5616295Y4962093D01*
X5622747Y4946853D01*
X5630926Y4932375D01*
X5640679Y4918964D01*
X5651855Y4906772D01*
X5664403Y4895900D01*
X5678119Y4886553D01*
X5692749Y4878781D01*
X5708243Y4872786D01*
X5724245Y4868570D01*
X5740654Y4866233D01*
G37*
G36*
X5799429Y4707229D02*
G01*
X5890514Y4707229D01*
X5886856Y4717440D01*
X5879541Y4732324D01*
X5870600Y4746244D01*
X5860084Y4759096D01*
X5848197Y4770678D01*
X5835091Y4780788D01*
X5820867Y4789373D01*
X5805779Y4796231D01*
X5799429Y4798314D01*
G37*
G36*
X3094329Y4707229D02*
G01*
X3185414Y4707229D01*
X3181756Y4717440D01*
X3174441Y4732324D01*
X3165500Y4746244D01*
X3154984Y4759096D01*
X3143097Y4770628D01*
X3129991Y4780788D01*
X3115767Y4789322D01*
X3100679Y4796231D01*
X3094329Y4798263D01*
G37*
G36*
X5615584Y4707229D02*
G01*
X5706770Y4707229D01*
X5706770Y4798466D01*
X5692749Y4793030D01*
X5678119Y4785258D01*
X5664403Y4775911D01*
X5651855Y4765040D01*
X5640679Y4752848D01*
X5630926Y4739436D01*
X5622747Y4724958D01*
X5616295Y4709718D01*
G37*
G36*
X2910484Y4707229D02*
G01*
X3001670Y4707229D01*
X3001670Y4798415D01*
X2987649Y4792980D01*
X2973019Y4785258D01*
X2959303Y4775911D01*
X2946755Y4765040D01*
X2935579Y4752797D01*
X2925826Y4739386D01*
X2917647Y4724958D01*
X2911195Y4709668D01*
G37*

%LPD*%
G36*
X457860Y139954D02*
G01*
X432917Y140970D01*
X409194Y143814D01*
X385724Y148488D01*
X362712Y154990D01*
X340309Y163322D01*
X318617Y173380D01*
X297738Y185064D01*
X277876Y198374D01*
X259130Y213207D01*
X241604Y229463D01*
X225399Y247040D01*
X210616Y265836D01*
X197358Y285750D01*
X185674Y306628D01*
X175717Y328320D01*
X167487Y350774D01*
X160985Y373786D01*
X156362Y397256D01*
X153619Y421030D01*
X152654Y445160D01*
X152654Y835863D01*
X153416Y842670D01*
X153416Y902157D01*
X154381Y923848D01*
X157175Y944626D01*
X161747Y965047D01*
X168097Y985062D01*
X176174Y1004366D01*
X185877Y1022959D01*
X197154Y1040637D01*
X209956Y1057198D01*
X224129Y1072642D01*
X239623Y1086764D01*
X256286Y1099515D01*
X273964Y1110742D01*
X292557Y1120394D01*
X311962Y1128369D01*
X331927Y1134618D01*
X352399Y1139139D01*
X373227Y1141831D01*
X394462Y1142746D01*
X406095Y1142746D01*
X422757Y1143762D01*
X426567Y1144270D01*
X440690Y1147064D01*
X445566Y1148435D01*
X449478Y1148740D01*
X453237Y1147521D01*
X465277Y1140815D01*
X483463Y1132789D01*
X502310Y1126490D01*
X521665Y1121918D01*
X541324Y1119174D01*
X561441Y1118260D01*
X860958Y1118260D01*
X881075Y1119174D01*
X900734Y1121918D01*
X920089Y1126490D01*
X938936Y1132789D01*
X957122Y1140815D01*
X974496Y1150518D01*
X990904Y1161745D01*
X1006195Y1174445D01*
X1020267Y1188516D01*
X1032967Y1203807D01*
X1044194Y1220165D01*
X1053896Y1237538D01*
X1061923Y1255725D01*
X1068222Y1274572D01*
X1072794Y1293926D01*
X1075537Y1313637D01*
X1076452Y1333500D01*
X1076147Y1340256D01*
X1076807Y1344371D01*
X1079093Y1347927D01*
X1138021Y1406906D01*
X1145286Y1415389D01*
X1147267Y1418031D01*
X1155039Y1430223D01*
X1159916Y1440281D01*
X1161186Y1443329D01*
X1164793Y1453896D01*
X1165707Y1457096D01*
X1167942Y1468018D01*
X1168400Y1471320D01*
X1169314Y1482445D01*
X1169365Y1485747D01*
X1168806Y1496923D01*
X1168450Y1500174D01*
X1166520Y1511198D01*
X1165758Y1514398D01*
X1161338Y1528165D01*
X1156716Y1538376D01*
X1155192Y1541272D01*
X1149350Y1550822D01*
X1147419Y1553514D01*
X1140460Y1562252D01*
X1138224Y1564690D01*
X1130198Y1572463D01*
X1127709Y1574596D01*
X1118768Y1581302D01*
X1115974Y1583131D01*
X1106271Y1588668D01*
X1103325Y1590090D01*
X1093012Y1594408D01*
X1089863Y1595475D01*
X1079093Y1598422D01*
X1075842Y1599082D01*
X1064768Y1600657D01*
X1061516Y1600911D01*
X1050340Y1601063D01*
X1047038Y1600911D01*
X1035913Y1599692D01*
X1032662Y1599133D01*
X1021791Y1596542D01*
X1018641Y1595577D01*
X1008176Y1591614D01*
X1005179Y1590243D01*
X995273Y1585010D01*
X992479Y1583283D01*
X983335Y1576882D01*
X980744Y1574800D01*
X972413Y1567230D01*
X943762Y1538528D01*
X940663Y1536446D01*
X937056Y1535582D01*
X933348Y1536090D01*
X920089Y1540510D01*
X900734Y1545082D01*
X881075Y1547825D01*
X860958Y1548739D01*
X561441Y1548739D01*
X556971Y1548536D01*
X552958Y1549196D01*
X549503Y1551330D01*
X547166Y1554683D01*
X546354Y1558696D01*
X546354Y1590903D01*
X547166Y1594916D01*
X549503Y1598269D01*
X552958Y1600403D01*
X556971Y1601063D01*
X561441Y1600860D01*
X860958Y1600860D01*
X881075Y1601774D01*
X900734Y1604518D01*
X920089Y1609090D01*
X938936Y1615389D01*
X957122Y1623415D01*
X974496Y1633118D01*
X990904Y1644345D01*
X1006195Y1657045D01*
X1020267Y1671116D01*
X1032967Y1686407D01*
X1039825Y1696415D01*
X1042111Y1698802D01*
X1045006Y1700326D01*
X1048207Y1700834D01*
X1146454Y1700885D01*
X1157579Y1701800D01*
X1160881Y1702257D01*
X1171803Y1704492D01*
X1175004Y1705406D01*
X1185570Y1709013D01*
X1188618Y1710283D01*
X1198676Y1715160D01*
X1210868Y1722932D01*
X1213510Y1724914D01*
X1221994Y1732178D01*
X1328521Y1838706D01*
X1335786Y1847189D01*
X1337767Y1849831D01*
X1345539Y1862023D01*
X1350416Y1872081D01*
X1351686Y1875129D01*
X1355293Y1885696D01*
X1356207Y1888896D01*
X1358442Y1899818D01*
X1358900Y1903120D01*
X1359814Y1914245D01*
X1359865Y1917547D01*
X1359306Y1928723D01*
X1358950Y1931974D01*
X1357020Y1942998D01*
X1356258Y1946198D01*
X1351838Y1959965D01*
X1347216Y1970176D01*
X1345692Y1973072D01*
X1339850Y1982622D01*
X1337919Y1985314D01*
X1330960Y1994052D01*
X1328724Y1996490D01*
X1320698Y2004263D01*
X1318209Y2006396D01*
X1309268Y2013102D01*
X1306474Y2014931D01*
X1296771Y2020468D01*
X1293825Y2021890D01*
X1283512Y2026208D01*
X1280363Y2027275D01*
X1269593Y2030222D01*
X1266342Y2030882D01*
X1255268Y2032457D01*
X1252016Y2032711D01*
X1240840Y2032863D01*
X1237538Y2032711D01*
X1226413Y2031492D01*
X1223162Y2030933D01*
X1212291Y2028342D01*
X1209141Y2027377D01*
X1198676Y2023414D01*
X1195679Y2022043D01*
X1185773Y2016810D01*
X1182979Y2015083D01*
X1173835Y2008682D01*
X1171244Y2006600D01*
X1162913Y1999030D01*
X1098245Y1934311D01*
X1094943Y1932127D01*
X1091031Y1931365D01*
X1048207Y1931365D01*
X1045006Y1931873D01*
X1042111Y1933397D01*
X1039825Y1935784D01*
X1032967Y1945792D01*
X1020267Y1961083D01*
X1006195Y1975154D01*
X990904Y1987854D01*
X974496Y1999081D01*
X957122Y2008784D01*
X938936Y2016810D01*
X920089Y2023110D01*
X900734Y2027682D01*
X881075Y2030425D01*
X860958Y2031339D01*
X561441Y2031339D01*
X541324Y2030425D01*
X521665Y2027682D01*
X502310Y2023110D01*
X483463Y2016810D01*
X470103Y2010918D01*
X467106Y2010105D01*
X464007Y2010257D01*
X461060Y2011324D01*
X454202Y2015134D01*
X451256Y2016556D01*
X437134Y2022398D01*
X434035Y2023465D01*
X419404Y2027682D01*
X416153Y2028443D01*
X401167Y2030984D01*
X397865Y2031339D01*
X382524Y2032203D01*
X372313Y2033117D01*
X364642Y2035098D01*
X357428Y2038248D01*
X350723Y2042464D01*
X344779Y2047697D01*
X339750Y2053793D01*
X335737Y2060600D01*
X332790Y2067966D01*
X331063Y2075688D01*
X330454Y2084171D01*
X330504Y2094992D01*
X331317Y2105202D01*
X333349Y2113991D01*
X336550Y2122373D01*
X340969Y2130247D01*
X346456Y2137410D01*
X352907Y2143709D01*
X360172Y2148992D01*
X368147Y2153208D01*
X376631Y2156256D01*
X385419Y2158085D01*
X394919Y2158746D01*
X406095Y2158746D01*
X422757Y2159762D01*
X426567Y2160270D01*
X440740Y2163064D01*
X444449Y2164080D01*
X459333Y2169210D01*
X463042Y2169718D01*
X466699Y2168855D01*
X483463Y2161489D01*
X502310Y2155190D01*
X521665Y2150618D01*
X541324Y2147874D01*
X561441Y2146960D01*
X860958Y2146960D01*
X881075Y2147874D01*
X900734Y2150618D01*
X920089Y2155190D01*
X938936Y2161489D01*
X957122Y2169515D01*
X974496Y2179218D01*
X990904Y2190445D01*
X1006195Y2203145D01*
X1020267Y2217216D01*
X1032967Y2232507D01*
X1039825Y2242515D01*
X1042111Y2244902D01*
X1045006Y2246426D01*
X1048207Y2246934D01*
X1082954Y2246985D01*
X1094079Y2247900D01*
X1097381Y2248357D01*
X1108303Y2250592D01*
X1111504Y2251506D01*
X1122070Y2255113D01*
X1125118Y2256383D01*
X1135176Y2261260D01*
X1147368Y2269032D01*
X1150010Y2271014D01*
X1158494Y2278278D01*
X1448054Y2567787D01*
X1451457Y2570022D01*
X1455470Y2570734D01*
X1459433Y2569870D01*
X1462735Y2567482D01*
X1464818Y2563977D01*
X1465376Y2559964D01*
X1464310Y2556002D01*
X1460093Y2547670D01*
X1451711Y2526741D01*
X1445107Y2505252D01*
X1440383Y2483205D01*
X1437538Y2460904D01*
X1436573Y2438400D01*
X1437538Y2415895D01*
X1440383Y2393594D01*
X1445107Y2371547D01*
X1451711Y2350058D01*
X1460093Y2329129D01*
X1470253Y2309063D01*
X1482039Y2289860D01*
X1495450Y2271776D01*
X1510284Y2254859D01*
X1526540Y2239264D01*
X1544066Y2225141D01*
X1562709Y2212543D01*
X1582369Y2201570D01*
X1602892Y2192274D01*
X1624126Y2184806D01*
X1645920Y2179116D01*
X1668119Y2175306D01*
X1690522Y2173376D01*
X1713077Y2173376D01*
X1735480Y2175306D01*
X1757680Y2179116D01*
X1779473Y2184806D01*
X1800707Y2192274D01*
X1821230Y2201570D01*
X1840890Y2212543D01*
X1859534Y2225141D01*
X1877060Y2239264D01*
X1886051Y2247950D01*
X1889353Y2250033D01*
X1893214Y2250744D01*
X1897075Y2249932D01*
X1900326Y2247747D01*
X1902510Y2244445D01*
X1903272Y2240584D01*
X1903272Y2190242D01*
X1902460Y2186330D01*
X1900275Y2183028D01*
X1830171Y2112924D01*
X1826869Y2110740D01*
X1822957Y2109927D01*
X1626006Y2109927D01*
X1615389Y2109114D01*
X1605432Y2106726D01*
X1595983Y2102815D01*
X1587246Y2097481D01*
X1579168Y2090572D01*
X1414627Y1926031D01*
X1407718Y1917954D01*
X1402384Y1909216D01*
X1398473Y1899767D01*
X1396085Y1889810D01*
X1395272Y1879193D01*
X1395272Y1537106D01*
X1396085Y1526489D01*
X1398473Y1516532D01*
X1402384Y1507083D01*
X1407718Y1498346D01*
X1414627Y1490268D01*
X1594104Y1310792D01*
X1596390Y1307388D01*
X1597101Y1303324D01*
X1596136Y1299311D01*
X1593697Y1296009D01*
X1587601Y1290624D01*
X1573834Y1275842D01*
X1561541Y1259890D01*
X1550771Y1242822D01*
X1541627Y1224788D01*
X1538935Y1217980D01*
X1656638Y1217980D01*
X1656638Y1270762D01*
X1657400Y1274673D01*
X1659636Y1277975D01*
X1662938Y1280160D01*
X1666798Y1280922D01*
X1809191Y1280922D01*
X1813052Y1280160D01*
X1816354Y1277975D01*
X1818589Y1274673D01*
X1819351Y1270762D01*
X1819351Y1217980D01*
X1937156Y1217980D01*
X1929993Y1233932D01*
X1920036Y1251458D01*
X1910638Y1264970D01*
X1908962Y1269034D01*
X1909165Y1273403D01*
X1911197Y1277315D01*
X1914652Y1280007D01*
X1918970Y1280922D01*
X1977237Y1280922D01*
X1981606Y1279956D01*
X1985111Y1277162D01*
X1987092Y1273149D01*
X1987143Y1268679D01*
X1985264Y1264564D01*
X1981657Y1259890D01*
X1970887Y1242822D01*
X1961743Y1224788D01*
X1959051Y1217980D01*
X2076754Y1217980D01*
X2076754Y1270762D01*
X2077516Y1274673D01*
X2079752Y1277975D01*
X2083054Y1280160D01*
X2086914Y1280922D01*
X2229307Y1280922D01*
X2233168Y1280160D01*
X2236470Y1277975D01*
X2238705Y1274673D01*
X2239467Y1270762D01*
X2239467Y1217980D01*
X2357272Y1217980D01*
X2350109Y1233932D01*
X2340152Y1251458D01*
X2330754Y1264970D01*
X2329078Y1269034D01*
X2329281Y1273403D01*
X2331313Y1277315D01*
X2334768Y1280007D01*
X2339086Y1280922D01*
X2398877Y1280922D01*
X2403246Y1279956D01*
X2406751Y1277162D01*
X2408732Y1273149D01*
X2408834Y1268679D01*
X2406904Y1264564D01*
X2402535Y1258874D01*
X2391765Y1241806D01*
X2382621Y1223772D01*
X2379929Y1216964D01*
X2497632Y1216964D01*
X2497632Y1270762D01*
X2498394Y1274673D01*
X2500630Y1277975D01*
X2503932Y1280160D01*
X2507792Y1280922D01*
X2650185Y1280922D01*
X2654046Y1280160D01*
X2657348Y1277975D01*
X2659583Y1274673D01*
X2660345Y1270762D01*
X2660345Y1216964D01*
X2778150Y1216964D01*
X2770987Y1232916D01*
X2761030Y1250442D01*
X2750921Y1264970D01*
X2749245Y1269034D01*
X2749448Y1273403D01*
X2751480Y1277315D01*
X2754934Y1280007D01*
X2759252Y1280922D01*
X2818993Y1280922D01*
X2823362Y1279956D01*
X2826867Y1277162D01*
X2828848Y1273149D01*
X2828950Y1268679D01*
X2827020Y1264564D01*
X2822651Y1258874D01*
X2811881Y1241806D01*
X2802737Y1223772D01*
X2800045Y1216964D01*
X2917748Y1216964D01*
X2917748Y1270762D01*
X2918510Y1274673D01*
X2920746Y1277975D01*
X2924048Y1280160D01*
X2927908Y1280922D01*
X3070301Y1280922D01*
X3074162Y1280160D01*
X3077464Y1277975D01*
X3079699Y1274673D01*
X3080461Y1270762D01*
X3080461Y1216964D01*
X3198266Y1216964D01*
X3191103Y1232916D01*
X3181146Y1250442D01*
X3171037Y1264970D01*
X3169361Y1269034D01*
X3169564Y1273403D01*
X3171596Y1277315D01*
X3175050Y1280007D01*
X3179368Y1280922D01*
X3468471Y1280922D01*
X3472840Y1279956D01*
X3476345Y1277162D01*
X3478326Y1273149D01*
X3478377Y1268679D01*
X3476498Y1264564D01*
X3472891Y1259890D01*
X3462121Y1242822D01*
X3452977Y1224788D01*
X3450285Y1217980D01*
X3567988Y1217980D01*
X3567988Y1270762D01*
X3568750Y1274673D01*
X3570986Y1277975D01*
X3574287Y1280160D01*
X3578148Y1280922D01*
X3720541Y1280922D01*
X3724401Y1280160D01*
X3727704Y1277975D01*
X3729939Y1274673D01*
X3730701Y1270762D01*
X3730701Y1217980D01*
X3848506Y1217980D01*
X3841343Y1233932D01*
X3831386Y1251458D01*
X3821988Y1264970D01*
X3820312Y1269034D01*
X3820515Y1273403D01*
X3822547Y1277315D01*
X3826001Y1280007D01*
X3830320Y1280922D01*
X3888587Y1280922D01*
X3892956Y1279956D01*
X3896461Y1277162D01*
X3898442Y1273149D01*
X3898493Y1268679D01*
X3896614Y1264564D01*
X3893007Y1259890D01*
X3882237Y1242822D01*
X3873093Y1224788D01*
X3870401Y1217980D01*
X3988104Y1217980D01*
X3988104Y1270762D01*
X3988866Y1274673D01*
X3991101Y1277975D01*
X3994404Y1280160D01*
X3998264Y1280922D01*
X4140657Y1280922D01*
X4144518Y1280160D01*
X4147820Y1277975D01*
X4150055Y1274673D01*
X4150817Y1270762D01*
X4150817Y1217980D01*
X4268622Y1217980D01*
X4261459Y1233932D01*
X4251502Y1251458D01*
X4242104Y1264970D01*
X4240428Y1269034D01*
X4240631Y1273403D01*
X4242663Y1277315D01*
X4246118Y1280007D01*
X4250436Y1280922D01*
X4310227Y1280922D01*
X4314596Y1279956D01*
X4318101Y1277162D01*
X4320082Y1273149D01*
X4320184Y1268679D01*
X4318254Y1264564D01*
X4313885Y1258874D01*
X4303115Y1241806D01*
X4293971Y1223772D01*
X4291279Y1216964D01*
X4408982Y1216964D01*
X4408982Y1270762D01*
X4409744Y1274673D01*
X4411980Y1277975D01*
X4415282Y1280160D01*
X4419142Y1280922D01*
X4561535Y1280922D01*
X4565396Y1280160D01*
X4568698Y1277975D01*
X4570933Y1274673D01*
X4571695Y1270762D01*
X4571695Y1216964D01*
X4689500Y1216964D01*
X4682337Y1232916D01*
X4672380Y1250442D01*
X4662271Y1264970D01*
X4660595Y1269034D01*
X4660798Y1273403D01*
X4662830Y1277315D01*
X4666284Y1280007D01*
X4670602Y1280922D01*
X4730343Y1280922D01*
X4734712Y1279956D01*
X4738217Y1277162D01*
X4740198Y1273149D01*
X4740300Y1268679D01*
X4738370Y1264564D01*
X4734001Y1258874D01*
X4723231Y1241806D01*
X4714087Y1223772D01*
X4711395Y1216964D01*
X4829098Y1216964D01*
X4829098Y1270762D01*
X4829860Y1274673D01*
X4832096Y1277975D01*
X4835398Y1280160D01*
X4839258Y1280922D01*
X4981651Y1280922D01*
X4985512Y1280160D01*
X4988814Y1277975D01*
X4991049Y1274673D01*
X4991811Y1270762D01*
X4991811Y1216964D01*
X5109616Y1216964D01*
X5102453Y1232916D01*
X5092496Y1250442D01*
X5082387Y1264970D01*
X5080711Y1269034D01*
X5080914Y1273403D01*
X5082946Y1277315D01*
X5086400Y1280007D01*
X5090718Y1280922D01*
X5379821Y1280922D01*
X5384190Y1279956D01*
X5387695Y1277162D01*
X5389676Y1273149D01*
X5389727Y1268679D01*
X5387848Y1264564D01*
X5384241Y1259890D01*
X5373471Y1242822D01*
X5364327Y1224788D01*
X5361635Y1217980D01*
X5479338Y1217980D01*
X5479338Y1270762D01*
X5480100Y1274673D01*
X5482336Y1277975D01*
X5485638Y1280160D01*
X5489498Y1280922D01*
X5631891Y1280922D01*
X5635752Y1280160D01*
X5639054Y1277975D01*
X5641289Y1274673D01*
X5642051Y1270762D01*
X5642051Y1217980D01*
X5759856Y1217980D01*
X5752693Y1233932D01*
X5742736Y1251458D01*
X5733338Y1264970D01*
X5731662Y1269034D01*
X5731865Y1273403D01*
X5733897Y1277315D01*
X5737352Y1280007D01*
X5741670Y1280922D01*
X5799937Y1280922D01*
X5804306Y1279956D01*
X5807811Y1277162D01*
X5809792Y1273149D01*
X5809843Y1268679D01*
X5807964Y1264564D01*
X5804357Y1259890D01*
X5793587Y1242822D01*
X5784443Y1224788D01*
X5781751Y1217980D01*
X5899454Y1217980D01*
X5899454Y1270762D01*
X5900216Y1274673D01*
X5902452Y1277975D01*
X5905754Y1280160D01*
X5909614Y1280922D01*
X6052007Y1280922D01*
X6055868Y1280160D01*
X6059170Y1277975D01*
X6061405Y1274673D01*
X6062167Y1270762D01*
X6062167Y1217980D01*
X6179972Y1217980D01*
X6172809Y1233932D01*
X6162852Y1251458D01*
X6153454Y1264970D01*
X6151778Y1269034D01*
X6151981Y1273403D01*
X6154013Y1277315D01*
X6157468Y1280007D01*
X6161786Y1280922D01*
X6221577Y1280922D01*
X6225946Y1279956D01*
X6229451Y1277162D01*
X6231432Y1273149D01*
X6231534Y1268679D01*
X6229604Y1264564D01*
X6225235Y1258874D01*
X6214465Y1241806D01*
X6205321Y1223772D01*
X6202629Y1216964D01*
X6320332Y1216964D01*
X6320332Y1270762D01*
X6321094Y1274673D01*
X6323330Y1277975D01*
X6326632Y1280160D01*
X6330492Y1280922D01*
X6472885Y1280922D01*
X6476746Y1280160D01*
X6480048Y1277975D01*
X6482283Y1274673D01*
X6483045Y1270762D01*
X6483045Y1216964D01*
X6600850Y1216964D01*
X6593687Y1232916D01*
X6583730Y1250442D01*
X6573621Y1264970D01*
X6571945Y1269034D01*
X6572148Y1273403D01*
X6574180Y1277315D01*
X6577634Y1280007D01*
X6581952Y1280922D01*
X6641693Y1280922D01*
X6646062Y1279956D01*
X6649567Y1277162D01*
X6651548Y1273149D01*
X6651650Y1268679D01*
X6649720Y1264564D01*
X6645351Y1258874D01*
X6634581Y1241806D01*
X6625437Y1223772D01*
X6622745Y1216964D01*
X6740448Y1216964D01*
X6740448Y1270762D01*
X6741210Y1274673D01*
X6743446Y1277975D01*
X6746748Y1280160D01*
X6750608Y1280922D01*
X6893001Y1280922D01*
X6896862Y1280160D01*
X6900164Y1277975D01*
X6902399Y1274673D01*
X6903161Y1270762D01*
X6903161Y1216964D01*
X7020966Y1216964D01*
X7013803Y1232916D01*
X7003846Y1250442D01*
X6992315Y1267002D01*
X6979259Y1282395D01*
X6971792Y1289659D01*
X6969556Y1292961D01*
X6968744Y1296873D01*
X6969506Y1300784D01*
X6971690Y1304137D01*
X7094372Y1426768D01*
X7101281Y1434846D01*
X7106615Y1443583D01*
X7110526Y1453032D01*
X7112914Y1462989D01*
X7113778Y1473606D01*
X7113778Y1879193D01*
X7112914Y1889810D01*
X7110526Y1899767D01*
X7106615Y1909216D01*
X7101281Y1917954D01*
X7094372Y1926031D01*
X6862724Y2157628D01*
X6860540Y2160930D01*
X6859778Y2164842D01*
X6859778Y3406648D01*
X6860743Y3411016D01*
X6863537Y3414522D01*
X6867550Y3416503D01*
X6872020Y3416604D01*
X6876084Y3414725D01*
X6887972Y3405632D01*
X6904837Y3395167D01*
X6922566Y3386378D01*
X6928205Y3384245D01*
X6928205Y3498189D01*
X6869938Y3498189D01*
X6866026Y3498951D01*
X6862724Y3501186D01*
X6860540Y3504488D01*
X6859778Y3508349D01*
X6859778Y3640734D01*
X6860540Y3644595D01*
X6862724Y3647897D01*
X6866026Y3650132D01*
X6869938Y3650894D01*
X6928205Y3650894D01*
X6928205Y3764838D01*
X6922566Y3762705D01*
X6904837Y3753916D01*
X6887972Y3743451D01*
X6876084Y3734358D01*
X6872020Y3732479D01*
X6867550Y3732580D01*
X6863537Y3734562D01*
X6860743Y3738067D01*
X6859778Y3742436D01*
X6859778Y3826764D01*
X6860743Y3831132D01*
X6863537Y3834637D01*
X6867550Y3836619D01*
X6872020Y3836720D01*
X6876084Y3834841D01*
X6887972Y3825748D01*
X6904837Y3815283D01*
X6922617Y3806494D01*
X6941159Y3799484D01*
X6960260Y3794251D01*
X6979818Y3790899D01*
X6999579Y3789476D01*
X7019442Y3789934D01*
X7039102Y3792372D01*
X7058456Y3796639D01*
X7077354Y3802735D01*
X7095540Y3810660D01*
X7112863Y3820312D01*
X7129170Y3831590D01*
X7144308Y3844391D01*
X7158177Y3858564D01*
X7170623Y3874008D01*
X7181494Y3890619D01*
X7190689Y3908145D01*
X7198156Y3926535D01*
X7203846Y3945534D01*
X7207656Y3964990D01*
X7209536Y3984751D01*
X7209536Y4004564D01*
X7207656Y4024325D01*
X7203846Y4043781D01*
X7198156Y4062780D01*
X7190689Y4081170D01*
X7181494Y4098696D01*
X7170623Y4115308D01*
X7158177Y4130751D01*
X7144308Y4144924D01*
X7129170Y4157726D01*
X7112863Y4169003D01*
X7095540Y4178655D01*
X7077354Y4186580D01*
X7058456Y4192676D01*
X7039102Y4196943D01*
X7019442Y4199382D01*
X6999579Y4199839D01*
X6979818Y4198416D01*
X6960260Y4195064D01*
X6941159Y4189831D01*
X6922617Y4182821D01*
X6904837Y4174032D01*
X6887972Y4163568D01*
X6876084Y4154474D01*
X6872020Y4152595D01*
X6867550Y4152696D01*
X6863537Y4154678D01*
X6860743Y4158183D01*
X6859778Y4162551D01*
X6859778Y5409793D01*
X6858914Y5420410D01*
X6856526Y5430367D01*
X6852615Y5439816D01*
X6847281Y5448554D01*
X6840372Y5456631D01*
X6817258Y5479694D01*
X6814972Y5483250D01*
X6814312Y5487416D01*
X6815378Y5491530D01*
X6817055Y5494782D01*
X6823252Y5510936D01*
X6827723Y5527649D01*
X6830466Y5544718D01*
X6831380Y5562244D01*
X6831380Y5701741D01*
X6830466Y5719267D01*
X6827723Y5736336D01*
X6823252Y5753049D01*
X6817055Y5769203D01*
X6809231Y5784596D01*
X6799783Y5799124D01*
X6788912Y5812536D01*
X6776669Y5824778D01*
X6765188Y5834126D01*
X6762394Y5837631D01*
X6761429Y5842000D01*
X6762394Y5846368D01*
X6765188Y5849874D01*
X6776669Y5859221D01*
X6788912Y5871464D01*
X6799783Y5884875D01*
X6809231Y5899404D01*
X6817055Y5914796D01*
X6823252Y5930950D01*
X6827723Y5947664D01*
X6829806Y5960668D01*
X6722465Y5960668D01*
X6722465Y5870956D01*
X6721805Y5867349D01*
X6719874Y5864148D01*
X6716928Y5861913D01*
X6713372Y5860846D01*
X6709664Y5861151D01*
X6700469Y5863640D01*
X6683400Y5866333D01*
X6666128Y5867247D01*
X6648856Y5866333D01*
X6631736Y5863640D01*
X6622542Y5861151D01*
X6618833Y5860846D01*
X6615328Y5861913D01*
X6612381Y5864148D01*
X6610451Y5867349D01*
X6609740Y5870956D01*
X6609740Y5960668D01*
X6502400Y5960668D01*
X6504482Y5947664D01*
X6508953Y5930950D01*
X6515150Y5914796D01*
X6523024Y5899404D01*
X6532422Y5884875D01*
X6543294Y5871464D01*
X6555536Y5859221D01*
X6567068Y5849874D01*
X6569811Y5846368D01*
X6570827Y5842000D01*
X6569811Y5837631D01*
X6567068Y5834126D01*
X6555536Y5824778D01*
X6543294Y5812536D01*
X6532422Y5799124D01*
X6525666Y5788660D01*
X6522466Y5785561D01*
X6518198Y5784088D01*
X6513728Y5784646D01*
X6509969Y5787034D01*
X6409131Y5887872D01*
X6401054Y5894781D01*
X6398209Y5896508D01*
X6395415Y5898997D01*
X6393738Y5902401D01*
X6393434Y5906160D01*
X6394500Y5909767D01*
X6397040Y5914796D01*
X6403238Y5930950D01*
X6407708Y5947664D01*
X6410452Y5964732D01*
X6411366Y5982258D01*
X6411366Y6121755D01*
X6410706Y6134354D01*
X6411315Y6138418D01*
X6413449Y6141872D01*
X6416802Y6144209D01*
X6420815Y6145022D01*
X6491376Y6145022D01*
X6494322Y6144615D01*
X6496964Y6143345D01*
X6614312Y6143345D01*
X6617004Y6144615D01*
X6619900Y6145022D01*
X6712305Y6145022D01*
X6715252Y6144615D01*
X6717893Y6143345D01*
X6835241Y6143345D01*
X6837934Y6144615D01*
X6840829Y6145022D01*
X7410958Y6145022D01*
X7414869Y6144260D01*
X7418171Y6142075D01*
X7983575Y5576671D01*
X7985759Y5573369D01*
X7986572Y5569458D01*
X7986572Y5143906D01*
X7987385Y5133289D01*
X7989773Y5123332D01*
X7993684Y5113883D01*
X7999018Y5105146D01*
X8005927Y5097068D01*
X8445855Y4657191D01*
X8448040Y4653889D01*
X8448852Y4650028D01*
X8448090Y4646168D01*
X8445906Y4642866D01*
X8442655Y4640630D01*
X8431784Y4636008D01*
X8408060Y4623816D01*
X8385251Y4609896D01*
X8363559Y4594402D01*
X8343087Y4577334D01*
X8323834Y4558792D01*
X8306053Y4538929D01*
X8289747Y4517796D01*
X8275015Y4495546D01*
X8261959Y4472330D01*
X8250631Y4448149D01*
X8241131Y4423206D01*
X8233409Y4397705D01*
X8227618Y4371644D01*
X8223758Y4345228D01*
X8221776Y4318660D01*
X8221776Y4291939D01*
X8223758Y4265371D01*
X8227618Y4238955D01*
X8233409Y4212894D01*
X8241131Y4187393D01*
X8250631Y4162450D01*
X8261959Y4138269D01*
X8275015Y4115054D01*
X8289747Y4092803D01*
X8306053Y4071670D01*
X8323834Y4051808D01*
X8343087Y4033265D01*
X8363559Y4016197D01*
X8385251Y4000703D01*
X8408060Y3986784D01*
X8431784Y3974592D01*
X8456320Y3964178D01*
X8481568Y3955542D01*
X8507374Y3948785D01*
X8533638Y3943959D01*
X8560155Y3941013D01*
X8586978Y3940048D01*
X8786622Y3940048D01*
X8813444Y3941013D01*
X8839962Y3943959D01*
X8866225Y3948785D01*
X8892032Y3955542D01*
X8917279Y3964178D01*
X8941816Y3974592D01*
X8965539Y3986784D01*
X8988348Y4000703D01*
X9010040Y4016197D01*
X9030512Y4033265D01*
X9049766Y4051808D01*
X9067546Y4071670D01*
X9083852Y4092803D01*
X9098584Y4115054D01*
X9111640Y4138269D01*
X9122968Y4162450D01*
X9132468Y4187393D01*
X9140190Y4212894D01*
X9145981Y4238955D01*
X9149842Y4265371D01*
X9151823Y4291939D01*
X9151823Y4318660D01*
X9149842Y4345228D01*
X9145981Y4371644D01*
X9140190Y4397705D01*
X9132468Y4423206D01*
X9122968Y4448149D01*
X9111640Y4472330D01*
X9098584Y4495546D01*
X9083852Y4517796D01*
X9067546Y4538929D01*
X9049766Y4558792D01*
X9030512Y4577334D01*
X9014866Y4590389D01*
X9012275Y4593590D01*
X9011208Y4597552D01*
X9011818Y4601667D01*
X9013952Y4605172D01*
X9017304Y4607509D01*
X9021368Y4608322D01*
X9298686Y4608322D01*
X9302597Y4607560D01*
X9305848Y4605375D01*
X9308084Y4602073D01*
X9308846Y4598162D01*
X9308846Y3178657D01*
X9307830Y3174288D01*
X9305086Y3170783D01*
X9301022Y3168802D01*
X9296552Y3168751D01*
X9292488Y3170631D01*
X9289592Y3174085D01*
X9281566Y3190036D01*
X9269780Y3209239D01*
X9256369Y3227324D01*
X9241485Y3244240D01*
X9225229Y3259785D01*
X9207703Y3273958D01*
X9189059Y3286556D01*
X9169400Y3297529D01*
X9148927Y3306826D01*
X9127693Y3314293D01*
X9105900Y3319983D01*
X9083700Y3323793D01*
X9061246Y3325723D01*
X9038742Y3325723D01*
X9016339Y3323793D01*
X8994140Y3319983D01*
X8972346Y3314293D01*
X8951112Y3306826D01*
X8930589Y3297529D01*
X8910929Y3286556D01*
X8892286Y3273958D01*
X8874760Y3259785D01*
X8858504Y3244240D01*
X8843619Y3227324D01*
X8830259Y3209239D01*
X8818422Y3190036D01*
X8808313Y3169970D01*
X8799931Y3149041D01*
X8793327Y3127552D01*
X8788552Y3105505D01*
X8785707Y3083204D01*
X8784742Y3060700D01*
X8785707Y3038195D01*
X8788552Y3015894D01*
X8793327Y2993847D01*
X8799931Y2972358D01*
X8808313Y2951429D01*
X8818422Y2931363D01*
X8830259Y2912160D01*
X8843619Y2894076D01*
X8858504Y2877159D01*
X8874760Y2861564D01*
X8892286Y2847441D01*
X8910929Y2834843D01*
X8930589Y2823870D01*
X8951112Y2814574D01*
X8972346Y2807106D01*
X8994140Y2801416D01*
X9016339Y2797606D01*
X9038742Y2795676D01*
X9061246Y2795676D01*
X9083700Y2797606D01*
X9105900Y2801416D01*
X9127693Y2807106D01*
X9148927Y2814574D01*
X9169400Y2823870D01*
X9189059Y2834843D01*
X9207703Y2847441D01*
X9225229Y2861564D01*
X9241485Y2877159D01*
X9256369Y2894076D01*
X9269780Y2912160D01*
X9281566Y2931363D01*
X9289592Y2947314D01*
X9292488Y2950768D01*
X9296552Y2952648D01*
X9301022Y2952597D01*
X9305086Y2950616D01*
X9307830Y2947111D01*
X9308846Y2942742D01*
X9308846Y1359255D01*
X9308033Y1319326D01*
X9306966Y1315008D01*
X9304172Y1311554D01*
X9300159Y1309624D01*
X9295688Y1309624D01*
X9291624Y1311554D01*
X9288830Y1314958D01*
X9281566Y1329334D01*
X9269780Y1348536D01*
X9256369Y1366621D01*
X9241485Y1383538D01*
X9225229Y1399133D01*
X9207703Y1413256D01*
X9189059Y1425854D01*
X9169400Y1436827D01*
X9148876Y1446123D01*
X9127693Y1453591D01*
X9105900Y1459280D01*
X9083700Y1463090D01*
X9061246Y1465021D01*
X9038742Y1465021D01*
X9016288Y1463090D01*
X8994140Y1459280D01*
X8972346Y1453591D01*
X8951112Y1446123D01*
X8930589Y1436827D01*
X8910929Y1425854D01*
X8892286Y1413256D01*
X8874760Y1399133D01*
X8858504Y1383538D01*
X8843619Y1366621D01*
X8830259Y1348536D01*
X8818422Y1329334D01*
X8808313Y1309268D01*
X8799931Y1288338D01*
X8793327Y1266850D01*
X8788552Y1244803D01*
X8785707Y1222502D01*
X8784742Y1199997D01*
X8785707Y1177493D01*
X8788552Y1155192D01*
X8793327Y1133144D01*
X8799931Y1111656D01*
X8808313Y1090726D01*
X8818422Y1070660D01*
X8830259Y1051458D01*
X8843619Y1033373D01*
X8858504Y1016457D01*
X8874760Y1000912D01*
X8892286Y986739D01*
X8910929Y974140D01*
X8930589Y963168D01*
X8951112Y953871D01*
X8972346Y946403D01*
X8994140Y940714D01*
X9016288Y936904D01*
X9038742Y934974D01*
X9061246Y934974D01*
X9083700Y936904D01*
X9105900Y940714D01*
X9127693Y946403D01*
X9148876Y953871D01*
X9169400Y963168D01*
X9189059Y974140D01*
X9207703Y986739D01*
X9225229Y1000912D01*
X9238996Y1014069D01*
X9242755Y1016355D01*
X9247174Y1016812D01*
X9251340Y1015339D01*
X9254540Y1012240D01*
X9256064Y1008126D01*
X9255709Y1003706D01*
X9246057Y972718D01*
X9229547Y926490D01*
X9211208Y880922D01*
X9191040Y836168D01*
X9169095Y792226D01*
X9145422Y749249D01*
X9120022Y707237D01*
X9092946Y666292D01*
X9064244Y626465D01*
X9033967Y587806D01*
X9002166Y550418D01*
X8968841Y514350D01*
X8934145Y479653D01*
X8898026Y446379D01*
X8860637Y414578D01*
X8821978Y384302D01*
X8782151Y355600D01*
X8741206Y328574D01*
X8699195Y303174D01*
X8656167Y279501D01*
X8612276Y257556D01*
X8567470Y237439D01*
X8521954Y219100D01*
X8475726Y202641D01*
X8428837Y188010D01*
X8381390Y175310D01*
X8333536Y164541D01*
X8285225Y155702D01*
X8236610Y148844D01*
X8187791Y143916D01*
X8138769Y140919D01*
X8089544Y139954D01*
G37*

%LPC*%
G36*
X3265322Y185013D02*
G01*
X3287877Y185013D01*
X3310280Y186893D01*
X3332479Y190703D01*
X3354273Y196392D01*
X3375507Y203860D01*
X3396030Y213156D01*
X3415690Y224129D01*
X3434334Y236728D01*
X3451860Y250901D01*
X3468115Y266446D01*
X3482949Y283362D01*
X3496360Y301447D01*
X3508146Y320649D01*
X3518306Y340766D01*
X3526688Y361645D01*
X3533292Y383184D01*
X3538016Y405180D01*
X3540912Y427482D01*
X3541826Y449986D01*
X3540912Y472490D01*
X3538016Y494842D01*
X3533292Y516839D01*
X3526688Y538378D01*
X3518306Y559257D01*
X3508146Y579374D01*
X3496360Y598525D01*
X3482949Y616610D01*
X3468115Y633526D01*
X3451860Y649122D01*
X3434334Y663244D01*
X3415690Y675843D01*
X3396030Y686866D01*
X3375507Y696112D01*
X3354273Y703630D01*
X3332479Y709269D01*
X3310280Y713079D01*
X3287877Y715010D01*
X3265322Y715010D01*
X3242919Y713079D01*
X3220720Y709269D01*
X3198926Y703630D01*
X3177692Y696112D01*
X3157169Y686866D01*
X3137509Y675843D01*
X3118866Y663244D01*
X3101340Y649122D01*
X3085084Y633526D01*
X3070250Y616610D01*
X3056839Y598525D01*
X3045053Y579374D01*
X3034893Y559257D01*
X3026511Y538378D01*
X3019907Y516839D01*
X3015183Y494842D01*
X3012338Y472490D01*
X3011373Y449986D01*
X3012338Y427482D01*
X3015183Y405180D01*
X3019907Y383184D01*
X3026511Y361645D01*
X3034893Y340766D01*
X3045053Y320649D01*
X3056839Y301447D01*
X3070250Y283362D01*
X3085084Y266446D01*
X3101340Y250901D01*
X3118866Y236728D01*
X3137509Y224129D01*
X3157169Y213156D01*
X3177692Y203860D01*
X3198926Y196392D01*
X3220720Y190703D01*
X3242919Y186893D01*
G37*
G36*
X6938721Y185013D02*
G01*
X6961276Y185013D01*
X6983679Y186893D01*
X7005878Y190703D01*
X7027672Y196392D01*
X7048906Y203860D01*
X7069429Y213156D01*
X7089089Y224129D01*
X7107732Y236728D01*
X7125258Y250901D01*
X7141514Y266446D01*
X7156348Y283362D01*
X7169759Y301447D01*
X7181545Y320649D01*
X7191705Y340766D01*
X7200087Y361645D01*
X7206691Y383184D01*
X7211415Y405180D01*
X7214311Y427482D01*
X7215225Y449986D01*
X7214311Y472490D01*
X7211415Y494842D01*
X7206691Y516839D01*
X7200087Y538378D01*
X7191705Y559257D01*
X7181545Y579374D01*
X7169759Y598525D01*
X7156348Y616610D01*
X7141514Y633526D01*
X7125258Y649122D01*
X7107732Y663244D01*
X7089089Y675843D01*
X7069429Y686816D01*
X7048906Y696112D01*
X7027672Y703630D01*
X7005878Y709269D01*
X6983679Y713079D01*
X6961276Y715010D01*
X6938721Y715010D01*
X6916318Y713079D01*
X6894118Y709269D01*
X6872325Y703630D01*
X6851091Y696112D01*
X6830568Y686816D01*
X6810908Y675843D01*
X6792264Y663244D01*
X6774738Y649122D01*
X6758482Y633526D01*
X6743649Y616610D01*
X6730238Y598525D01*
X6718452Y579374D01*
X6708292Y559257D01*
X6699910Y538378D01*
X6693306Y516839D01*
X6688581Y494842D01*
X6685737Y472490D01*
X6684772Y449986D01*
X6685737Y427482D01*
X6688581Y405180D01*
X6693306Y383184D01*
X6699910Y361645D01*
X6708292Y340766D01*
X6718452Y320649D01*
X6730238Y301447D01*
X6743649Y283362D01*
X6758482Y266446D01*
X6774738Y250901D01*
X6792264Y236728D01*
X6810908Y224129D01*
X6830568Y213156D01*
X6851091Y203860D01*
X6872325Y196392D01*
X6894118Y190703D01*
X6916318Y186893D01*
G37*
G36*
X438759Y185013D02*
G01*
X461264Y185013D01*
X483666Y186893D01*
X505866Y190703D01*
X527659Y196392D01*
X548894Y203860D01*
X569417Y213156D01*
X589076Y224129D01*
X607720Y236728D01*
X625246Y250901D01*
X641502Y266446D01*
X656386Y283362D01*
X669747Y301447D01*
X681583Y320649D01*
X691692Y340766D01*
X700074Y361645D01*
X706678Y383184D01*
X711403Y405180D01*
X714298Y427482D01*
X715264Y449986D01*
X714298Y472490D01*
X711403Y494842D01*
X706678Y516839D01*
X700074Y538378D01*
X691692Y559257D01*
X681583Y579374D01*
X669747Y598525D01*
X656386Y616610D01*
X641502Y633526D01*
X625246Y649122D01*
X607720Y663244D01*
X589076Y675843D01*
X569417Y686816D01*
X548894Y696112D01*
X527659Y703630D01*
X505866Y709269D01*
X483666Y713079D01*
X461264Y715010D01*
X438759Y715010D01*
X416306Y713079D01*
X394106Y709269D01*
X372313Y703630D01*
X351078Y696112D01*
X330606Y686816D01*
X310946Y675843D01*
X292252Y663244D01*
X274777Y649122D01*
X258521Y633526D01*
X243636Y616610D01*
X230225Y598525D01*
X218440Y579374D01*
X208279Y559257D01*
X199898Y538378D01*
X193294Y516839D01*
X188569Y494842D01*
X185724Y472490D01*
X184759Y449986D01*
X185724Y427482D01*
X188569Y405180D01*
X193294Y383184D01*
X199898Y361645D01*
X208279Y340766D01*
X218440Y320649D01*
X230225Y301447D01*
X243636Y283362D01*
X258521Y266446D01*
X274777Y250901D01*
X292252Y236728D01*
X310946Y224129D01*
X330606Y213156D01*
X351078Y203860D01*
X372313Y196392D01*
X394106Y190703D01*
X416306Y186893D01*
G37*
G36*
X8124850Y450748D02*
G01*
X8124850Y643737D01*
X7901381Y643737D01*
X7906359Y633069D01*
X7919415Y609854D01*
X7934147Y587603D01*
X7950453Y566470D01*
X7968234Y546608D01*
X7987487Y528066D01*
X8007959Y510997D01*
X8029651Y495503D01*
X8052460Y481584D01*
X8076184Y469392D01*
X8100720Y458978D01*
G37*
G36*
X8537549Y450748D02*
G01*
X8561679Y458978D01*
X8586216Y469392D01*
X8609939Y481584D01*
X8632748Y495503D01*
X8654440Y510997D01*
X8674912Y528066D01*
X8694166Y546608D01*
X8711946Y566470D01*
X8728252Y587603D01*
X8742984Y609854D01*
X8756040Y633069D01*
X8761018Y643737D01*
X8537549Y643737D01*
G37*
G36*
X2917748Y936447D02*
G01*
X2917748Y1054303D01*
X2800045Y1054303D01*
X2802737Y1047496D01*
X2811881Y1029462D01*
X2822651Y1012393D01*
X2834944Y996442D01*
X2848711Y981659D01*
X2863799Y968248D01*
X2880055Y956310D01*
X2897378Y945946D01*
X2915564Y937260D01*
G37*
G36*
X4829098Y936447D02*
G01*
X4829098Y1054303D01*
X4711395Y1054303D01*
X4714087Y1047496D01*
X4723231Y1029462D01*
X4734001Y1012393D01*
X4746294Y996442D01*
X4760061Y981659D01*
X4775149Y968248D01*
X4791405Y956310D01*
X4808728Y945946D01*
X4826914Y937260D01*
G37*
G36*
X6740448Y936447D02*
G01*
X6740448Y1054303D01*
X6622745Y1054303D01*
X6625437Y1047496D01*
X6634581Y1029462D01*
X6645351Y1012393D01*
X6657644Y996442D01*
X6671411Y981659D01*
X6686499Y968248D01*
X6702755Y956310D01*
X6720078Y945946D01*
X6738264Y937260D01*
G37*
G36*
X2497632Y936447D02*
G01*
X2497632Y1054303D01*
X2379929Y1054303D01*
X2382621Y1047496D01*
X2391765Y1029462D01*
X2402535Y1012393D01*
X2414828Y996442D01*
X2428595Y981659D01*
X2443683Y968248D01*
X2459939Y956310D01*
X2477262Y945946D01*
X2495448Y937260D01*
G37*
G36*
X4408982Y936447D02*
G01*
X4408982Y1054303D01*
X4291279Y1054303D01*
X4293971Y1047496D01*
X4303115Y1029462D01*
X4313885Y1012393D01*
X4326178Y996442D01*
X4339945Y981659D01*
X4355033Y968248D01*
X4371289Y956310D01*
X4388612Y945946D01*
X4406798Y937260D01*
G37*
G36*
X6320332Y936447D02*
G01*
X6320332Y1054303D01*
X6202629Y1054303D01*
X6205321Y1047496D01*
X6214465Y1029462D01*
X6225235Y1012393D01*
X6237528Y996442D01*
X6251295Y981659D01*
X6266383Y968248D01*
X6282639Y956310D01*
X6299962Y945946D01*
X6318148Y937260D01*
G37*
G36*
X6903161Y936599D02*
G01*
X6914540Y941374D01*
X6932320Y950925D01*
X6949135Y962101D01*
X6964832Y974801D01*
X6979259Y988872D01*
X6992315Y1004265D01*
X7003846Y1020826D01*
X7013803Y1038352D01*
X7020966Y1054303D01*
X6903161Y1054303D01*
G37*
G36*
X4991811Y936599D02*
G01*
X5003190Y941374D01*
X5020970Y950925D01*
X5037785Y962101D01*
X5053482Y974801D01*
X5067909Y988872D01*
X5080965Y1004265D01*
X5092496Y1020826D01*
X5102453Y1038352D01*
X5109616Y1054303D01*
X4991811Y1054303D01*
G37*
G36*
X3080461Y936599D02*
G01*
X3091840Y941374D01*
X3109620Y950925D01*
X3126435Y962101D01*
X3142132Y974801D01*
X3156559Y988872D01*
X3169615Y1004265D01*
X3181146Y1020826D01*
X3191103Y1038352D01*
X3198266Y1054303D01*
X3080461Y1054303D01*
G37*
G36*
X6483045Y936599D02*
G01*
X6494424Y941374D01*
X6512204Y950925D01*
X6529019Y962101D01*
X6544716Y974801D01*
X6559143Y988872D01*
X6572199Y1004265D01*
X6583730Y1020826D01*
X6593687Y1038352D01*
X6600850Y1054303D01*
X6483045Y1054303D01*
G37*
G36*
X4571695Y936599D02*
G01*
X4583074Y941374D01*
X4600854Y950925D01*
X4617669Y962101D01*
X4633366Y974801D01*
X4647793Y988872D01*
X4660849Y1004265D01*
X4672380Y1020826D01*
X4682337Y1038352D01*
X4689500Y1054303D01*
X4571695Y1054303D01*
G37*
G36*
X2660345Y936599D02*
G01*
X2671724Y941374D01*
X2689504Y950925D01*
X2706319Y962101D01*
X2722016Y974801D01*
X2736443Y988872D01*
X2749499Y1004265D01*
X2761030Y1020826D01*
X2770987Y1038352D01*
X2778150Y1054303D01*
X2660345Y1054303D01*
G37*
G36*
X2076754Y937463D02*
G01*
X2076754Y1055319D01*
X1959051Y1055319D01*
X1961743Y1048512D01*
X1970887Y1030478D01*
X1981657Y1013409D01*
X1993950Y997458D01*
X2007717Y982675D01*
X2022805Y969264D01*
X2039061Y957326D01*
X2056384Y946962D01*
X2074570Y938276D01*
G37*
G36*
X3567988Y937463D02*
G01*
X3567988Y1055319D01*
X3450285Y1055319D01*
X3452977Y1048512D01*
X3462121Y1030478D01*
X3472891Y1013409D01*
X3485184Y997458D01*
X3498951Y982675D01*
X3514039Y969264D01*
X3530295Y957326D01*
X3547618Y946962D01*
X3565804Y938276D01*
G37*
G36*
X5479338Y937463D02*
G01*
X5479338Y1055319D01*
X5361635Y1055319D01*
X5364327Y1048512D01*
X5373471Y1030478D01*
X5384241Y1013409D01*
X5396534Y997458D01*
X5410301Y982675D01*
X5425389Y969264D01*
X5441645Y957326D01*
X5458968Y946962D01*
X5477154Y938276D01*
G37*
G36*
X5899454Y937463D02*
G01*
X5899454Y1055319D01*
X5781751Y1055319D01*
X5784443Y1048512D01*
X5793587Y1030478D01*
X5804357Y1013409D01*
X5816650Y997458D01*
X5830417Y982675D01*
X5845505Y969264D01*
X5861761Y957326D01*
X5879084Y946962D01*
X5897270Y938276D01*
G37*
G36*
X3988104Y937463D02*
G01*
X3988104Y1055319D01*
X3870401Y1055319D01*
X3873093Y1048512D01*
X3882237Y1030478D01*
X3893007Y1013409D01*
X3905300Y997458D01*
X3919067Y982675D01*
X3934155Y969264D01*
X3950411Y957326D01*
X3967734Y946962D01*
X3985920Y938276D01*
G37*
G36*
X1656638Y937463D02*
G01*
X1656638Y1055319D01*
X1538935Y1055319D01*
X1541627Y1048512D01*
X1550771Y1030478D01*
X1561541Y1013409D01*
X1573834Y997458D01*
X1587601Y982675D01*
X1602689Y969264D01*
X1618945Y957326D01*
X1636268Y946962D01*
X1654454Y938276D01*
G37*
G36*
X2239467Y937615D02*
G01*
X2250846Y942390D01*
X2268626Y951941D01*
X2285441Y963117D01*
X2301138Y975817D01*
X2315565Y989888D01*
X2328621Y1005281D01*
X2340152Y1021842D01*
X2350109Y1039368D01*
X2357272Y1055319D01*
X2239467Y1055319D01*
G37*
G36*
X4150817Y937615D02*
G01*
X4162196Y942390D01*
X4179976Y951941D01*
X4196791Y963117D01*
X4212488Y975817D01*
X4226915Y989888D01*
X4239971Y1005281D01*
X4251502Y1021842D01*
X4261459Y1039368D01*
X4268622Y1055319D01*
X4150817Y1055319D01*
G37*
G36*
X6062167Y937615D02*
G01*
X6073546Y942390D01*
X6091326Y951941D01*
X6108141Y963117D01*
X6123838Y975817D01*
X6138265Y989888D01*
X6151321Y1005281D01*
X6162852Y1021842D01*
X6172809Y1039368D01*
X6179972Y1055319D01*
X6062167Y1055319D01*
G37*
G36*
X1819351Y937615D02*
G01*
X1830730Y942390D01*
X1848510Y951941D01*
X1865325Y963117D01*
X1881022Y975817D01*
X1895449Y989888D01*
X1908505Y1005281D01*
X1920036Y1021842D01*
X1929993Y1039368D01*
X1937156Y1055319D01*
X1819351Y1055319D01*
G37*
G36*
X5642051Y937615D02*
G01*
X5653430Y942390D01*
X5671210Y951941D01*
X5688025Y963117D01*
X5703722Y975817D01*
X5718149Y989888D01*
X5731205Y1005281D01*
X5742736Y1021842D01*
X5752693Y1039368D01*
X5759856Y1055319D01*
X5642051Y1055319D01*
G37*
G36*
X3730701Y937615D02*
G01*
X3742080Y942390D01*
X3759860Y951941D01*
X3776675Y963117D01*
X3792372Y975817D01*
X3806799Y989888D01*
X3819855Y1005281D01*
X3831386Y1021842D01*
X3841343Y1039368D01*
X3848506Y1055319D01*
X3730701Y1055319D01*
G37*
G36*
X7901381Y956462D02*
G01*
X8124850Y956462D01*
X8124850Y1278737D01*
X7901381Y1278737D01*
X7906359Y1268069D01*
X7919415Y1244854D01*
X7934147Y1222603D01*
X7950453Y1201470D01*
X7968234Y1181608D01*
X7987487Y1163066D01*
X8007959Y1145997D01*
X8029651Y1130503D01*
X8036559Y1126286D01*
X8039608Y1123442D01*
X8041233Y1119682D01*
X8041233Y1115517D01*
X8039608Y1111758D01*
X8036559Y1108913D01*
X8029651Y1104696D01*
X8007959Y1089202D01*
X7987487Y1072134D01*
X7968234Y1053592D01*
X7950453Y1033729D01*
X7934147Y1012596D01*
X7919415Y990346D01*
X7906359Y967130D01*
G37*
G36*
X8537549Y956462D02*
G01*
X8761018Y956462D01*
X8756040Y967130D01*
X8742984Y990346D01*
X8728252Y1012596D01*
X8711946Y1033729D01*
X8694166Y1053592D01*
X8674912Y1072134D01*
X8654440Y1089202D01*
X8632748Y1104696D01*
X8625840Y1108913D01*
X8622792Y1111758D01*
X8621166Y1115517D01*
X8621166Y1119682D01*
X8622792Y1123442D01*
X8625840Y1126286D01*
X8632748Y1130503D01*
X8654440Y1145997D01*
X8674912Y1163066D01*
X8694166Y1181608D01*
X8711946Y1201470D01*
X8728252Y1222603D01*
X8742984Y1244854D01*
X8756040Y1268069D01*
X8761018Y1278737D01*
X8537549Y1278737D01*
G37*
G36*
X7819034Y3916019D02*
G01*
X7835646Y3916527D01*
X7852054Y3918864D01*
X7868056Y3923080D01*
X7883550Y3929075D01*
X7898180Y3936847D01*
X7911896Y3946194D01*
X7924444Y3957065D01*
X7935620Y3969258D01*
X7945374Y3982669D01*
X7953552Y3997147D01*
X7960004Y4012387D01*
X7964678Y4028287D01*
X7967472Y4044645D01*
X7968437Y4061206D01*
X7967472Y4077766D01*
X7964678Y4094124D01*
X7960004Y4110024D01*
X7953552Y4125264D01*
X7945374Y4139742D01*
X7935620Y4153154D01*
X7924444Y4165346D01*
X7911896Y4176217D01*
X7898180Y4185564D01*
X7883550Y4193336D01*
X7868056Y4199331D01*
X7852054Y4203547D01*
X7835646Y4205884D01*
X7819034Y4206392D01*
X7802524Y4204970D01*
X7786268Y4201668D01*
X7770520Y4196537D01*
X7755432Y4189679D01*
X7741208Y4181094D01*
X7728102Y4170984D01*
X7716215Y4159402D01*
X7705699Y4146550D01*
X7696758Y4132630D01*
X7689443Y4117746D01*
X7683855Y4102100D01*
X7680096Y4085996D01*
X7678216Y4069486D01*
X7678216Y4052925D01*
X7680096Y4036415D01*
X7683855Y4020312D01*
X7689443Y4004665D01*
X7696758Y3989781D01*
X7705699Y3975862D01*
X7716215Y3963009D01*
X7728102Y3951427D01*
X7741208Y3941318D01*
X7755432Y3932732D01*
X7770520Y3925874D01*
X7786268Y3920744D01*
X7802524Y3917442D01*
G37*
G36*
X8537549Y1591462D02*
G01*
X8761018Y1591462D01*
X8756040Y1602130D01*
X8742984Y1625346D01*
X8728252Y1647596D01*
X8711946Y1668729D01*
X8694166Y1688592D01*
X8674912Y1707134D01*
X8654440Y1724202D01*
X8632748Y1739696D01*
X8625840Y1743913D01*
X8622792Y1746757D01*
X8621166Y1750517D01*
X8621166Y1754682D01*
X8622792Y1758442D01*
X8625840Y1761286D01*
X8632748Y1765503D01*
X8654440Y1780997D01*
X8674912Y1798066D01*
X8694166Y1816607D01*
X8711946Y1836470D01*
X8728252Y1857603D01*
X8742984Y1879854D01*
X8756040Y1903069D01*
X8761018Y1913737D01*
X8537549Y1913737D01*
G37*
G36*
X7901381Y1591462D02*
G01*
X8124850Y1591462D01*
X8124850Y1913737D01*
X7901381Y1913737D01*
X7906359Y1903069D01*
X7919415Y1879854D01*
X7934147Y1857603D01*
X7950453Y1836470D01*
X7968234Y1816607D01*
X7987487Y1798066D01*
X8007959Y1780997D01*
X8029651Y1765503D01*
X8036559Y1761286D01*
X8039608Y1758442D01*
X8041233Y1754682D01*
X8041233Y1750517D01*
X8039608Y1746757D01*
X8036559Y1743913D01*
X8029651Y1739696D01*
X8007959Y1724202D01*
X7987487Y1707134D01*
X7968234Y1688592D01*
X7950453Y1668729D01*
X7934147Y1647596D01*
X7919415Y1625346D01*
X7906359Y1602130D01*
G37*
G36*
X7869529Y3757523D02*
G01*
X7960715Y3757523D01*
X7960004Y3760012D01*
X7953552Y3775252D01*
X7945374Y3789730D01*
X7935620Y3803142D01*
X7924444Y3815334D01*
X7911896Y3826205D01*
X7898180Y3835552D01*
X7883550Y3843324D01*
X7869529Y3848760D01*
G37*
G36*
X7685786Y3757523D02*
G01*
X7776870Y3757523D01*
X7776870Y3848608D01*
X7770520Y3846525D01*
X7755432Y3839667D01*
X7741208Y3831082D01*
X7728102Y3820972D01*
X7716215Y3809390D01*
X7705699Y3796537D01*
X7696758Y3782618D01*
X7689443Y3767734D01*
G37*
G36*
X7080910Y3650894D02*
G01*
X7194803Y3650894D01*
X7190689Y3661054D01*
X7181494Y3678580D01*
X7170623Y3695192D01*
X7158177Y3710635D01*
X7144308Y3724808D01*
X7129170Y3737610D01*
X7112863Y3748887D01*
X7095540Y3758539D01*
X7080910Y3764889D01*
G37*
G36*
X7776870Y3573779D02*
G01*
X7776870Y3664864D01*
X7685786Y3664864D01*
X7689443Y3654653D01*
X7696758Y3639769D01*
X7705699Y3625850D01*
X7716215Y3612997D01*
X7728102Y3601415D01*
X7741208Y3591306D01*
X7755432Y3582720D01*
X7770520Y3575862D01*
G37*
G36*
X7869529Y3573627D02*
G01*
X7883550Y3579063D01*
X7898180Y3586835D01*
X7911896Y3596182D01*
X7924444Y3607054D01*
X7935620Y3619246D01*
X7945374Y3632657D01*
X7953552Y3647135D01*
X7960004Y3662375D01*
X7960715Y3664864D01*
X7869529Y3664864D01*
G37*
G36*
X7080910Y3384194D02*
G01*
X7095540Y3390544D01*
X7112863Y3400196D01*
X7129170Y3411474D01*
X7144308Y3424275D01*
X7158177Y3438448D01*
X7170623Y3453892D01*
X7181494Y3470503D01*
X7190689Y3488029D01*
X7194803Y3498189D01*
X7080910Y3498189D01*
G37*
G36*
X5373522Y185013D02*
G01*
X5396077Y185013D01*
X5418480Y186893D01*
X5440680Y190703D01*
X5462473Y196392D01*
X5483707Y203860D01*
X5504230Y213156D01*
X5523890Y224129D01*
X5542534Y236728D01*
X5560060Y250901D01*
X5576316Y266446D01*
X5591149Y283362D01*
X5604560Y301447D01*
X5616346Y320649D01*
X5626506Y340766D01*
X5634888Y361645D01*
X5641492Y383184D01*
X5646216Y405180D01*
X5649112Y427482D01*
X5650026Y449986D01*
X5649112Y472490D01*
X5646216Y494842D01*
X5641492Y516839D01*
X5634888Y538378D01*
X5626506Y559257D01*
X5616346Y579374D01*
X5604560Y598525D01*
X5591149Y616610D01*
X5576316Y633526D01*
X5560060Y649122D01*
X5542534Y663244D01*
X5523890Y675843D01*
X5504230Y686866D01*
X5483707Y696112D01*
X5462473Y703630D01*
X5440680Y709269D01*
X5418480Y713079D01*
X5396077Y715010D01*
X5373522Y715010D01*
X5351119Y713079D01*
X5328920Y709269D01*
X5307126Y703630D01*
X5285892Y696112D01*
X5265369Y686866D01*
X5245709Y675843D01*
X5227066Y663244D01*
X5209540Y649122D01*
X5193284Y633526D01*
X5178450Y616610D01*
X5165039Y598525D01*
X5153253Y579374D01*
X5143093Y559257D01*
X5134711Y538378D01*
X5128107Y516839D01*
X5123383Y494842D01*
X5120538Y472490D01*
X5119573Y449986D01*
X5120538Y427482D01*
X5123383Y405180D01*
X5128107Y383184D01*
X5134711Y361645D01*
X5143093Y340766D01*
X5153253Y320649D01*
X5165039Y301447D01*
X5178450Y283362D01*
X5193284Y266446D01*
X5209540Y250901D01*
X5227066Y236728D01*
X5245709Y224129D01*
X5265369Y213156D01*
X5285892Y203860D01*
X5307126Y196392D01*
X5328920Y190703D01*
X5351119Y186893D01*
G37*
G36*
X7838744Y2795676D02*
G01*
X7861249Y2795676D01*
X7883702Y2797606D01*
X7905902Y2801416D01*
X7927695Y2807106D01*
X7948879Y2814574D01*
X7969402Y2823870D01*
X7989062Y2834843D01*
X8007705Y2847441D01*
X8025231Y2861564D01*
X8041487Y2877159D01*
X8056372Y2894076D01*
X8069783Y2912160D01*
X8081568Y2931363D01*
X8091678Y2951429D01*
X8100110Y2972358D01*
X8106664Y2993847D01*
X8111439Y3015894D01*
X8114284Y3038195D01*
X8115249Y3060700D01*
X8114284Y3083204D01*
X8111439Y3105505D01*
X8106664Y3127552D01*
X8100110Y3149041D01*
X8091678Y3169970D01*
X8081568Y3190036D01*
X8069783Y3209239D01*
X8056372Y3227324D01*
X8041487Y3244240D01*
X8025231Y3259785D01*
X8007705Y3273958D01*
X7989062Y3286556D01*
X7969402Y3297529D01*
X7948879Y3306826D01*
X7927695Y3314293D01*
X7905902Y3319983D01*
X7883702Y3323793D01*
X7861249Y3325723D01*
X7838744Y3325723D01*
X7816291Y3323793D01*
X7794142Y3319983D01*
X7772349Y3314293D01*
X7751114Y3306826D01*
X7730591Y3297529D01*
X7710931Y3286556D01*
X7692288Y3273958D01*
X7674762Y3259785D01*
X7658506Y3244240D01*
X7643622Y3227324D01*
X7630261Y3209239D01*
X7618425Y3190036D01*
X7608316Y3169970D01*
X7599934Y3149041D01*
X7593330Y3127552D01*
X7588554Y3105505D01*
X7585709Y3083204D01*
X7584744Y3060700D01*
X7585709Y3038195D01*
X7588554Y3015894D01*
X7593330Y2993847D01*
X7599934Y2972358D01*
X7608316Y2951429D01*
X7618425Y2931363D01*
X7630261Y2912160D01*
X7643622Y2894076D01*
X7658506Y2877159D01*
X7674762Y2861564D01*
X7692288Y2847441D01*
X7710931Y2834843D01*
X7730591Y2823870D01*
X7751114Y2814574D01*
X7772349Y2807106D01*
X7794142Y2801416D01*
X7816291Y2797606D01*
G37*
G36*
X8537549Y2226462D02*
G01*
X8761018Y2226462D01*
X8756040Y2237130D01*
X8742984Y2260346D01*
X8728252Y2282596D01*
X8711946Y2303729D01*
X8694166Y2323592D01*
X8674912Y2342134D01*
X8654440Y2359202D01*
X8632748Y2374696D01*
X8609939Y2388616D01*
X8586216Y2400808D01*
X8561679Y2411222D01*
X8537549Y2419451D01*
G37*
G36*
X7901381Y2226462D02*
G01*
X8124850Y2226462D01*
X8124850Y2419451D01*
X8100720Y2411222D01*
X8076184Y2400808D01*
X8052460Y2388616D01*
X8029651Y2374696D01*
X8007959Y2359202D01*
X7987487Y2342134D01*
X7968234Y2323592D01*
X7950453Y2303729D01*
X7934147Y2282596D01*
X7919415Y2260346D01*
X7906359Y2237130D01*
G37*
G36*
X7278522Y2173376D02*
G01*
X7301077Y2173376D01*
X7323480Y2175306D01*
X7345680Y2179116D01*
X7367473Y2184806D01*
X7388707Y2192274D01*
X7409230Y2201570D01*
X7428890Y2212543D01*
X7447534Y2225141D01*
X7465059Y2239264D01*
X7481316Y2254859D01*
X7496149Y2271776D01*
X7509560Y2289860D01*
X7521346Y2309063D01*
X7531506Y2329129D01*
X7539888Y2350058D01*
X7546492Y2371547D01*
X7551216Y2393594D01*
X7554112Y2415895D01*
X7555026Y2438400D01*
X7554112Y2460904D01*
X7551216Y2483205D01*
X7546492Y2505252D01*
X7539888Y2526741D01*
X7531506Y2547670D01*
X7521346Y2567736D01*
X7509560Y2586939D01*
X7496149Y2605024D01*
X7481316Y2621940D01*
X7465059Y2637485D01*
X7447534Y2651658D01*
X7428890Y2664256D01*
X7409230Y2675229D01*
X7388707Y2684526D01*
X7367473Y2691993D01*
X7345680Y2697683D01*
X7323480Y2701493D01*
X7301077Y2703423D01*
X7278522Y2703423D01*
X7256119Y2701493D01*
X7233920Y2697683D01*
X7212126Y2691993D01*
X7190892Y2684526D01*
X7170369Y2675229D01*
X7150709Y2664256D01*
X7132066Y2651658D01*
X7114540Y2637485D01*
X7098284Y2621940D01*
X7083450Y2605024D01*
X7070039Y2586939D01*
X7058253Y2567736D01*
X7048093Y2547670D01*
X7039711Y2526741D01*
X7033107Y2505252D01*
X7028383Y2483205D01*
X7025538Y2460904D01*
X7024573Y2438400D01*
X7025538Y2415895D01*
X7028383Y2393594D01*
X7033107Y2371547D01*
X7039711Y2350058D01*
X7048093Y2329129D01*
X7058253Y2309063D01*
X7070039Y2289860D01*
X7083450Y2271776D01*
X7098284Y2254859D01*
X7114540Y2239264D01*
X7132066Y2225141D01*
X7150709Y2212543D01*
X7170369Y2201570D01*
X7190892Y2192274D01*
X7212126Y2184806D01*
X7233920Y2179116D01*
X7256119Y2175306D01*
G37*

%LPD*%
D12*
X5152897Y7035292D02*
G01*
X4984495Y7213600D01*
X2374900Y7213600D01*
X1485900Y6324600D01*
X1485900Y5791200D01*
X1066800Y5372100D01*
X520700Y5372100D01*
D13*
X5245100Y7327900D02*
G01*
X5130800Y7442200D01*
X2247900Y7442200D01*
X1511300Y6705600D01*
X1422400Y6705600D01*
D14*
X2597658Y3574542D02*
G01*
X2177541Y3574542D01*
X3689858Y3574542D02*
G01*
X3269741Y3574542D01*
X4807458Y3574542D02*
G01*
X4387341Y3574542D01*
X7004558Y3574542D02*
G01*
X6584441Y3574542D01*
X5899658Y3574542D02*
G01*
X5479541Y3574542D01*
D13*
X1054100Y1485900D02*
G01*
X901700Y1333500D01*
X711200Y1333500D01*
X711200Y2844800D02*
G01*
X1092200Y2844800D01*
X1460500Y3213100D01*
X711200Y2362200D02*
G01*
X1079500Y2362200D01*
X1676400Y2959100D01*
X2260600Y5181600D02*
G01*
X1714500Y5181600D01*
X1600200Y5295900D01*
X1600200Y5511800D01*
X1739900Y5651500D01*
X1739900Y6248400D01*
X2387600Y6896100D01*
X2451100Y6896100D01*
X1244600Y1917700D02*
G01*
X1143000Y1816100D01*
X711200Y1816100D01*
X1041400Y6286500D02*
G01*
X952500Y6197600D01*
X1041400Y6667500D02*
G01*
X952500Y6578600D01*
X952500Y6197600D02*
G01*
X607311Y6197600D01*
X584200Y6174488D01*
X952500Y6578600D02*
G01*
X584200Y6578600D01*
X1816100Y5384800D02*
G01*
X1879600Y5321300D01*
X3086100Y5321300D01*
X3306063Y5541263D01*
X3306063Y5631942D01*
X622300Y5776213D02*
G01*
X1077213Y5776213D01*
X1219200Y5918200D01*
X3517900Y6248400D02*
G01*
X3517900Y5840204D01*
X3726111Y5631992D01*
X3683000Y6413500D02*
G01*
X4622800Y6413500D01*
X4775200Y6261100D01*
X4775200Y5842896D01*
X4986103Y5631992D01*
X5511800Y7327900D02*
G01*
X5372100Y7327900D01*
X5372100Y7327900D02*
G01*
X5245100Y7327900D01*
D15*
X561200Y1333500D02*
G01*
X861199Y1333500D01*
X561200Y1816100D02*
G01*
X861199Y1816100D01*
D16*
X739000Y4432300D02*
G01*
X1038999Y4432300D01*
X739000Y3797300D02*
G01*
X1038999Y3797300D01*
D17*
X424200Y5365902D02*
G01*
X744199Y5365902D01*
X424200Y5770138D02*
G01*
X744199Y5770138D01*
X424200Y6174366D02*
G01*
X744199Y6174366D01*
D15*
X561200Y2844800D02*
G01*
X861199Y2844800D01*
X561200Y2362200D02*
G01*
X861199Y2362200D01*
D17*
X424200Y6578600D02*
G01*
X744199Y6578600D01*
G36*
X489000Y4464799D02*
G01*
X1288999Y4464799D01*
X1288999Y3764800D01*
X489000Y3764800D01*
G37*
D10*
G75*
G01*
X685800Y1790700D02*
G02*
X698500Y1803400I12700J0D01*
G36*
X5410200Y6223000D02*
G01*
X6248400Y6223000D01*
X6248400Y5880100D01*
X5410200Y5880100D01*
G37*
D19*
G01*
X450011Y449986D03*
G01*
X450011Y7249998D03*
G01*
X1550009Y7249998D03*
G01*
X7849997Y7249998D03*
G01*
X6949998Y449986D03*
G01*
X9049994Y1199997D03*
G01*
X9049994Y6050000D03*
G01*
X2184400Y4686300D03*
G01*
X4851400Y4686300D03*
G01*
X3276600Y450011D03*
G01*
X5384800Y450011D03*
G01*
X4572000Y2438400D03*
G01*
X1701800Y2438400D03*
G01*
X7289800Y2438400D03*
G01*
X7849997Y3060700D03*
G01*
X9049994Y3060700D03*
G01*
X6172200Y6985000D03*
D20*
G01*
X4000500Y4660874D03*
G01*
X4000500Y5010886D03*
G01*
X3048000Y4660874D03*
G01*
X3048000Y5010886D03*
G01*
X5753100Y4660900D03*
G01*
X5753100Y5010912D03*
G01*
X6705600Y4660900D03*
G01*
X6705600Y5010912D03*
D17*
G01*
X2597658Y3994657D03*
G01*
X2597658Y3574542D03*
G01*
X2177541Y3994657D03*
G01*
X2177541Y3574542D03*
G01*
X3689858Y3994657D03*
G01*
X3689858Y3574542D03*
G01*
X3269741Y3994657D03*
G01*
X3269741Y3574542D03*
G01*
X4807458Y3994657D03*
G01*
X4807458Y3574542D03*
G01*
X4387341Y3994657D03*
G01*
X4387341Y3574542D03*
G01*
X5899658Y3994657D03*
G01*
X5899658Y3574542D03*
G01*
X5479541Y3994657D03*
G01*
X5479541Y3574542D03*
G01*
X7004558Y3994657D03*
G01*
X7004558Y3574542D03*
G01*
X6584441Y3994657D03*
G01*
X6584441Y3574542D03*
D20*
G01*
X3083306Y6904941D03*
G01*
X2733293Y6904941D03*
G01*
X7823200Y4061205D03*
G01*
X7823200Y3711194D03*
G01*
X8245551Y6505651D03*
G01*
X8493048Y6753148D03*
G01*
X2743200Y2349500D03*
G01*
X2743200Y2603500D03*
G01*
X3695700Y2349500D03*
G01*
X3695700Y2603500D03*
G01*
X5448300Y2349525D03*
G01*
X5448300Y2603525D03*
G01*
X6400800Y2349525D03*
G01*
X6400800Y2603525D03*
G01*
X5502960Y7035218D03*
G01*
X5152948Y7035220D03*
D13*
G01*
X1219200Y5918200D03*
G01*
X3517900Y6248400D03*
G01*
X1054100Y1485900D03*
G01*
X1244600Y1917700D03*
G01*
X1460500Y3213100D03*
G01*
X1676400Y2959100D03*
G01*
X1816100Y5384800D03*
G01*
X939800Y7264400D03*
G01*
X939800Y7124700D03*
G01*
X1079500Y7264400D03*
G01*
X1079500Y7124700D03*
G01*
X1422400Y6705600D03*
G01*
X711200Y3187700D03*
G01*
X571500Y3187700D03*
G01*
X711200Y3327400D03*
G01*
X571500Y3327400D03*
G01*
X660400Y2082800D03*
G01*
X508000Y2082800D03*
G01*
X1447800Y2171700D03*
G01*
X2260600Y5181600D03*
G01*
X5511800Y7327900D03*
G01*
X5372100Y7327900D03*
G01*
X5245100Y7327900D03*
G01*
X469900Y5016500D03*
G01*
X469900Y4876800D03*
G01*
X609600Y5016500D03*
G01*
X609600Y4876800D03*
G01*
X6883400Y6438900D03*
G01*
X6959600Y6324600D03*
G01*
X6743700Y6438900D03*
G01*
X3683000Y6413500D03*
G01*
X3606800Y5321300D03*
G01*
X3606800Y5181600D03*
G01*
X3746500Y5321300D03*
G01*
X3746500Y5181600D03*
G01*
X4483100Y5308600D03*
G01*
X4483100Y5168900D03*
G01*
X4622800Y5308600D03*
G01*
X4622800Y5168900D03*
G01*
X7302500Y5232400D03*
G01*
X7302500Y5092700D03*
G01*
X7442200Y5232400D03*
G01*
X7442200Y5092700D03*
G01*
X7302500Y5372100D03*
G01*
X7442200Y5372100D03*
G01*
X7302500Y5511800D03*
G01*
X7442200Y5511800D03*
G01*
X7302500Y5651500D03*
G01*
X7442200Y5651500D03*
G01*
X7302500Y5791200D03*
G01*
X7442200Y5791200D03*
G01*
X7302500Y5930900D03*
G01*
X7442200Y5930900D03*
G01*
X7162800Y5232400D03*
G01*
X7162800Y5092700D03*
G01*
X7162800Y5372100D03*
G01*
X7162800Y5511800D03*
G01*
X7023100Y5232400D03*
G01*
X7023100Y5092700D03*
G01*
X7023100Y5372100D03*
G01*
X8356600Y2806700D03*
G01*
X8356600Y2667000D03*
G01*
X8496300Y2806700D03*
G01*
X8496300Y2667000D03*
G01*
X8356600Y2946400D03*
G01*
X8496300Y2946400D03*
G01*
X8356600Y3086100D03*
G01*
X8496300Y3086100D03*
G01*
X8356600Y3225800D03*
G01*
X8496300Y3225800D03*
G01*
X8356600Y3365500D03*
G01*
X8496300Y3365500D03*
G01*
X8356600Y3505200D03*
G01*
X8496300Y3505200D03*
G01*
X8915400Y1854200D03*
G01*
X8915400Y1714500D03*
G01*
X9055100Y1854200D03*
G01*
X9055100Y1714500D03*
G01*
X8915400Y1993900D03*
G01*
X9055100Y1993900D03*
G01*
X8915400Y2133600D03*
G01*
X9055100Y2133600D03*
G01*
X8915400Y2273300D03*
G01*
X9055100Y2273300D03*
G01*
X8915400Y2413000D03*
G01*
X9055100Y2413000D03*
G01*
X8915400Y2552700D03*
G01*
X9055100Y2552700D03*
G01*
X7505700Y1193800D03*
G01*
X7505700Y1054100D03*
G01*
X7645400Y1193800D03*
G01*
X7645400Y1054100D03*
G01*
X7505700Y1333500D03*
G01*
X7645400Y1333500D03*
G01*
X7505700Y1473200D03*
G01*
X7645400Y1473200D03*
G01*
X7505700Y1612900D03*
G01*
X7645400Y1612900D03*
G01*
X7505700Y1752600D03*
G01*
X7645400Y1752600D03*
G01*
X7505700Y1892300D03*
G01*
X7645400Y1892300D03*
G01*
X2044700Y419100D03*
G01*
X2184400Y419100D03*
G01*
X2044700Y558800D03*
G01*
X2184400Y558800D03*
G01*
X1905000Y419100D03*
G01*
X1905000Y558800D03*
G01*
X1765300Y419100D03*
G01*
X1765300Y558800D03*
G01*
X1625600Y419100D03*
G01*
X1625600Y558800D03*
G01*
X1485900Y419100D03*
G01*
X1485900Y558800D03*
G01*
X1346200Y419100D03*
G01*
X1346200Y558800D03*
G01*
X7061200Y2832100D03*
G01*
X7061200Y2971800D03*
G01*
X6921500Y2832100D03*
G01*
X6921500Y2971800D03*
G01*
X9105900Y3556000D03*
G01*
X9105900Y3695700D03*
G01*
X8966200Y3556000D03*
G01*
X8966200Y3695700D03*
G01*
X4432300Y381000D03*
G01*
X4432300Y520700D03*
G01*
X4292600Y381000D03*
G01*
X4292600Y520700D03*
G01*
X6311900Y419100D03*
G01*
X6311900Y558800D03*
G01*
X6172200Y419100D03*
G01*
X6172200Y558800D03*
G01*
X927100Y838200D03*
G01*
X927100Y977900D03*
G01*
X787400Y838200D03*
G01*
X787400Y977900D03*
G01*
X2824175Y5012181D03*
G01*
X2684475Y5012181D03*
G01*
X2684475Y5151881D03*
G01*
X2824175Y5151881D03*
G01*
X2451100Y6896100D03*
G01*
X952500Y6578600D03*
G01*
X952500Y6197600D03*
G01*
X814616Y6578600D03*
G01*
X814616Y6172200D03*
G01*
X1041400Y6286500D03*
G01*
X1041400Y6667500D03*
G01*
X1460500Y2984500D03*
G01*
X1701800Y2768600D03*
D21*
X8786799Y5156200D02*
G01*
X8586800Y5156200D01*
X8431199Y2070100D02*
G01*
X8231200Y2070100D01*
X8431199Y1435100D02*
G01*
X8231200Y1435100D01*
X8431199Y800100D02*
G01*
X8231200Y800100D01*
X8786799Y4305300D02*
G01*
X8586800Y4305300D01*
D20*
X476100Y6578600D02*
G01*
X616099Y6578600D01*
X476100Y6174366D02*
G01*
X616099Y6174366D01*
X476100Y5770138D02*
G01*
X616099Y5770138D01*
X476100Y5365902D02*
G01*
X616099Y5365902D01*
X501500Y2844800D02*
G01*
X641499Y2844800D01*
X501500Y2362200D02*
G01*
X641499Y2362200D01*
X501500Y1816100D02*
G01*
X641499Y1816100D01*
X501500Y1333500D02*
G01*
X641499Y1333500D01*
D12*
X2046097Y5701992D02*
G01*
X2046097Y5561992D01*
X2046097Y6122007D02*
G01*
X2046097Y5982007D01*
X2466086Y5701992D02*
G01*
X2466086Y5561992D01*
X2466086Y6122007D02*
G01*
X2466086Y5982007D01*
X2886100Y5701992D02*
G01*
X2886100Y5561992D01*
X2886100Y6122007D02*
G01*
X2886100Y5982007D01*
X3306089Y5701992D02*
G01*
X3306089Y5561992D01*
X3306089Y6122007D02*
G01*
X3306089Y5982007D01*
X3726103Y5701992D02*
G01*
X3726103Y5561992D01*
X3726103Y6122007D02*
G01*
X3726103Y5982007D01*
X4146092Y5701992D02*
G01*
X4146092Y5561992D01*
X4146092Y6122007D02*
G01*
X4146092Y5982007D01*
X4566107Y5701992D02*
G01*
X4566107Y5561992D01*
X4566107Y6122007D02*
G01*
X4566107Y5982007D01*
X4986096Y5701992D02*
G01*
X4986096Y5561992D01*
X4986096Y6122007D02*
G01*
X4986096Y5982007D01*
X5406085Y5701992D02*
G01*
X5406085Y5561992D01*
X5406085Y6122007D02*
G01*
X5406085Y5982007D01*
X5826099Y5701992D02*
G01*
X5826099Y5561992D01*
X5826099Y6122007D02*
G01*
X5826099Y5982007D01*
X6246088Y5701992D02*
G01*
X6246088Y5561992D01*
X6246088Y6122007D02*
G01*
X6246088Y5982007D01*
X6666102Y5701992D02*
G01*
X6666102Y5561992D01*
X6666102Y6122007D02*
G01*
X6666102Y5982007D01*
D15*
X1737995Y1136650D02*
G01*
X1737995Y1136650D01*
X1737995Y1556765D02*
G01*
X1737995Y1556765D01*
X2158111Y1136650D02*
G01*
X2158111Y1136650D01*
X2158111Y1556765D02*
G01*
X2158111Y1556765D01*
X2578988Y1135634D02*
G01*
X2578988Y1135634D01*
X2578988Y1555750D02*
G01*
X2578988Y1555750D01*
X2999104Y1135634D02*
G01*
X2999104Y1135634D01*
X2999104Y1555750D02*
G01*
X2999104Y1555750D01*
X3649345Y1136650D02*
G01*
X3649345Y1136650D01*
X3649345Y1556765D02*
G01*
X3649345Y1556765D01*
X4069461Y1136650D02*
G01*
X4069461Y1136650D01*
X4069461Y1556765D02*
G01*
X4069461Y1556765D01*
X4490338Y1135634D02*
G01*
X4490338Y1135634D01*
X4490338Y1555750D02*
G01*
X4490338Y1555750D01*
X4910454Y1135634D02*
G01*
X4910454Y1135634D01*
X4910454Y1555750D02*
G01*
X4910454Y1555750D01*
X5560695Y1136650D02*
G01*
X5560695Y1136650D01*
X5560695Y1556765D02*
G01*
X5560695Y1556765D01*
X5980811Y1136650D02*
G01*
X5980811Y1136650D01*
X5980811Y1556765D02*
G01*
X5980811Y1556765D01*
X6401688Y1135634D02*
G01*
X6401688Y1135634D01*
X6401688Y1555750D02*
G01*
X6401688Y1555750D01*
X6821804Y1135634D02*
G01*
X6821804Y1135634D01*
X6821804Y1555750D02*
G01*
X6821804Y1555750D01*
M02*
